<svg width="100" height="82" viewBox="0 0 100 82" fill="none" xmlns="http://www.w3.org/2000/svg">
<path d="M50 36.0781L90.0781 11H9.92188L50 36.0781ZM90.0781 71V21.0781L50 45.9219L9.92188 21.0781V71H90.0781ZM90.0781 0.921875C92.7344 0.921875 95 1.9375 96.875 3.96875C98.9062 6 99.9219 8.34375 99.9219 11V71C99.9219 73.6562 98.9062 76 96.875 78.0312C95 80.0625 92.7344 81.0781 90.0781 81.0781H9.92188C7.26562 81.0781 4.92188 80.0625 2.89062 78.0312C1.01562 76 0.078125 73.6562 0.078125 71V11C0.078125 8.34375 1.01562 6 2.89062 3.96875C4.92188 1.9375 7.26562 0.921875 9.92188 0.921875H90.0781Z" fill="#E10050"/>
</svg>
