<svg width="100" height="100" viewBox="0 0 100 100" fill="none" xmlns="http://www.w3.org/2000/svg">
<path d="M35.9375 25.8594C39.8438 21.9531 44.5312 20 50 20C55.4688 20 60.1562 21.9531 64.0625 25.8594C67.9688 29.7656 69.9219 34.4531 69.9219 39.9219C69.9219 44.1406 67.4219 48.5156 62.4219 53.0469C57.4219 57.4219 54.9219 61.4062 54.9219 65H45.0781C45.0781 61.4062 45.8594 58.3594 47.4219 55.8594C48.9844 53.2031 50.7031 51.3281 52.5781 50.2344C54.4531 48.9844 56.1719 47.5 57.7344 45.7812C59.2969 44.0625 60.0781 42.1094 60.0781 39.9219C60.0781 37.2656 59.0625 35 57.0312 33.125C55 31.0937 52.6562 30.0781 50 30.0781C47.3438 30.0781 45 31.0937 42.9688 33.125C40.9375 35 39.9219 37.2656 39.9219 39.9219H30.0781C30.0781 34.4531 32.0312 29.7656 35.9375 25.8594ZM21.6406 78.3594C29.6094 86.1719 39.0625 90.0781 50 90.0781C60.9375 90.0781 70.3125 86.1719 78.125 78.3594C86.0938 70.3906 90.0781 60.9375 90.0781 50C90.0781 39.0625 86.0938 29.6875 78.125 21.875C70.3125 13.9062 60.9375 9.92188 50 9.92188C39.0625 9.92188 29.6094 13.9062 21.6406 21.875C13.8281 29.6875 9.92188 39.0625 9.92188 50C9.92188 60.9375 13.8281 70.3906 21.6406 78.3594ZM14.6094 14.8438C24.4531 5 36.25 0.078125 50 0.078125C63.75 0.078125 75.4688 5 85.1562 14.8438C95 24.5312 99.9219 36.25 99.9219 50C99.9219 63.75 95 75.5469 85.1562 85.3906C75.4688 95.0781 63.75 99.9219 50 99.9219C36.25 99.9219 24.4531 95.0781 14.6094 85.3906C4.92188 75.5469 0.078125 63.75 0.078125 50C0.078125 36.25 4.92188 24.5312 14.6094 14.8438ZM45.0781 80V69.9219H54.9219V80H45.0781Z" fill="#E10050"/>
</svg>
