<svg width="100" height="100" viewBox="0 0 100 100" fill="none" xmlns="http://www.w3.org/2000/svg">
<path d="M80 30.0781V20H20V30.0781H80ZM60.0781 60.0781V50H20V60.0781H60.0781ZM20 35V45.0781H80V35H20ZM90.0781 0.078125C92.7344 0.078125 95 1.09375 96.875 3.125C98.9062 5 99.9219 7.26563 99.9219 9.92188V69.9219C99.9219 72.5781 98.9062 74.9219 96.875 76.9531C95 78.9844 92.7344 80 90.0781 80H20L0.078125 99.9219V9.92188C0.078125 7.26563 1.01562 5 2.89062 3.125C4.92188 1.09375 7.26562 0.078125 9.92188 0.078125H90.0781Z" fill="#E10050"/>
</svg>
