<svg width="110" height="111" viewBox="0 0 110 111" fill="none" xmlns="http://www.w3.org/2000/svg">
<circle cx="55" cy="55.8021" r="50" stroke="#E10050" stroke-width="10"/>
<g clip-path="url(#clip0)">
<path d="M91.7276 52.6283C88.9722 50.5025 84.6171 50.3202 81.7588 53.1918L74.6628 60.3226C73.7454 57.5624 70.9916 55.5527 67.7455 55.5527H55.0825C54.1217 55.5527 53.7999 55.2091 52.1308 54.0054C45.7671 48.8122 36.2087 48.8287 29.8642 54.0552L25.2098 57.8909C23.1176 56.8543 20.6744 56.8287 18.5708 57.8126L13.2323 60.3105C12.0396 60.8695 11.5569 62.2269 12.1523 63.3433L26.6373 90.4622C27.2344 91.5787 28.6844 92.0305 29.8771 91.4732L35.2156 88.9737C37.847 87.7429 39.3115 85.2298 39.2166 82.6717H67.7454C73.0356 82.6717 78.0908 80.3063 81.2646 76.344L92.8542 61.8776C95.1026 59.0737 94.7469 54.962 91.7276 52.6283ZM33.0556 84.9314L29.8769 86.4199L17.5503 63.3433L20.7306 61.8549C21.9233 61.2974 23.3717 61.7479 23.9688 62.8659L34.1356 81.9003C34.7311 83.0166 34.2483 84.3724 33.0556 84.9314ZM88.9915 59.1656L77.4021 73.632C75.1344 76.4629 71.5244 78.1517 67.7455 78.1517H37.5316L28.4849 61.213L33.054 57.4481C37.6006 53.7041 44.4569 53.7041 49.0035 57.4481C51.6816 59.6552 53.3473 60.0726 55.0824 60.0726H67.7454C69.0765 60.0726 70.1595 61.0866 70.1595 62.3325C70.1595 63.5784 69.0763 64.5924 67.7454 64.5924H55.4156C54.0829 64.5924 53.0014 65.6049 53.0014 66.8523C53.0014 68.0997 54.083 69.1122 55.4156 69.1122H69.363C71.3667 69.1122 73.2981 68.3257 74.6628 66.9532L85.2915 56.2729C86.2637 55.2965 87.754 55.3779 88.6682 56.1267C89.6241 56.91 89.7272 58.2495 88.9915 59.1656Z" fill="#E10050"/>
<path d="M62.6596 29.9938C64.3124 28.3712 65.3312 26.1776 65.3312 23.7624C65.3312 18.7876 61.0373 14.5721 55.6747 14.5721C50.3523 14.5721 45.8572 18.78 45.8572 23.7624C45.8572 26.1036 46.8374 28.3138 48.6174 30.0119C44.2028 32.329 41.0289 36.7765 41.0289 41.9924V44.2523C41.0289 45.4997 42.1105 46.5121 43.4431 46.5121H67.7455C69.0781 46.5121 70.1597 45.4997 70.1597 44.2523V41.9924C70.1595 36.8789 67.155 32.3622 62.6596 29.9938ZM55.6747 19.0921C58.2916 19.0921 60.503 21.2314 60.503 23.7625C60.503 26.2545 58.3367 28.2823 55.6747 28.2823C52.9708 28.2823 50.6855 26.2123 50.6855 23.7625C50.6855 21.2751 53.0175 19.0921 55.6747 19.0921ZM45.8572 41.9924C45.8572 37.01 50.3523 32.8021 55.6747 32.8021C60.9987 32.8021 65.3312 36.9241 65.3312 41.9924H45.8572Z" fill="#E10050"/>
</g>
<defs>
<clipPath id="clip0">
<rect width="82.4081" height="77.1429" fill="white" transform="translate(11.8973 14.5714)"/>
</clipPath>
</defs>
</svg>
