<svg width="100" height="100" viewBox="0 0 100 100" fill="none" xmlns="http://www.w3.org/2000/svg">
<mask id="path-1-inside-1" fill="white">
<path d="M91.6667 15H68.3333V8.33333C68.3276 3.73291 64.6004 0.00569662 60 0H40C35.3996 0.00569662 31.6724 3.73291 31.6667 8.33333V15H8.33333C3.73291 15.0057 0.00569662 18.7329 0 23.3333V91.6667C0.00569662 96.2671 3.73291 99.9943 8.33333 100H91.6667C96.2671 99.9943 99.9943 96.2671 100 91.6667V23.3333C99.9943 18.7329 96.2671 15.0057 91.6667 15ZM35 8.33333C35 5.5721 37.2388 3.33333 40 3.33333H60C62.7612 3.33333 65 5.5721 65 8.33333V15H35V8.33333ZM8.33333 18.3333H91.6667C94.4279 18.3333 96.6667 20.5721 96.6667 23.3333V38.3333H91.6667V33.3333C91.6667 32.4129 90.9204 31.6667 90 31.6667H80C79.0796 31.6667 78.3333 32.4129 78.3333 33.3333V38.3333H67.1313C67.4593 37.7775 67.9395 37.3283 68.5148 37.0369C69.2106 36.687 69.5711 35.9025 69.3831 35.1465C68.9087 33.2381 68.1519 31.4119 67.1387 29.7266C66.7375 29.0576 65.9253 28.7565 65.1847 29.0015C63.995 29.41 62.6758 29.104 61.7863 28.2145C60.8968 27.3242 60.5916 26.005 61.0002 24.8153C61.2451 24.0747 60.944 23.2625 60.2751 22.8613C58.5897 21.8481 56.7635 21.0913 54.8551 20.6169C54.0991 20.4289 53.3146 20.7894 52.9647 21.4852C52.4105 22.6164 51.2614 23.3325 50.0016 23.3325C48.7419 23.3325 47.5928 22.6164 47.0386 21.4852C46.6854 20.7926 45.9033 20.4329 45.1481 20.6169C43.2397 21.0913 41.4136 21.8481 39.7282 22.8613C39.0592 23.2625 38.7581 24.0747 39.0031 24.8153C39.4116 26.0059 39.1064 27.325 38.2153 28.2153C37.325 29.1048 36.005 29.4092 34.8153 28.9998C34.0747 28.7549 33.2625 29.056 32.8613 29.7249C31.8481 31.4103 31.0913 33.2365 30.6169 35.1449C30.4289 35.9009 30.7894 36.6854 31.4852 37.0353C32.0605 37.3258 32.5407 37.7759 32.8687 38.3317H23.3333V33.3333C23.3333 32.4129 22.5871 31.6667 21.6667 31.6667H11.6667C10.7463 31.6667 10 32.4129 10 33.3333V38.3333H3.33333V23.3333C3.33333 20.5721 5.5721 18.3333 8.33333 18.3333ZM81.6667 41.6667H88.3333V45H81.6667V41.6667ZM81.6667 38.3333V35H88.3333V38.3333H81.6667ZM36.6667 40C36.6683 37.9834 35.7471 36.0775 34.1667 34.825C34.4295 34.0161 34.7559 33.2284 35.1416 32.4699C37.1436 32.6953 39.139 31.9963 40.564 30.5721C41.9881 29.1471 42.6864 27.1517 42.4618 25.1497C43.2202 24.764 44.0072 24.4377 44.8169 24.1748C46.0726 25.7495 47.9777 26.6667 49.9919 26.6667C52.006 26.6667 53.9103 25.7495 55.1668 24.1748C55.9757 24.4377 56.7635 24.764 57.522 25.1497C57.2965 27.1517 57.9948 29.1471 59.4198 30.5721C60.8439 31.9963 62.8394 32.6953 64.8413 32.4699C65.2336 33.2308 65.5656 34.021 65.8333 34.8332C64.2586 36.0897 63.3415 37.994 63.3415 40.0081C63.3415 42.0223 64.2586 43.9274 65.8333 45.1831C65.5705 45.9928 65.2441 46.7798 64.8584 47.5382C62.8564 47.3136 60.861 48.0119 59.436 49.436C58.0119 50.861 57.3136 52.8564 57.5382 54.8584C56.7798 55.2441 55.9928 55.5705 55.1831 55.8333C53.9274 54.2586 52.0223 53.3415 50.0081 53.3415C47.994 53.3415 46.0897 54.2586 44.8332 55.8333C44.0243 55.5705 43.2365 55.245 42.478 54.8584C42.7034 52.8564 42.0052 50.861 40.5802 49.436C39.1561 48.0119 37.1606 47.3136 35.1587 47.5382C34.7721 46.7798 34.4466 45.9928 34.1829 45.1831C35.7601 43.9258 36.6748 42.0166 36.6667 40ZM13.3333 41.6667H20V45H13.3333V41.6667ZM13.3333 38.3333V35H20V38.3333H13.3333ZM96.6667 91.6667C96.6667 94.4279 94.4279 96.6667 91.6667 96.6667H8.33333C5.5721 96.6667 3.33333 94.4279 3.33333 91.6667V41.6667H10V46.6667C10 47.5871 10.7463 48.3333 11.6667 48.3333H21.6667C22.5871 48.3333 23.3333 47.5871 23.3333 46.6667V41.6667H32.8687C32.5407 42.2225 32.0605 42.6717 31.4852 42.9631C30.7894 43.313 30.4289 44.0975 30.6169 44.8535C31.0913 46.7619 31.8481 48.5881 32.8613 50.2734C33.2625 50.9424 34.0747 51.2435 34.8153 50.9985C36.005 50.59 37.3242 50.896 38.2137 51.7855C39.1032 52.6758 39.4084 53.995 38.9998 55.1847C38.7549 55.9253 39.056 56.7375 39.7249 57.1387C41.4103 58.1519 43.2365 58.9087 45.1449 59.3831C45.9001 59.5654 46.6813 59.2065 47.0353 58.5148C47.5895 57.3836 48.7386 56.6675 49.9984 56.6675C51.2581 56.6675 52.4072 57.3836 52.9614 58.5148C53.2446 59.0771 53.8208 59.432 54.4499 59.432C54.585 59.4312 54.7201 59.4149 54.8519 59.3831C56.7603 58.9087 58.5864 58.1519 60.2718 57.1387C60.9408 56.7375 61.2419 55.9253 60.9969 55.1847C60.5884 53.9941 60.8936 52.675 61.7847 51.7847C62.675 50.8952 63.995 50.5908 65.1847 51.0002C65.9253 51.2451 66.7375 50.944 67.1387 50.2751C68.1519 48.5897 68.9087 46.7635 69.3831 44.8551C69.5711 44.0991 69.2106 43.3146 68.5148 42.9647C67.9395 42.6742 67.4593 42.2241 67.1313 41.6683H78.3333V46.6683C78.3333 47.5887 79.0796 48.335 80 48.335H90C90.9204 48.335 91.6667 47.5887 91.6667 46.6683V41.6667H96.6667V91.6667Z"/>
</mask>
<path d="M91.6667 15H68.3333V8.33333C68.3276 3.73291 64.6004 0.00569662 60 0H40C35.3996 0.00569662 31.6724 3.73291 31.6667 8.33333V15H8.33333C3.73291 15.0057 0.00569662 18.7329 0 23.3333V91.6667C0.00569662 96.2671 3.73291 99.9943 8.33333 100H91.6667C96.2671 99.9943 99.9943 96.2671 100 91.6667V23.3333C99.9943 18.7329 96.2671 15.0057 91.6667 15ZM35 8.33333C35 5.5721 37.2388 3.33333 40 3.33333H60C62.7612 3.33333 65 5.5721 65 8.33333V15H35V8.33333ZM8.33333 18.3333H91.6667C94.4279 18.3333 96.6667 20.5721 96.6667 23.3333V38.3333H91.6667V33.3333C91.6667 32.4129 90.9204 31.6667 90 31.6667H80C79.0796 31.6667 78.3333 32.4129 78.3333 33.3333V38.3333H67.1313C67.4593 37.7775 67.9395 37.3283 68.5148 37.0369C69.2106 36.687 69.5711 35.9025 69.3831 35.1465C68.9087 33.2381 68.1519 31.4119 67.1387 29.7266C66.7375 29.0576 65.9253 28.7565 65.1847 29.0015C63.995 29.41 62.6758 29.104 61.7863 28.2145C60.8968 27.3242 60.5916 26.005 61.0002 24.8153C61.2451 24.0747 60.944 23.2625 60.2751 22.8613C58.5897 21.8481 56.7635 21.0913 54.8551 20.6169C54.0991 20.4289 53.3146 20.7894 52.9647 21.4852C52.4105 22.6164 51.2614 23.3325 50.0016 23.3325C48.7419 23.3325 47.5928 22.6164 47.0386 21.4852C46.6854 20.7926 45.9033 20.4329 45.1481 20.6169C43.2397 21.0913 41.4136 21.8481 39.7282 22.8613C39.0592 23.2625 38.7581 24.0747 39.0031 24.8153C39.4116 26.0059 39.1064 27.325 38.2153 28.2153C37.325 29.1048 36.005 29.4092 34.8153 28.9998C34.0747 28.7549 33.2625 29.056 32.8613 29.7249C31.8481 31.4103 31.0913 33.2365 30.6169 35.1449C30.4289 35.9009 30.7894 36.6854 31.4852 37.0353C32.0605 37.3258 32.5407 37.7759 32.8687 38.3317H23.3333V33.3333C23.3333 32.4129 22.5871 31.6667 21.6667 31.6667H11.6667C10.7463 31.6667 10 32.4129 10 33.3333V38.3333H3.33333V23.3333C3.33333 20.5721 5.5721 18.3333 8.33333 18.3333ZM81.6667 41.6667H88.3333V45H81.6667V41.6667ZM81.6667 38.3333V35H88.3333V38.3333H81.6667ZM36.6667 40C36.6683 37.9834 35.7471 36.0775 34.1667 34.825C34.4295 34.0161 34.7559 33.2284 35.1416 32.4699C37.1436 32.6953 39.139 31.9963 40.564 30.5721C41.9881 29.1471 42.6864 27.1517 42.4618 25.1497C43.2202 24.764 44.0072 24.4377 44.8169 24.1748C46.0726 25.7495 47.9777 26.6667 49.9919 26.6667C52.006 26.6667 53.9103 25.7495 55.1668 24.1748C55.9757 24.4377 56.7635 24.764 57.522 25.1497C57.2965 27.1517 57.9948 29.1471 59.4198 30.5721C60.8439 31.9963 62.8394 32.6953 64.8413 32.4699C65.2336 33.2308 65.5656 34.021 65.8333 34.8332C64.2586 36.0897 63.3415 37.994 63.3415 40.0081C63.3415 42.0223 64.2586 43.9274 65.8333 45.1831C65.5705 45.9928 65.2441 46.7798 64.8584 47.5382C62.8564 47.3136 60.861 48.0119 59.436 49.436C58.0119 50.861 57.3136 52.8564 57.5382 54.8584C56.7798 55.2441 55.9928 55.5705 55.1831 55.8333C53.9274 54.2586 52.0223 53.3415 50.0081 53.3415C47.994 53.3415 46.0897 54.2586 44.8332 55.8333C44.0243 55.5705 43.2365 55.245 42.478 54.8584C42.7034 52.8564 42.0052 50.861 40.5802 49.436C39.1561 48.0119 37.1606 47.3136 35.1587 47.5382C34.7721 46.7798 34.4466 45.9928 34.1829 45.1831C35.7601 43.9258 36.6748 42.0166 36.6667 40ZM13.3333 41.6667H20V45H13.3333V41.6667ZM13.3333 38.3333V35H20V38.3333H13.3333ZM96.6667 91.6667C96.6667 94.4279 94.4279 96.6667 91.6667 96.6667H8.33333C5.5721 96.6667 3.33333 94.4279 3.33333 91.6667V41.6667H10V46.6667C10 47.5871 10.7463 48.3333 11.6667 48.3333H21.6667C22.5871 48.3333 23.3333 47.5871 23.3333 46.6667V41.6667H32.8687C32.5407 42.2225 32.0605 42.6717 31.4852 42.9631C30.7894 43.313 30.4289 44.0975 30.6169 44.8535C31.0913 46.7619 31.8481 48.5881 32.8613 50.2734C33.2625 50.9424 34.0747 51.2435 34.8153 50.9985C36.005 50.59 37.3242 50.896 38.2137 51.7855C39.1032 52.6758 39.4084 53.995 38.9998 55.1847C38.7549 55.9253 39.056 56.7375 39.7249 57.1387C41.4103 58.1519 43.2365 58.9087 45.1449 59.3831C45.9001 59.5654 46.6813 59.2065 47.0353 58.5148C47.5895 57.3836 48.7386 56.6675 49.9984 56.6675C51.2581 56.6675 52.4072 57.3836 52.9614 58.5148C53.2446 59.0771 53.8208 59.432 54.4499 59.432C54.585 59.4312 54.7201 59.4149 54.8519 59.3831C56.7603 58.9087 58.5864 58.1519 60.2718 57.1387C60.9408 56.7375 61.2419 55.9253 60.9969 55.1847C60.5884 53.9941 60.8936 52.675 61.7847 51.7847C62.675 50.8952 63.995 50.5908 65.1847 51.0002C65.9253 51.2451 66.7375 50.944 67.1387 50.2751C68.1519 48.5897 68.9087 46.7635 69.3831 44.8551C69.5711 44.0991 69.2106 43.3146 68.5148 42.9647C67.9395 42.6742 67.4593 42.2241 67.1313 41.6683H78.3333V46.6683C78.3333 47.5887 79.0796 48.335 80 48.335H90C90.9204 48.335 91.6667 47.5887 91.6667 46.6683V41.6667H96.6667V91.6667Z" fill="#E10050" stroke="#E10050" stroke-width="2" mask="url(#path-1-inside-1)"/>
<path d="M50 50C55.5225 50 60 45.5225 60 40C60 34.4775 55.5225 30 50 30C44.4775 30 40 34.4775 40 40C40.0057 45.5208 44.4792 49.9943 50 50ZM50 33.3333C53.6816 33.3333 56.6667 36.3184 56.6667 40C56.6667 43.6816 53.6816 46.6667 50 46.6667C46.3184 46.6667 43.3333 43.6816 43.3333 40C43.3333 36.3184 46.3184 33.3333 50 33.3333Z" fill="#E10050"/>
<path d="M81.6666 68.3334H37.4617C34.3741 63.715 28.9867 61.1808 23.4602 61.7481C17.9337 62.3153 13.1738 65.8903 11.088 71.0401C10.8797 71.5536 10.9407 72.1379 11.2508 72.5977C11.56 73.0575 12.0784 73.3334 12.6334 73.3334H23.3333V80H12.6334C12.0784 80 11.56 80.2759 11.2508 80.7357C10.9407 81.1955 10.8797 81.7798 11.088 82.2933C13.1738 87.4431 17.9337 91.0181 23.4602 91.5853C28.9867 92.1525 34.3741 89.6183 37.4617 85H81.6666C86.2686 85 89.9999 81.2687 89.9999 76.6667C89.9999 72.0646 86.2686 68.3334 81.6666 68.3334ZM81.6666 81.6667H36.5364C35.9415 81.6675 35.3922 81.9849 35.0951 82.5C33.0989 85.9571 29.4734 88.1527 25.4858 88.322C21.4973 88.4912 17.6993 86.6089 15.4182 83.3334H24.9999C25.9203 83.3334 26.6666 82.5871 26.6666 81.6667V71.6667C26.6666 70.7463 25.9203 70 24.9999 70H15.4182C17.6993 66.7245 21.4973 64.8421 25.4858 65.0114C29.4734 65.1807 33.0989 67.3763 35.0951 70.8334C35.3922 71.3485 35.9415 71.6659 36.5364 71.6667H81.6666C84.4278 71.6667 86.6666 73.9055 86.6666 76.6667C86.6666 79.4279 84.4278 81.6667 81.6666 81.6667Z" fill="#E10050"/>
</svg>
