<svg width="296" height="254" viewBox="0 0 296 254" fill="none" xmlns="http://www.w3.org/2000/svg">
<rect x="2" y="2" width="292" height="250" stroke="#FF8B00" stroke-width="4" stroke-linejoin="round"/>
<g clip-path="url(#clip0)">
<path d="M201.955 101.204C200.429 99.6793 197.956 99.6793 196.43 101.204C194.905 102.73 194.905 105.203 196.43 106.729C196.49 106.789 196.553 106.85 196.613 106.907C197.367 107.612 198.326 107.962 199.283 107.962C200.326 107.962 201.366 107.546 202.135 106.726C203.61 105.152 203.529 102.679 201.955 101.204Z" fill="#005087"/>
<path d="M194.019 94.7898C191.783 93.2714 189.487 91.9171 187.196 90.7636C174.232 84.2406 160.495 82.9312 147.469 86.9765C145.409 87.6167 144.257 89.8054 144.897 91.8655C145.537 93.9261 147.725 95.0769 149.786 94.4374C160.842 91.0034 172.564 92.1464 183.683 97.7417C185.644 98.7296 187.701 99.9444 189.631 101.253C190.303 101.71 191.066 101.929 191.821 101.929C193.072 101.929 194.301 101.329 195.056 100.216C196.268 98.4311 195.803 96.0015 194.019 94.7898Z" fill="#005087"/>
<path d="M229.556 145.34C227.955 141.98 225.303 136.417 225.255 134.577C229.823 123.318 228.157 110.858 220.548 99.4607C208.848 81.9323 184.867 69.2097 163.529 69.2097C152.249 69.2097 141.235 71.8995 131.325 77.0343C128.482 61.4574 114.822 49.6094 98.4365 49.6094C79.9967 49.6094 64.9952 64.6109 64.9952 83.0503C64.9952 94.7819 70.9741 105.449 80.9873 111.583C83.874 113.352 84.5272 114.881 84.7592 117.386V130.723V140.244C84.7592 144.605 88.3068 148.154 92.6674 148.154H93.9955C96.1412 165.254 104.417 180.779 117.554 192.204C117.677 192.59 118.039 194.399 116.486 199.796C115.277 204.001 113.422 208.671 111.786 212.792C110.69 215.55 109.744 217.931 109.172 219.732C108.795 220.919 109.007 222.215 109.743 223.221C110.479 224.227 111.65 224.821 112.895 224.821H168.655C170.487 224.821 173.003 224.001 174.587 220.093C175.277 218.392 175.727 216.346 176.204 214.179C176.668 212.068 177.756 207.124 178.838 206.527C178.839 206.527 178.902 206.516 179.055 206.54C179.255 206.572 179.458 206.587 179.661 206.587C185.501 206.587 190.272 206.852 194.482 207.085C206.829 207.77 214.282 208.184 220.82 198.767C224.145 193.977 223.768 186.991 223.369 179.596C223.164 175.784 222.952 171.85 223.328 168.579C224.01 167.907 225.717 166.735 226.787 166.001C230.47 163.471 233.947 161.084 233.947 157.453C233.948 154.693 232.279 151.052 229.556 145.34ZM85.0693 104.921C77.3916 100.218 72.8081 92.042 72.8081 83.0499C72.8081 68.9179 84.3053 57.4215 98.4369 57.4215C112.569 57.4215 124.066 68.9183 124.066 83.0499C124.066 92.042 119.482 100.218 111.804 104.922C108.156 107.158 105.987 109.766 104.958 113.29L98.4357 113.288L91.917 113.29C90.8869 109.767 88.7185 107.158 85.0693 104.921ZM104.302 121.104V126.816H92.5724V121.104H104.302ZM92.6681 140.341C92.6248 140.341 92.5724 140.287 92.5724 140.243V134.629H104.302V140.243C104.302 140.288 104.249 140.341 104.205 140.341H92.6681ZM222.366 159.56C219.004 161.869 216.1 163.863 215.672 166.88C215.083 171.019 215.33 175.593 215.568 180.016C215.865 185.503 216.2 191.722 214.403 194.311C210.516 199.91 207.154 199.964 194.915 199.284C190.877 199.06 185.866 198.782 179.925 198.774C177.643 198.505 173.783 198.933 171.207 203.941C169.898 206.484 169.195 209.68 168.574 212.499C168.263 213.916 167.825 215.906 167.415 217.008H118.519C118.69 216.576 118.866 216.131 119.048 215.675C124.675 201.506 128.239 191.114 122.814 186.424C111.316 176.479 103.983 163.013 101.88 148.154H104.206C108.567 148.154 112.115 144.605 112.115 140.243V130.723V117.393C112.347 114.884 112.998 113.354 115.887 111.583C125.133 105.918 130.935 96.3881 131.77 85.7245C141.357 80.0272 152.293 77.0218 163.529 77.0218C182.142 77.0218 203.861 88.5331 214.051 103.798C218.418 110.34 222.636 120.518 217.93 131.85C216.397 135.54 218.67 140.658 222.504 148.702C223.746 151.305 225.543 155.075 226.018 156.836C225.211 157.606 223.476 158.797 222.366 159.56Z" fill="#005087"/>
<path d="M117.598 77.5312C116.444 73.2558 113.577 69.8316 109.304 67.6273C107.387 66.6394 105.031 67.391 104.042 69.3089C103.053 71.2265 103.806 73.5824 105.723 74.571C108.056 75.7742 109.473 77.4085 110.055 79.5659C110.976 82.9816 109.583 86.6772 108.971 87.637C107.811 89.4565 108.346 91.8714 110.165 93.0311C110.816 93.4464 111.543 93.6436 112.261 93.6436C113.551 93.6436 114.814 93.0057 115.558 91.837C117.225 89.2241 119.143 83.2569 117.598 77.5312Z" fill="#005087"/>
<path d="M98.4369 24.8213C96.2795 24.8213 94.5306 26.5709 94.5306 28.7275V39.8634C94.5306 42.0201 96.2795 43.7697 98.4369 43.7697C100.594 43.7697 102.343 42.0201 102.343 39.8634V28.7275C102.343 26.5709 100.594 24.8213 98.4369 24.8213Z" fill="#005087"/>
<path d="M55.0949 79.2998H43.959C41.8015 79.2998 40.0527 81.0497 40.0527 83.2066C40.0527 85.3644 41.8015 87.1135 43.959 87.1135H55.0952C57.2523 87.1135 59.0011 85.3644 59.0011 83.2066C59.0011 81.0497 57.2519 79.2998 55.0949 79.2998Z" fill="#005087"/>
<path d="M80.1471 43.7134L74.5807 34.0736C73.5018 32.2052 71.1124 31.5658 69.2444 32.6439C67.3764 33.7228 66.7362 36.1115 67.8151 37.9798L73.3815 47.6196C74.1053 48.8731 75.4178 49.5735 76.7678 49.5735C77.4307 49.5735 78.1026 49.4048 78.7174 49.0493C80.5858 47.9704 81.226 45.5817 80.1471 43.7134Z" fill="#005087"/>
<path d="M62.8507 58.1515L53.2097 52.5851C51.3417 51.507 48.9523 52.1472 47.8738 54.0148C46.7949 55.8832 47.4351 58.2718 49.3035 59.3507L58.9444 64.9171C59.5593 65.2726 60.2312 65.4413 60.8937 65.4413C62.2437 65.4413 63.5565 64.7409 64.2804 63.4874C65.3593 61.6199 64.719 59.2304 62.8507 58.1515Z" fill="#005087"/>
<path d="M149.002 54.0143C147.922 52.146 145.534 51.5058 143.666 52.5847L134.025 58.151C132.156 59.23 131.516 61.6194 132.595 63.487C133.318 64.7405 134.631 65.4409 135.981 65.4409C136.644 65.4409 137.316 65.2721 137.931 64.9166L147.572 59.3503C149.44 58.2714 150.08 55.8827 149.002 54.0143Z" fill="#005087"/>
<path d="M64.2823 102.925C63.2042 101.057 60.8159 100.418 58.9472 101.495L49.3039 107.061C47.4355 108.139 46.7949 110.529 47.8734 112.397C48.5968 113.651 49.9101 114.351 51.2601 114.351C51.9226 114.351 52.5941 114.182 53.2093 113.828L62.8522 108.261C64.7206 107.183 65.3612 104.794 64.2823 102.925Z" fill="#005087"/>
<path d="M77.9139 118.753C76.0463 117.675 73.6569 118.315 72.578 120.183L67.8147 128.434C66.7362 130.302 67.3764 132.692 69.2448 133.77C69.86 134.125 70.5315 134.294 71.194 134.294C72.544 134.294 73.8573 133.594 74.5807 132.34L79.344 124.089C80.4229 122.221 79.7826 119.832 77.9139 118.753Z" fill="#005087"/>
<path d="M127.631 32.6442C125.762 31.5653 123.373 32.2056 122.295 34.0739L116.728 43.7137C115.649 45.5821 116.289 47.9711 118.157 49.0496C118.773 49.4051 119.445 49.5739 120.107 49.5739C121.457 49.5739 122.77 48.8735 123.494 47.62L129.06 37.9802C130.139 36.1118 129.499 33.7231 127.631 32.6442Z" fill="#005087"/>
</g>
<defs>
<clipPath id="clip0">
<rect width="200" height="200" fill="white" transform="translate(37 24.8213)"/>
</clipPath>
</defs>
</svg>
