<svg width="296" height="254" viewBox="0 0 296 254" fill="none" xmlns="http://www.w3.org/2000/svg">
<rect width="296" height="254" fill="#005087"/>
<g clip-path="url(#clip0)">
<path d="M60.3969 92.3296H63.5582V95.4909C63.5582 97.1304 64.8871 98.4593 66.5266 98.4593C68.166 98.4593 69.4949 97.1304 69.4949 95.4909V92.3296H72.6562C74.2957 92.3296 75.6246 91.0007 75.6246 89.3612C75.6246 87.7218 74.2957 86.3929 72.6562 86.3929H69.4949V83.2315C69.4949 81.5921 68.166 80.2632 66.5266 80.2632C64.8871 80.2632 63.5582 81.5921 63.5582 83.2315V86.3929H60.3969C58.7574 86.3929 57.4285 87.7218 57.4285 89.3612C57.4285 91.0007 58.7574 92.3296 60.3969 92.3296Z" fill="white"/>
<path d="M228.439 107.372C228.439 105.732 227.111 104.403 225.471 104.403C223.832 104.403 222.503 105.732 222.503 107.372V110.533H219.341C217.702 110.533 216.373 111.862 216.373 113.502C216.373 115.141 217.702 116.47 219.341 116.47H222.503V119.631C222.503 121.271 223.832 122.6 225.471 122.6C227.111 122.6 228.439 121.271 228.439 119.631V116.47H231.601C233.24 116.47 234.569 115.141 234.569 113.502C234.569 111.862 233.24 110.533 231.601 110.533H228.439V107.372Z" fill="white"/>
<path d="M180.493 33.066H183.655V36.2273C183.655 37.8668 184.984 39.1957 186.623 39.1957C188.262 39.1957 189.591 37.8668 189.591 36.2273V33.066H192.753C194.392 33.066 195.721 31.7371 195.721 30.0977C195.721 28.4582 194.392 27.1293 192.753 27.1293H189.591V23.9684C189.591 22.3289 188.262 21 186.623 21C184.984 21 183.655 22.3289 183.655 23.9684V27.1297H180.493C178.854 27.1297 177.525 28.4586 177.525 30.098C177.525 31.7375 178.854 33.066 180.493 33.066Z" fill="white"/>
<path d="M90.0535 74.8501L111.595 117.317C107.686 118.998 104.941 122.886 104.941 127.404C104.941 133.456 109.865 138.379 115.916 138.379H190.015C196.067 138.379 200.99 133.455 200.99 127.404C200.99 122.886 198.246 118.998 194.337 117.317L200.916 104.348C201.657 102.886 201.073 101.1 199.611 100.358C198.15 99.6169 196.363 100.2 195.621 101.663L188.131 116.429H117.801L96.0637 73.5759C97.1672 73.0423 98.1832 72.3552 99.0855 71.5446L121.269 91.8024C124.316 94.5853 129.159 93.8591 131.25 90.2907L145.577 65.8478C147.052 63.3302 146.659 60.1142 144.62 58.0271L140.057 53.3544C139.863 53.1563 139.845 52.8419 140.015 52.6231L152.85 36.0923C152.867 36.0712 152.895 36.0356 152.966 36.0356C153.037 36.0356 153.065 36.0712 153.082 36.0923L165.917 52.6231C166.087 52.8419 166.069 53.156 165.876 53.3544L161.312 58.0259C159.274 60.1138 158.88 63.3298 160.356 65.8466L174.682 90.2903C176.77 93.8509 181.61 94.5896 184.664 91.8017L206.847 71.5442C207.75 72.3548 208.766 73.0415 209.869 73.5755L202.104 88.8841C201.362 90.3458 201.946 92.1321 203.408 92.8739C204.868 93.6145 206.655 93.0341 207.398 91.5696L215.88 74.8501C222.84 74.6427 228.44 68.92 228.44 61.9103C228.44 54.7696 222.63 48.9603 215.49 48.9603C208.349 48.9603 202.54 54.7696 202.54 61.9103C202.54 63.5731 202.858 65.1622 203.432 66.6239L180.661 87.4181C180.402 87.6552 179.986 87.5985 179.805 87.2888L165.478 62.845C165.352 62.629 165.386 62.3528 165.56 62.1739L170.124 57.5017C172.378 55.1931 172.586 51.5302 170.607 48.9817L157.772 32.4509C156.611 30.956 154.86 30.0981 152.967 30.0981C151.074 30.0981 149.323 30.956 148.162 32.4509L135.327 48.9817C133.348 51.5306 133.556 55.1931 135.811 57.5017L140.375 62.1747C140.549 62.3532 140.583 62.6294 140.456 62.8454L126.13 87.2884C125.949 87.5981 125.534 87.656 125.273 87.4181L102.502 66.6235C103.076 65.1614 103.394 63.5728 103.394 61.9099C103.394 54.7692 97.5848 48.9599 90.4441 48.9599C83.3035 48.9599 77.4934 54.7696 77.4934 61.9103C77.4934 68.92 83.093 74.6427 90.0535 74.8501ZM215.489 54.8966C219.357 54.8966 222.503 58.0427 222.503 61.9099C222.503 65.7767 219.357 68.9228 215.489 68.9228C211.622 68.9228 208.476 65.7767 208.476 61.9099C208.476 58.0427 211.622 54.8966 215.489 54.8966ZM190.016 132.442H115.917C113.139 132.442 110.879 130.182 110.879 127.404C110.879 124.625 113.139 122.365 115.917 122.365H115.97C115.973 122.365 115.977 122.366 115.981 122.366C115.985 122.366 115.99 122.365 115.994 122.365H189.939C189.943 122.365 189.948 122.366 189.952 122.366C189.956 122.366 189.959 122.365 189.963 122.365H190.016C192.794 122.365 195.054 124.625 195.054 127.404C195.054 130.182 192.794 132.442 190.016 132.442ZM90.4434 54.8966C94.3105 54.8966 97.4566 58.0427 97.4566 61.9099C97.4566 65.7767 94.3105 68.9228 90.4434 68.9228C86.5762 68.9228 83.4301 65.7767 83.4301 61.9099C83.4301 58.0427 86.5762 54.8966 90.4434 54.8966Z" fill="white"/>
<path d="M236.333 164.933C232.636 159.5 226.37 158.172 219.564 161.374L171.378 182.591L171.407 178.673C171.407 178.567 171.403 178.462 171.392 178.357C170.56 169.991 164.164 163.325 155.839 162.146C155.814 162.142 155.789 162.139 155.763 162.136L123.88 158.466C117.145 157.507 113.854 155.279 107.538 151.583C98.473 146.28 88.1496 143.444 77.6527 143.357V141.699C77.6527 137.04 73.8621 133.25 69.2031 133.25H55.9742C51.3152 133.25 47.5246 137.04 47.5246 141.699V151.283C47.5246 152.923 48.8535 154.252 50.493 154.252C52.1324 154.252 53.4613 152.923 53.4613 151.283V141.699C53.4613 140.314 54.5887 139.186 55.9742 139.186H69.2035C70.5891 139.186 71.7164 140.314 71.7164 141.699V208.818C71.7164 210.203 70.5891 211.331 69.2035 211.331H55.9742C54.5887 211.331 53.4613 210.203 53.4613 208.818V165.612C53.4613 163.973 52.1324 162.644 50.493 162.644C48.8535 162.644 47.5246 163.973 47.5246 165.612V208.818C47.5246 213.477 51.3152 217.267 55.9742 217.267H69.2035C73.8625 217.267 77.6531 213.477 77.6531 208.818V208.121L106.395 218.819C110.283 220.266 114.358 221 118.507 221H161.507C168.097 221 174.523 219.135 180.089 215.608L233.929 181.492C234.064 181.406 234.192 181.31 234.312 181.204C238.964 177.072 239.834 170.077 236.333 164.933ZM230.53 176.618L176.912 210.593C172.297 213.517 166.97 215.063 161.507 215.063H118.507C115.067 215.063 111.689 214.455 108.466 213.255L77.6531 201.786V149.293C87.0977 149.381 96.3848 151.936 104.541 156.707C111.136 160.564 115.151 163.226 123.087 164.349C123.112 164.353 123.138 164.356 123.163 164.359L155.045 168.03C160.586 168.83 164.85 173.242 165.469 178.796L165.43 184.187H135.783C134.144 184.187 132.815 185.516 132.815 187.156C132.815 188.795 134.144 190.124 135.783 190.124H168.377C168.756 190.124 169.181 190.043 169.562 189.877C169.566 189.875 169.569 189.875 169.573 189.873L221.991 166.792C222.016 166.781 222.04 166.77 222.064 166.759C224.939 165.399 228.897 164.558 231.425 168.273C233.211 170.897 232.818 174.445 230.53 176.618Z" fill="white"/>
</g>
<defs>
<clipPath id="clip0">
<rect width="200" height="200" fill="white" transform="translate(43 21)"/>
</clipPath>
</defs>
</svg>
