<svg width="296" height="254" viewBox="0 0 296 254" fill="none" xmlns="http://www.w3.org/2000/svg">
<rect x="2" y="2" width="292" height="250" stroke="#FF8B00" stroke-width="4" stroke-linejoin="round"/>
<g clip-path="url(#clip0)">
<path d="M210.308 201.193L202.84 178.787C200.231 170.964 193.573 165.19 185.456 163.713L163.898 159.79V158.119C167.65 155.942 170.915 153.029 173.515 149.58H180.027C185.363 149.58 189.705 145.238 189.705 139.903V101.193C189.705 78.0707 170.892 59.2578 147.769 59.2578C124.647 59.2578 105.834 78.0707 105.834 101.193V123.774C105.834 129.993 110.256 135.197 116.121 136.409C117.931 145.68 123.724 153.526 131.64 158.119V159.79L110.079 163.713C101.966 165.19 95.3048 170.964 92.6984 178.787L91.4081 182.661L80.421 171.674C79.1629 170.416 79.1629 168.367 80.421 167.109L93.1629 154.371L69.2468 130.455L54.8468 144.855C50.5823 149.119 48.2339 154.79 48.2339 160.822C48.2339 166.855 50.5823 172.522 54.8468 176.787L98.4435 220.384C102.708 224.648 108.379 227 114.411 227C120.444 227 126.111 224.648 130.276 220.48L145.989 206.084L141.089 201.193H210.308ZM183.253 139.903C183.253 141.684 181.805 143.129 180.027 143.129H177.315C178.25 140.997 178.96 138.748 179.418 136.409C180.798 136.122 182.069 135.574 183.253 134.884V139.903ZM180.027 129.329V118.219C181.947 119.338 183.253 121.397 183.253 123.774C183.253 126.151 181.947 128.209 180.027 129.329ZM115.511 129.329C113.592 128.209 112.285 126.151 112.285 123.774C112.285 121.397 113.592 119.338 115.511 118.219V129.329ZM115.511 107.645V111.329C114.363 111.629 113.285 112.08 112.285 112.664V101.193C112.285 81.6288 128.205 65.7094 147.769 65.7094C167.334 65.7094 183.253 81.6288 183.253 101.193V112.664C182.253 112.08 181.176 111.626 180.027 111.329V107.645H176.802C167.263 107.645 158.295 103.929 151.547 97.1836L147.769 93.4062L143.992 97.1836C137.244 103.929 128.276 107.645 118.737 107.645H115.511ZM121.963 130.226V113.974C131.65 113.245 140.682 109.248 147.769 102.509C154.856 109.248 163.889 113.248 173.576 113.974V130.226C173.576 134.929 172.292 139.329 170.086 143.129H147.769V149.58H164.782C160.234 153.584 154.289 156.032 147.769 156.032C133.54 156.032 121.963 144.455 121.963 130.226ZM157.447 160.997V161.148L147.769 170.826L138.092 161.148V160.997C141.15 161.958 144.398 162.484 147.769 162.484C151.14 162.484 154.389 161.958 157.447 160.997ZM98.8145 180.826C100.676 175.238 105.434 171.113 111.231 170.055L133.779 165.958L147.769 179.948L161.756 165.961L184.302 170.058C190.098 171.116 194.856 175.238 196.718 180.829L201.36 194.742H134.637L122.073 182.177L108.111 194.806C106.895 196.029 104.769 196.029 103.55 194.806L96.5048 187.761L98.8145 180.826ZM69.2435 139.577L84.0371 154.371L80.5339 157.874L65.7403 143.08L69.2435 139.577ZM125.808 215.829C122.763 218.867 118.711 220.548 114.405 220.548C110.098 220.548 106.047 218.868 102.998 215.822L59.4016 172.229C56.3565 169.184 54.679 165.132 54.679 160.826C54.679 156.516 56.3565 152.464 59.4016 149.419L61.1758 147.645L75.9694 162.438L75.8532 162.555C72.0823 166.329 72.0823 172.467 75.8532 176.242L98.9855 199.374C100.815 201.2 103.244 202.209 105.831 202.209C108.418 202.209 110.847 201.203 112.556 199.487L112.798 199.271L127.66 214.132L125.808 215.829ZM132.421 209.764L117.592 194.935L121.853 191.084L136.656 205.887L132.421 209.764Z" fill="#005087"/>
<path d="M238.092 27H192.931C187.595 27 183.253 31.3419 183.253 36.6774V62.4839C183.253 67.8194 187.595 72.1613 192.931 72.1613H201.547L198.211 91.6161L229.34 72.1613H238.092C243.427 72.1613 247.769 67.8194 247.769 62.4839V36.6774C247.769 31.3419 243.427 27 238.092 27ZM241.318 62.4839C241.318 64.2613 239.869 65.7097 238.092 65.7097H227.489L207.002 78.5129L209.198 65.7097H192.931C191.153 65.7097 189.705 64.2613 189.705 62.4839V36.6774C189.705 34.9 191.153 33.4516 192.931 33.4516H238.092C239.869 33.4516 241.318 34.9 241.318 36.6774V62.4839Z" fill="#005087"/>
<path d="M234.866 39.9033H196.156V46.3549H234.866V39.9033Z" fill="#005087"/>
<path d="M221.963 52.8066H196.156V59.2583H221.963V52.8066Z" fill="#005087"/>
<path d="M234.866 52.8066H228.415V59.2583H234.866V52.8066Z" fill="#005087"/>
<path d="M147.769 36.6777C105.621 36.6777 69.3145 65.8326 59.8758 106.5L53.7629 96.31L48.2306 99.6293L59.5694 118.523L78.4629 107.184L75.1435 101.652L66.4016 106.897C75.5435 69.6939 108.998 43.1293 147.769 43.1293C156.244 43.1293 164.605 44.3874 172.621 46.8713L174.531 40.71C165.895 38.0326 156.892 36.6777 147.769 36.6777Z" fill="#005087"/>
<path d="M246.202 98.4256L227.308 87.0869L215.973 105.984L221.505 109.303L227.15 99.8934C230.121 108.587 231.64 117.68 231.64 127C231.64 146.184 224.995 164.939 212.934 179.806L217.944 183.871C230.937 167.858 238.092 147.658 238.092 127C238.092 117.132 236.502 107.497 233.402 98.2708L242.882 103.958L246.202 98.4256Z" fill="#005087"/>
</g>
<defs>
<clipPath id="clip0">
<rect width="200" height="200" fill="white" transform="translate(48 27)"/>
</clipPath>
</defs>
</svg>
