<svg width="152" height="152" viewBox="0 0 152 152" fill="none" xmlns="http://www.w3.org/2000/svg">
<path d="M117.797 109.203H151V151H109.203V125.609L76 90.4531L42.7969 125.609V151H1V109.203H34.2031L67.7969 76V49.4375C62.849 47.6146 58.8125 44.6198 55.6875 40.4531C52.5625 36.2865 51 31.4688 51 26C51 19.2292 53.474 13.3698 58.4219 8.42188C63.3698 3.47396 69.2292 1 76 1C82.7708 1 88.6302 3.47396 93.5781 8.42188C98.526 13.3698 101 19.2292 101 26C101 31.4688 99.4375 36.2865 96.3125 40.4531C93.1875 44.6198 89.151 47.6146 84.2031 49.4375V76L117.797 109.203Z" fill="#FF8B00"/>
<path d="M117.797 109.203L117.094 109.914C117.281 110.099 117.534 110.203 117.797 110.203V109.203ZM151 109.203H152C152 108.651 151.552 108.203 151 108.203V109.203ZM151 151V152C151.552 152 152 151.552 152 151H151ZM109.203 151H108.203C108.203 151.552 108.651 152 109.203 152V151ZM109.203 125.609H110.203C110.203 125.354 110.105 125.108 109.93 124.923L109.203 125.609ZM76 90.4531L76.727 89.7665C76.5381 89.5665 76.2751 89.4531 76 89.4531C75.7249 89.4531 75.4619 89.5665 75.273 89.7665L76 90.4531ZM42.7969 125.609L42.0699 124.923C41.8945 125.108 41.7969 125.354 41.7969 125.609H42.7969ZM42.7969 151V152C43.3492 152 43.7969 151.552 43.7969 151H42.7969ZM1 151H0C0 151.552 0.447716 152 1 152V151ZM1 109.203V108.203C0.447716 108.203 0 108.651 0 109.203H1ZM34.2031 109.203V110.203C34.4663 110.203 34.7189 110.099 34.9061 109.914L34.2031 109.203ZM67.7969 76L68.4998 76.7112C68.6899 76.5234 68.7969 76.2672 68.7969 76H67.7969ZM67.7969 49.4375H68.7969C68.7969 49.0185 68.5357 48.644 68.1426 48.4992L67.7969 49.4375ZM84.2031 49.4375L83.8574 48.4992C83.4643 48.644 83.2031 49.0185 83.2031 49.4375H84.2031ZM84.2031 76H83.2031C83.2031 76.2672 83.3101 76.5234 83.5002 76.7112L84.2031 76ZM117.797 110.203H151V108.203H117.797V110.203ZM150 109.203V151H152V109.203H150ZM151 150H109.203V152H151V150ZM110.203 151V125.609H108.203V151H110.203ZM109.93 124.923L76.727 89.7665L75.273 91.1397L108.476 126.296L109.93 124.923ZM75.273 89.7665L42.0699 124.923L43.5239 126.296L76.727 91.1397L75.273 89.7665ZM41.7969 125.609V151H43.7969V125.609H41.7969ZM42.7969 150H1V152H42.7969V150ZM2 151V109.203H0V151H2ZM1 110.203H34.2031V108.203H1V110.203ZM34.9061 109.914L68.4998 76.7112L67.0939 75.2888L33.5002 108.492L34.9061 109.914ZM68.7969 76V49.4375H66.7969V76H68.7969ZM68.1426 48.4992C63.3732 46.742 59.4953 43.8636 56.4875 39.8531L54.8875 41.0531C58.1297 45.376 62.3248 48.4872 67.4512 50.3758L68.1426 48.4992ZM56.4875 39.8531C53.4991 35.8686 52 31.2639 52 26H50C50 31.6736 51.6259 36.7043 54.8875 41.0531L56.4875 39.8531ZM52 26C52 19.5041 54.3616 13.8964 59.129 9.12898L57.7148 7.71477C52.5863 12.8432 50 18.9542 50 26H52ZM59.129 9.12898C63.8964 4.36159 69.5041 2 76 2V0C68.9542 0 62.8432 2.58633 57.7148 7.71477L59.129 9.12898ZM76 2C82.4959 2 88.1036 4.36159 92.871 9.12898L94.2852 7.71477C89.1568 2.58633 83.0458 0 76 0V2ZM92.871 9.12898C97.6384 13.8964 100 19.5041 100 26H102C102 18.9542 99.4137 12.8432 94.2852 7.71477L92.871 9.12898ZM100 26C100 31.2639 98.5009 35.8686 95.5125 39.8531L97.1125 41.0531C100.374 36.7043 102 31.6736 102 26H100ZM95.5125 39.8531C92.5047 43.8636 88.6268 46.742 83.8574 48.4992L84.5488 50.3758C89.6752 48.4872 93.8703 45.376 97.1125 41.0531L95.5125 39.8531ZM83.2031 49.4375V76H85.2031V49.4375H83.2031ZM83.5002 76.7112L117.094 109.914L118.5 108.492L84.9061 75.2888L83.5002 76.7112Z" fill="#FF8B00"/>
</svg>
