<svg width="260" height="260" viewBox="0 0 260 260" fill="none" xmlns="http://www.w3.org/2000/svg">
<circle cx="130" cy="130" r="126" stroke="#FF8B00" stroke-width="8"/>
<path d="M130 40.2031L205 73.7969V123.797C205 146.974 197.839 168.198 183.516 187.469C169.193 206.479 151.354 218.589 130 223.797C108.646 218.589 90.8073 206.479 76.4844 187.469C62.1615 168.198 55 146.974 55 123.797V73.7969L130 40.2031ZM130 132V206.609C145.365 201.661 158.385 192.417 169.062 178.875C179.74 165.073 186.12 149.448 188.203 132H130ZM130 132V58.5625L71.7969 84.3438V132H130Z" fill="#FF8B00"/>
</svg>
