<svg width="200" height="200" viewBox="0 0 200 200" fill="none" xmlns="http://www.w3.org/2000/svg">
<circle cx="100" cy="100" r="98" stroke="#005087" stroke-width="4"/>
<path d="M98.1111 33.7466L116.111 41.8091V53.8091C116.111 59.3716 114.392 64.4653 110.955 69.0903C107.517 73.6528 103.236 76.5591 98.1111 77.8091C92.9861 76.5591 88.7049 73.6528 85.2674 69.0903C81.8299 64.4653 80.1111 59.3716 80.1111 53.8091V41.8091L98.1111 33.7466ZM98.1111 55.7778V73.6841C101.799 72.4966 104.924 70.2778 107.486 67.0278C110.049 63.7153 111.58 59.9653 112.08 55.7778H98.1111ZM98.1111 55.7778V38.1528L84.1424 44.3403V55.7778H98.1111Z" fill="#F2994A"/>
<path d="M89.1423 168.364C89.7048 168.364 90.1736 168.552 90.5486 168.927C90.9236 169.302 91.1111 169.771 91.1111 170.333V177.364C91.1111 177.927 90.9236 178.396 90.5486 178.771C90.1736 179.146 89.7048 179.333 89.1423 179.333C79.7673 179.333 71.7361 176.021 65.0486 169.396C58.4236 162.708 55.1111 154.677 55.1111 145.302C55.1111 144.739 55.2986 144.271 55.6736 143.896C56.0486 143.521 56.5173 143.333 57.0798 143.333H64.1111C64.6736 143.333 65.1423 143.521 65.5173 143.896C65.8923 144.271 66.0798 144.739 66.0798 145.302V145.396C66.0798 147.958 66.4548 150.302 67.2048 152.427C67.4548 153.239 67.2986 153.927 66.7361 154.489L62.3298 158.896C63.5798 161.271 65.4861 163.771 68.0486 166.396C70.6736 168.958 73.1736 170.864 75.5486 172.114L79.9548 167.708C80.3923 167.271 80.8611 167.052 81.3611 167.052C81.5486 167.052 81.7673 167.114 82.0173 167.239C84.2673 167.989 86.6423 168.364 89.1423 168.364ZM89.1423 147.364V145.302H87.0798V147.364H89.1423ZM85.1111 143.333H91.1111V149.333H87.0798V153.364H85.1111V143.333ZM79.1111 147.364V153.364H73.1111V151.302H77.1423V149.333H73.1111V143.333H79.1111V145.302H75.0798V147.364H79.1111ZM83.1423 143.333V153.364H81.0798V143.333H83.1423Z" fill="#27AE60"/>
<path d="M44.5868 93.0796H52.5555V103.111H42.5243V97.0171L34.5555 88.5796L26.5868 97.0171V103.111H16.5555V93.0796H24.5243L32.5868 85.1108V78.7358C31.3993 78.2983 30.4305 77.5796 29.6805 76.5796C28.9305 75.5796 28.5555 74.4233 28.5555 73.1108C28.5555 71.4858 29.1493 70.0796 30.3368 68.8921C31.5243 67.7046 32.9305 67.1108 34.5555 67.1108C36.1805 67.1108 37.5868 67.7046 38.7743 68.8921C39.9618 70.0796 40.5555 71.4858 40.5555 73.1108C40.5555 74.4233 40.1805 75.5796 39.4305 76.5796C38.6805 77.5796 37.7118 78.2983 36.5243 78.7358V85.1108L44.5868 93.0796Z" fill="#9B51E0"/>
<path d="M126.994 55.8887H171.994V100.889L154.767 83.6621L107.658 130.771L77.7751 100.889L32.7751 145.889L22.2283 135.342L77.7751 79.7949L107.658 109.678L144.22 73.1152L126.994 55.8887Z" fill="#005087"/>
<g clip-path="url(#clip0)">
<path d="M173.142 136.852C171.79 136.129 170.158 136.208 168.882 137.058L162.187 141.522C161.973 139.395 160.172 137.729 157.99 137.729H150.958L150.041 137.041C148.214 135.671 145.951 134.917 143.667 134.917C141.743 134.917 139.853 135.44 138.202 136.43L137.833 136.652V135.385C137.833 134.609 137.204 133.979 136.427 133.979H128.74C127.963 133.979 127.333 134.609 127.333 135.385V152.26C127.333 153.037 127.963 153.667 128.74 153.667H136.427C137.204 153.667 137.833 153.037 137.833 152.26V151.792H159.982C161.419 151.792 162.803 151.359 163.985 150.541L173.546 143.922C174.665 143.147 175.333 141.872 175.333 140.511C175.333 138.978 174.494 137.576 173.142 136.852ZM135.021 150.854H130.146V136.792H135.021V150.854ZM171.945 141.61L162.384 148.229C161.675 148.72 160.845 148.979 159.982 148.979H137.833V139.931L139.649 138.842C140.863 138.114 142.252 137.729 143.667 137.729C145.346 137.729 147.01 138.284 148.353 139.291L149.646 140.26C149.889 140.443 150.185 140.542 150.49 140.542H157.99C158.765 140.542 159.396 141.172 159.396 141.948C159.396 142.723 158.765 143.354 157.99 143.354H147.677C146.9 143.354 146.271 143.984 146.271 144.76C146.271 145.537 146.9 146.167 147.677 146.167H158.729C159.75 146.167 160.739 145.867 161.589 145.301L170.443 139.398C171.044 138.998 171.603 139.218 171.815 139.332C172.027 139.446 172.521 139.788 172.521 140.511C172.521 140.949 172.306 141.36 171.945 141.61Z" fill="#EB5757"/>
<path d="M148.615 129.104C154.422 129.104 159.255 124.858 160.175 119.308C161.353 120.628 162.305 122.143 162.977 123.776H161.74C161.194 123.776 160.698 124.092 160.466 124.586C160.235 125.08 160.31 125.663 160.659 126.083L166.753 133.395C167.02 133.716 167.416 133.901 167.833 133.901C168.251 133.901 168.646 133.716 168.914 133.395L175.007 126.083C175.357 125.663 175.432 125.08 175.201 124.586C174.969 124.092 174.473 123.776 173.927 123.776H171.88C170.637 118.867 167.835 114.425 163.906 111.171C159.62 107.621 154.189 105.667 148.615 105.667C142.153 105.667 136.896 110.924 136.896 117.385C136.896 123.847 142.153 129.104 148.615 129.104ZM158.345 110.847C159.68 111.537 160.944 112.37 162.112 113.337C165.846 116.429 168.427 120.735 169.38 125.46C169.512 126.117 170.089 126.589 170.758 126.589H170.925L167.833 130.298L164.742 126.589H164.941C165.379 126.589 165.793 126.384 166.059 126.035C166.325 125.687 166.413 125.234 166.297 124.811C165.292 121.142 163.125 117.829 160.168 115.42C160.168 115.42 160.168 115.42 160.167 115.419C159.885 113.753 159.25 112.206 158.341 110.857C158.343 110.853 158.344 110.85 158.345 110.847ZM148.615 108.479C153.525 108.479 157.521 112.474 157.521 117.385C157.521 122.296 153.525 126.292 148.615 126.292C143.704 126.292 139.708 122.296 139.708 117.385C139.708 112.474 143.704 108.479 148.615 108.479Z" fill="#EB5757"/>
<path d="M148.615 118.792C149.131 118.792 149.552 119.212 149.552 119.729C149.552 120.246 149.131 120.667 148.615 120.667C148.171 120.667 147.784 120.352 147.696 119.918C147.542 119.157 146.799 118.665 146.038 118.82C145.277 118.974 144.785 119.717 144.94 120.478C145.195 121.734 146.072 122.741 147.208 123.203V123.479C147.208 124.256 147.838 124.885 148.614 124.885C149.391 124.885 150.021 124.256 150.021 123.479V123.204C151.393 122.647 152.364 121.3 152.364 119.729C152.364 117.661 150.682 115.979 148.614 115.979C148.098 115.979 147.677 115.558 147.677 115.042C147.677 114.525 148.098 114.104 148.614 114.104C149.058 114.104 149.445 114.419 149.533 114.853C149.687 115.614 150.43 116.105 151.191 115.951C151.952 115.796 152.444 115.054 152.289 114.293C152.034 113.037 151.157 112.03 150.021 111.567V111.292C150.021 110.515 149.391 109.885 148.615 109.885C147.838 109.885 147.208 110.515 147.208 111.292V111.566C145.836 112.124 144.865 113.471 144.865 115.042C144.865 117.109 146.547 118.792 148.615 118.792Z" fill="#EB5757"/>
</g>
<defs>
<clipPath id="clip0">
<rect width="48" height="48" fill="white" transform="translate(127.333 105.667)"/>
</clipPath>
</defs>
</svg>
