<svg width="260" height="260" viewBox="0 0 260 260" fill="none" xmlns="http://www.w3.org/2000/svg">
<circle cx="130" cy="130" r="126" stroke="#FF8B00" stroke-width="8"/>
<path d="M109.297 152.703C115.026 158.432 121.927 161.297 130 161.297C138.073 161.297 144.974 158.432 150.703 152.703C156.432 146.974 159.297 140.073 159.297 132C159.297 123.927 156.432 117.026 150.703 111.297C144.974 105.568 138.073 102.703 130 102.703C121.927 102.703 115.026 105.568 109.297 111.297C103.568 117.026 100.703 123.927 100.703 132C100.703 140.073 103.568 146.974 109.297 152.703ZM192.109 140.203L209.688 153.875C211.51 155.177 211.771 157 210.469 159.344L193.672 188.25C192.63 190.073 190.938 190.594 188.594 189.812L167.891 181.609C162.422 185.516 157.734 188.25 153.828 189.812L150.703 211.688C150.182 214.031 148.88 215.203 146.797 215.203H113.203C111.12 215.203 109.818 214.031 109.297 211.688L106.172 189.812C101.224 187.729 96.5365 184.995 92.1094 181.609L71.4062 189.812C69.0625 190.594 67.3698 190.073 66.3281 188.25L49.5312 159.344C48.2292 157 48.4896 155.177 50.3125 153.875L67.8906 140.203C67.6302 138.38 67.5 135.646 67.5 132C67.5 128.354 67.6302 125.62 67.8906 123.797L50.3125 110.125C48.4896 108.823 48.2292 107 49.5312 104.656L66.3281 75.75C67.3698 73.9271 69.0625 73.4062 71.4062 74.1875L92.1094 82.3906C97.5781 78.4844 102.266 75.75 106.172 74.1875L109.297 52.3125C109.818 49.9688 111.12 48.7969 113.203 48.7969H146.797C148.88 48.7969 150.182 49.9688 150.703 52.3125L153.828 74.1875C158.776 76.2708 163.464 79.0052 167.891 82.3906L188.594 74.1875C190.938 73.4062 192.63 73.9271 193.672 75.75L210.469 104.656C211.771 107 211.51 108.823 209.688 110.125L192.109 123.797C192.37 125.62 192.5 128.354 192.5 132C192.5 135.646 192.37 138.38 192.109 140.203Z" fill="#FF8B00"/>
</svg>
