<svg width="330" height="285" viewBox="0 0 330 285" fill="none" xmlns="http://www.w3.org/2000/svg">
<circle cx="166" cy="120" r="120" fill="white"/>
<path d="M177.375 66.625H169.375V56H158.625V66.625H150.625L164 80L177.375 66.625ZM183.625 58.75C187.042 59 189.958 60.4167 192.375 63C194.792 65.5 196 68.5 196 72C196 75.6667 194.667 78.8333 192 81.5C189.417 84.0833 186.292 85.375 182.625 85.375H148C143.583 85.375 139.792 83.8333 136.625 80.75C133.542 77.5833 132 73.7917 132 69.375C132 65.4583 133.375 61.9583 136.125 58.875C138.958 55.7083 142.333 53.9167 146.25 53.5C148 50.25 150.458 47.625 153.625 45.625C156.792 43.625 160.25 42.625 164 42.625C168.5 42.625 172.667 44.2083 176.5 47.375C180.417 50.5417 182.792 54.3333 183.625 58.75Z" fill="#005087"/>
<path d="M144.788 128.4L132.6 116.212C132.234 115.846 131.641 115.846 131.275 116.212L121.56 125.927C120.852 125.554 119.956 125.656 119.362 126.25L114.993 130.619C114.288 130.263 113.373 130.364 112.799 130.938L89.8634 153.874C87.9762 155.761 86.9375 158.269 86.9375 160.938C86.9375 163.607 87.9762 166.115 89.8634 168.002L92.9984 171.137C94.8856 173.024 97.3934 174.063 100.062 174.063C102.732 174.063 105.239 173.024 107.127 171.137L130.062 148.201C130.417 147.846 130.612 147.376 130.612 146.875C130.612 146.564 130.528 146.269 130.387 146.001L134.75 141.638C135.345 141.044 135.447 140.148 135.073 139.44L144.788 129.726C145.154 129.359 145.154 128.766 144.788 128.4ZM116.388 131.875L117.875 130.388L130.612 143.125L129.125 144.612L116.388 131.875ZM105.801 169.811C104.268 171.344 102.23 172.188 100.062 172.188C97.895 172.188 95.8569 171.344 94.3241 169.811L91.1891 166.676C89.6562 165.143 88.8125 163.105 88.8125 160.938C88.8125 158.77 89.6562 156.732 91.1891 155.199L114.125 132.263L128.737 146.875L105.801 169.811ZM131.937 141.8L119.201 129.063L120.687 127.576L133.424 140.313L131.937 141.8ZM133.812 138.05L122.951 127.188L131.937 118.201L142.799 129.063L133.812 138.05Z" fill="#005087"/>
<path d="M97.4441 160.744C96.3397 159.637 94.4103 159.637 93.306 160.744C92.7528 161.296 92.4491 162.031 92.4491 162.813C92.4491 163.595 92.7528 164.33 93.306 164.882L96.1185 167.694C96.6707 168.248 97.4057 168.551 98.1875 168.551C98.9694 168.551 99.7044 168.248 100.257 167.694C100.81 167.142 101.113 166.407 101.113 165.625C101.113 164.843 100.81 164.108 100.257 163.556L97.4441 160.744ZM98.931 166.369C98.5335 166.766 97.8416 166.766 97.4441 166.369L94.6316 163.556C94.4328 163.358 94.3241 163.094 94.3241 162.813C94.3241 162.532 94.4328 162.268 94.6316 162.069C94.8303 161.871 95.0938 161.762 95.375 161.762C95.6563 161.762 95.9197 161.871 96.1185 162.069L98.931 164.882C99.1297 165.081 99.2385 165.344 99.2385 165.625C99.2385 165.907 99.1297 166.17 98.931 166.369Z" fill="#005087"/>
<path d="M115.612 144.062L106.625 153.049V146.326L108.021 144.93C108.175 144.971 108.333 145 108.5 145C109.534 145 110.375 144.159 110.375 143.125C110.375 142.091 109.534 141.25 108.5 141.25C107.466 141.25 106.625 142.091 106.625 143.125C106.625 143.292 106.654 143.45 106.695 143.604L105.025 145.275C104.848 145.45 104.75 145.688 104.75 145.937V154.924L102.417 157.258C102.263 157.217 102.104 157.187 101.938 157.187C100.903 157.187 100.062 158.028 100.062 159.062C100.062 160.097 100.903 160.937 101.938 160.937C102.972 160.937 103.812 160.097 103.812 159.062C103.812 158.896 103.783 158.737 103.742 158.583L108.888 153.437H116.938C117.187 153.437 117.425 153.339 117.6 153.163L119.271 151.492C119.425 151.533 119.583 151.562 119.75 151.562C120.784 151.562 121.625 150.722 121.625 149.687C121.625 148.653 120.784 147.812 119.75 147.812C118.716 147.812 117.875 148.653 117.875 149.687C117.875 149.854 117.904 150.013 117.945 150.167L116.549 151.562H110.763L116.938 145.388L117.212 145.663C117.389 145.84 117.629 145.937 117.875 145.937C117.946 145.937 118.018 145.929 118.09 145.913C118.407 145.838 118.661 145.606 118.764 145.297L119.701 142.485C119.814 142.148 119.726 141.776 119.475 141.526C119.225 141.275 118.854 141.186 118.516 141.3L115.704 142.237C115.395 142.339 115.163 142.594 115.088 142.911C115.014 143.227 115.108 143.559 115.338 143.79L115.612 144.062Z" fill="#005087"/>
<path d="M129.394 125.591L131.269 123.716L132.595 125.042L130.72 126.917L129.394 125.591Z" fill="#005087"/>
<path d="M134.081 130.278L135.956 128.404L137.281 129.729L135.407 131.604L134.081 130.278Z" fill="#005087"/>
<path d="M201.875 164.125C206.125 168.292 211.167 170.375 217 170.375C222.833 170.375 227.833 168.292 232 164.125C236.25 159.875 238.375 154.833 238.375 149C238.375 143.167 236.25 138.167 232 134C227.833 129.75 222.833 127.625 217 127.625C211.167 127.625 206.125 129.75 201.875 134C197.708 138.167 195.625 143.167 195.625 149C195.625 154.833 197.708 159.875 201.875 164.125ZM198.125 130.25C203.375 125 209.667 122.375 217 122.375C224.333 122.375 230.583 125 235.75 130.25C241 135.417 243.625 141.667 243.625 149C243.625 156.333 241 162.625 235.75 167.875C230.583 173.042 224.333 175.625 217 175.625C209.667 175.625 203.375 173.042 198.125 167.875C192.958 162.625 190.375 156.333 190.375 149C190.375 141.667 192.958 135.417 198.125 130.25ZM211.625 161V137L227.625 149L211.625 161Z" fill="#005087"/>
</svg>
