<svg width="330" height="285" viewBox="0 0 330 285" fill="none" xmlns="http://www.w3.org/2000/svg">
<circle cx="186" cy="140" r="137.5" fill="white" stroke="#005087" stroke-width="5"/>
<path d="M189.611 148.151C189.241 148.071 188.861 148.056 188.487 148.113C184.73 147.675 181.897 144.497 181.89 140.717C181.89 138.905 180.421 137.436 178.61 137.436C176.798 137.436 175.329 138.905 175.329 140.717C175.339 147.03 179.561 152.559 185.648 154.23V157.511C185.648 159.322 187.117 160.791 188.929 160.791C190.74 160.791 192.209 159.322 192.209 157.511V154.429C199.235 152.958 204.01 146.415 203.272 139.275C202.531 132.136 196.517 126.71 189.339 126.709C185.225 126.709 181.89 123.374 181.89 119.26C181.89 115.147 185.225 111.812 189.339 111.812C193.452 111.812 196.787 115.147 196.787 119.26C196.787 121.072 198.256 122.541 200.068 122.541C201.88 122.541 203.348 121.072 203.348 119.26C203.339 112.632 198.695 106.915 192.209 105.547V102.561C192.209 100.749 190.74 99.2803 188.929 99.2803C187.117 99.2803 185.648 100.749 185.648 102.561V105.747C178.879 107.595 174.522 114.168 175.454 121.123C176.386 128.078 182.321 133.27 189.339 133.268C193.398 133.268 196.709 136.518 196.782 140.576C196.858 144.633 193.667 148.004 189.611 148.151Z" fill="#FF8B00"/>
<path d="M141.767 130.241C141.767 156.515 163.065 177.813 189.339 177.813C215.612 177.813 236.91 156.515 236.91 130.241C236.91 103.968 215.612 82.6699 189.339 82.6699C163.078 82.6988 141.798 103.981 141.767 130.241ZM189.339 89.2311C211.989 89.2311 230.349 107.591 230.349 130.241C230.349 152.892 211.989 171.252 189.339 171.252C166.689 171.252 148.328 152.892 148.328 130.241C148.354 107.603 166.7 89.2567 189.339 89.2311Z" fill="#FF8B00"/>
<path d="M253.083 185.901L227.384 198.043C223.836 191.443 217.03 187.243 209.54 187.032L185.816 186.38C182.06 186.272 178.374 185.321 175.034 183.596L172.62 182.345C160.26 175.902 145.528 175.918 133.181 182.386L133.332 176.918C133.381 175.106 131.954 173.597 130.143 173.547L104.129 172.831C102.317 172.782 100.81 174.209 100.76 176.021L99.1885 233.107C99.1389 234.919 100.566 236.428 102.378 236.477L128.392 237.193H128.481C130.259 237.193 131.714 235.779 131.762 234.003L131.837 231.271L138.595 227.653C141.248 226.226 144.349 225.886 147.247 226.706L187.604 238.033C187.674 238.054 187.745 238.07 187.817 238.086C190.734 238.696 193.707 239.002 196.686 239C202.998 239.004 209.235 237.644 214.971 235.01C215.112 234.946 215.249 234.871 215.378 234.786L273.892 196.937C275.35 195.994 275.821 194.08 274.967 192.568C270.623 184.86 260.988 181.923 253.083 185.901ZM105.838 230.009L107.228 179.481L126.683 180.016L125.292 230.546L105.838 230.009ZM212.016 229.151C204.889 232.367 196.93 233.255 189.27 231.689L149.022 220.392C144.492 219.112 139.643 219.642 135.499 221.87L132.046 223.72L132.97 190.125C143.914 182.846 157.949 182.098 169.604 188.171L172.018 189.422C176.237 191.6 180.891 192.802 185.637 192.939L209.362 193.591C216.025 193.783 221.685 198.528 223.037 205.057L187.698 204.082C185.887 204.032 184.379 205.461 184.328 207.271C184.278 209.083 185.707 210.592 187.517 210.641L226.516 211.715H226.607C228.384 211.713 229.837 210.298 229.885 208.524C229.925 207.098 229.819 205.671 229.567 204.268L255.926 191.813C255.951 191.802 255.977 191.789 256.003 191.776C259.741 189.885 264.262 190.517 267.337 193.364L212.016 229.151Z" fill="#FF8B00"/>
<path d="M192.619 73.4461V42.2806C192.619 40.4689 191.15 39 189.339 39C187.527 39 186.058 40.4689 186.058 42.2806V73.4461C186.058 75.2577 187.527 76.7266 189.339 76.7266C191.15 76.7266 192.619 75.2577 192.619 73.4461Z" fill="#FF8B00"/>
<path d="M217.224 73.4455V58.6829C217.224 56.8712 215.755 55.4023 213.943 55.4023C212.131 55.4023 210.662 56.8712 210.662 58.6829V73.4455C210.662 75.2572 212.131 76.7261 213.943 76.7261C215.755 76.7261 217.224 75.2572 217.224 73.4455Z" fill="#FF8B00"/>
<path d="M168.015 73.4455V58.6829C168.015 56.8712 166.546 55.4023 164.734 55.4023C162.923 55.4023 161.454 56.8712 161.454 58.6829V73.4455C161.454 75.2572 162.923 76.7261 164.734 76.7261C166.546 76.7261 168.015 75.2572 168.015 73.4455Z" fill="#FF8B00"/>
</svg>
