<svg width="25" height="25" viewBox="0 0 25 25" fill="none" xmlns="http://www.w3.org/2000/svg">
<path d="M17.7869 13.8667C18.6866 13.8667 19.4783 13.3747 19.8861 12.6307L24.1805 4.84275C24.6244 4.05075 24.0486 3.06675 23.1369 3.06675H5.3835L4.25592 0.666748H0.333374V3.06675H2.73248L7.05088 12.1747L5.43148 15.1027C4.55581 16.7107 5.70738 18.6667 7.5307 18.6667H21.9254V16.2667H7.5307L8.85021 13.8667H17.7869ZM6.52308 5.46675H21.0977L17.7869 11.4667H9.36602L6.52308 5.46675ZM7.5307 19.8667C6.21119 19.8667 5.14359 20.9467 5.14359 22.2667C5.14359 23.5867 6.21119 24.6667 7.5307 24.6667C8.85021 24.6667 9.92981 23.5867 9.92981 22.2667C9.92981 20.9467 8.85021 19.8667 7.5307 19.8667ZM19.5262 19.8667C18.2067 19.8667 17.1391 20.9467 17.1391 22.2667C17.1391 23.5867 18.2067 24.6667 19.5262 24.6667C20.8458 24.6667 21.9254 23.5867 21.9254 22.2667C21.9254 20.9467 20.8458 19.8667 19.5262 19.8667Z" fill="#005087"/>
</svg>
