<svg width="200" height="200" viewBox="0 0 200 200" fill="none" xmlns="http://www.w3.org/2000/svg">
<circle cx="100" cy="100" r="99.5" fill="#F2F2F2" stroke="#005087"/>
<path d="M38.6665 109.249C39.0374 109.775 39.6262 110.057 40.2247 110.057C40.6038 110.057 40.9867 109.944 41.32 109.709C42.1798 109.103 42.3854 107.915 41.7796 107.055C39.6524 104.037 38.3217 100.491 37.9317 96.8015C36.6695 84.8611 45.3427 74.1187 57.2656 72.8547C58.2939 72.7458 59.0473 71.8363 58.963 70.8057C58.8893 69.9083 58.8538 69.0554 58.8538 68.2071C58.8924 59.6158 61.9072 51.2236 67.3431 44.5767C72.7785 37.9304 80.3995 33.3163 88.802 31.5849C101.159 29.039 113.884 32.8451 122.841 41.7675C123.587 42.5094 124.792 42.5074 125.535 41.7621C126.277 41.0169 126.274 39.8111 125.529 39.0689C115.663 29.2418 101.646 25.0495 88.0329 27.8547C78.7768 29.7621 70.3819 34.8444 64.3945 42.1656C58.4077 49.4861 55.0873 58.7284 55.0449 68.1985C55.0449 68.5733 55.051 68.947 55.0632 69.3228C41.9919 71.6504 32.7256 83.7825 34.1439 97.2019C34.6022 101.536 36.166 105.702 38.6665 109.249V109.249Z" fill="#005087"/>
<path d="M162.096 145.583H154.478C153.427 145.583 152.574 146.435 152.574 147.487V149.387H113.478L109.208 145.121V120.093H122.059V129.204H120.155C119.103 129.204 118.25 130.057 118.25 131.109V138.717C118.25 139.768 119.103 140.621 120.155 140.621H127.772C128.823 140.621 129.676 139.768 129.676 138.717V136.817H157.498L155.363 138.952C154.619 139.696 154.619 140.902 155.363 141.645C155.734 142.017 156.222 142.203 156.709 142.203C157.196 142.203 157.684 142.017 158.056 141.645L163.442 136.259C164.185 135.515 164.185 134.31 163.442 133.566L158.062 128.186C157.319 127.442 156.113 127.443 155.369 128.186C154.625 128.93 154.625 130.136 155.369 130.879L157.498 133.008H129.676V131.109C129.676 130.057 128.823 129.204 127.772 129.204H125.868V120.093H133.141H133.227C141.416 120.093 149.12 116.911 154.928 111.126C160.755 105.322 163.977 97.5932 164 89.3629C164.043 73.5349 152.085 60.3095 136.518 58.6408C135.409 54.0395 133.548 49.7146 130.975 45.7676C130.4 44.8865 129.221 44.6377 128.34 45.2123C127.458 45.7866 127.21 46.9663 127.784 47.8474C130.354 51.7901 132.142 56.1494 133.099 60.8044C133.272 61.6479 133.99 62.27 134.849 62.322C149.099 63.1833 160.23 75.0564 160.192 89.3525C160.172 96.5666 157.348 103.341 152.24 108.428C147.151 113.496 140.402 116.284 133.222 116.284C133.197 116.284 133.171 116.284 133.146 116.284H125.868V106.903H135.816C136.868 106.903 137.721 106.051 137.721 104.999V82.5358C137.721 81.4841 136.868 80.6315 135.816 80.6315H81.8001C80.7484 80.6315 79.8958 81.4841 79.8958 82.5358C79.8958 83.5875 80.7484 84.4401 81.8001 84.4401H133.912V103.095H64.0879V84.4401H73.0185C74.0702 84.4401 74.9228 83.5875 74.9228 82.5358C74.9228 81.4841 74.0702 80.6315 73.0185 80.6315H62.1836C61.1319 80.6315 60.2793 81.4841 60.2793 82.5358V104.999C60.2793 106.051 61.1319 106.903 62.1836 106.903H72.1324V116.284H59.5528C55.1382 116.284 50.886 114.965 47.2549 112.467C46.3881 111.871 45.2026 112.091 44.6067 112.957C44.0108 113.824 44.2301 115.01 45.0967 115.606C49.3659 118.542 54.3638 120.093 59.5511 120.093H72.1326V129.204H70.2283C69.1766 129.204 68.324 130.057 68.324 131.108V133.008H40.5015L42.6305 130.879C43.3742 130.135 43.3742 128.929 42.6305 128.186C41.8868 127.442 40.681 127.442 39.9376 128.186L34.5578 133.566C33.8141 134.31 33.8141 135.515 34.5578 136.259L39.9439 141.645C40.3157 142.017 40.8032 142.203 41.2904 142.203C41.7776 142.203 42.2651 142.017 42.6369 141.645C43.3806 140.901 43.3806 139.696 42.6369 138.952L40.5015 136.817H68.3235V138.716C68.3235 139.768 69.1761 140.621 70.2278 140.621H77.845C78.8967 140.621 79.7493 139.768 79.7493 138.716V131.108C79.7493 130.057 78.8967 129.204 77.845 129.204H75.9407V120.093H88.7919V145.121L84.5217 149.387H45.4258V147.487C45.4258 146.435 44.5732 145.583 43.5215 145.583H35.9043C34.8526 145.583 34 146.435 34 147.487V155.095C34 156.147 34.8526 157 35.9043 157H43.5215C44.5732 157 45.4258 156.147 45.4258 155.095V153.196H85.3111C85.8408 153.196 86.3346 152.976 86.6873 152.607L92.0033 147.297C92.3776 146.943 92.6007 146.446 92.6007 145.911V120.093H105.399V145.911C105.399 146.442 105.619 146.936 105.989 147.289L111.305 152.6C111.658 152.973 112.155 153.196 112.689 153.196H152.574V155.096C152.574 156.147 153.427 157 154.478 157H162.096C163.147 157 164 156.147 164 155.096V147.487C164 146.435 163.147 145.583 162.096 145.583V145.583ZM125.868 136.812H122.059V133.013H125.868V136.812ZM109.208 106.903H122.059V116.284H109.208V106.903ZM75.941 136.812H72.1324V133.013H75.941V136.812ZM41.6172 153.191H37.8086V149.391H41.6172V153.191ZM88.7922 116.284H75.941V106.903H88.7922V116.284ZM105.399 116.284H92.6007V106.903H105.399V116.284ZM160.191 153.191H156.383V149.391H160.191V153.191Z" fill="#005087"/>
<path d="M69.8328 88.0588C68.7811 88.0588 67.9285 88.9115 67.9285 89.9632V97.5716C67.9285 98.6233 68.7811 99.4759 69.8328 99.4759H77.4499C78.5016 99.4759 79.3542 98.6233 79.3542 97.5716V89.9632C79.3542 88.9115 78.5016 88.0588 77.4499 88.0588H69.8328ZM75.5456 95.667H71.7371V91.8672H75.5456V95.667Z" fill="#005087"/>
<path d="M92.6843 99.4757C93.736 99.4757 94.5886 98.623 94.5886 97.5713V89.9629C94.5886 88.9112 93.736 88.0586 92.6843 88.0586H85.0671C84.0155 88.0586 83.1628 88.9112 83.1628 89.9629V97.5713C83.1628 98.623 84.0155 99.4757 85.0671 99.4757H92.6843ZM86.9714 91.8675H90.78V95.6673H86.9714V91.8675Z" fill="#005087"/>
<path d="M99.0032 72.6333C100.055 72.6333 100.908 71.7806 100.908 70.7289V49.1273L103.037 51.2563C103.78 52 104.986 52 105.729 51.2563C106.473 50.5126 106.473 49.3068 105.729 48.5634L100.35 43.1835C99.6063 42.4398 98.4005 42.4398 97.6568 43.1835L92.2707 48.5697C91.527 49.3134 91.527 50.5192 92.2707 51.2627C92.6424 51.6347 93.1299 51.8205 93.6171 51.8205C94.1044 51.8205 94.5919 51.6347 94.9636 51.2627L97.0989 49.1273V70.7289C97.0989 71.7806 97.9516 72.6333 99.0032 72.6333Z" fill="#005087"/>
<path d="M104.87 93.7683C104.87 92.7163 104.018 91.8637 102.966 91.8637C101.914 91.8637 101.062 92.7163 101.062 93.7683C101.062 94.8202 101.914 95.6729 102.966 95.6729C104.018 95.6729 104.87 94.8202 104.87 93.7683Z" fill="#005087"/>
<path d="M115.915 93.7683C115.915 92.7163 115.063 91.8637 114.011 91.8637C112.959 91.8637 112.107 92.7163 112.107 93.7683C112.107 94.8202 112.959 95.6729 114.011 95.6729C115.063 95.6729 115.915 94.8202 115.915 93.7683Z" fill="#005087"/>
<path d="M126.96 93.7683C126.96 92.7163 126.108 91.8637 125.056 91.8637C124.004 91.8637 123.152 92.7163 123.152 93.7683C123.152 94.8202 124.004 95.6729 125.056 95.6729C126.108 95.6729 126.96 94.8202 126.96 93.7683Z" fill="#005087"/>
</svg>
