<svg width="200" height="200" viewBox="0 0 200 200" fill="none" xmlns="http://www.w3.org/2000/svg">
<circle cx="100" cy="100" r="99.5" fill="#F2F2F2" stroke="#005087"/>
<path d="M126.93 53.8047H71.0703C70.0186 53.8047 69.166 54.6573 69.166 55.709V70.9434C69.166 71.995 70.0186 72.8477 71.0703 72.8477H126.93C127.981 72.8477 128.834 71.995 128.834 70.9434V55.709C128.834 54.6573 127.981 53.8047 126.93 53.8047ZM97.3496 57.6133V60.0254C97.3496 61.0755 96.4955 61.9297 95.4453 61.9297C94.3952 61.9297 93.541 61.0755 93.541 60.0254V57.6133H97.3496ZM84.6525 57.6133V60.0254C84.6525 61.0755 83.7984 61.9297 82.7482 61.9297C81.6981 61.9297 80.8439 61.0755 80.8439 60.0254V57.6133H84.6525ZM125.025 69.0391H72.9746V57.6133H77.0353V60.0254C77.0353 63.1756 79.598 65.7383 82.7482 65.7383C85.8984 65.7383 88.4611 63.1756 88.4611 60.0254V57.6133H89.7324V60.0254C89.7324 63.1756 92.2951 65.7383 95.4453 65.7383C98.5955 65.7383 101.158 63.1756 101.158 60.0254V57.6133H125.025V69.0391Z" fill="#005087"/>
<path d="M126.93 103.316C127.981 103.316 128.834 102.464 128.834 101.412V86.1777C128.834 85.1261 127.981 84.2734 126.93 84.2734H71.0703C70.0186 84.2734 69.166 85.1261 69.166 86.1777V101.412C69.166 102.464 70.0186 103.316 71.0703 103.316H126.93ZM97.3496 88.082V90.4941C97.3496 91.5443 96.4955 92.3984 95.4453 92.3984C94.3952 92.3984 93.541 91.5443 93.541 90.4941V88.082H97.3496ZM84.6525 88.082V90.4941C84.6525 91.5443 83.7984 92.3984 82.7482 92.3984C81.6981 92.3984 80.8439 91.5443 80.8439 90.4941V88.082H84.6525ZM72.9746 88.082H77.0353V90.4941C77.0353 93.6444 79.598 96.207 82.7482 96.207C85.8984 96.207 88.4611 93.6444 88.4611 90.4941V88.082H89.7324V90.4941C89.7324 93.6444 92.2951 96.207 95.4453 96.207C98.5955 96.207 101.158 93.6444 101.158 90.4941V88.082H125.025V99.5078H72.9746V88.082Z" fill="#005087"/>
<path d="M128.834 131.881V116.646C128.834 115.595 127.981 114.742 126.93 114.742H71.0703C70.0186 114.742 69.166 115.595 69.166 116.646V131.881C69.166 132.933 70.0186 133.785 71.0703 133.785H126.93C127.981 133.785 128.834 132.933 128.834 131.881ZM97.3496 118.551V120.963C97.3496 122.013 96.4955 122.867 95.4453 122.867C94.3952 122.867 93.541 122.013 93.541 120.963V118.551H97.3496ZM84.6525 118.551V120.963C84.6525 122.013 83.7984 122.867 82.7482 122.867C81.6981 122.867 80.8439 122.013 80.8439 120.963V118.551H84.6525ZM125.025 129.977H72.9746V118.551H77.0353V120.963C77.0353 124.113 79.598 126.676 82.7482 126.676C85.8984 126.676 88.4611 124.113 88.4611 120.963V118.551H89.7324V120.963C89.7324 124.113 92.2951 126.676 95.4453 126.676C98.5955 126.676 101.158 124.113 101.158 120.963V118.551H125.025V129.977Z" fill="#005087"/>
<path d="M162.096 152.574H131.632C130.58 152.574 129.728 153.427 129.728 154.479C129.728 155.53 130.58 156.383 131.632 156.383H160.191V160.191H112.33V156.383H123.342C124.394 156.383 125.246 155.53 125.246 154.479C125.246 153.427 124.394 152.574 123.342 152.574H104.713V141.402H128.961C133.091 141.402 136.451 138.042 136.451 133.912V114.615C136.451 112.397 135.481 110.402 133.944 109.029C135.481 107.657 136.451 105.661 136.451 103.443V84.1465C136.451 81.9284 135.481 79.9332 133.944 78.5605C135.481 77.1879 136.451 75.1927 136.451 72.9746V53.6777C136.451 52.7606 136.285 51.8816 135.982 51.0688C135.979 51.0612 135.978 51.0534 135.976 51.046L131.669 37.9038C130.889 35.5689 128.678 34 126.168 34H115.122C114.071 34 113.218 34.8526 113.218 35.9043C113.218 36.956 114.071 37.8086 115.122 37.8086H126.168C127.037 37.8086 127.796 38.3316 128.053 39.1L130.423 46.3317C129.95 46.2378 129.461 46.1875 128.961 46.1875H69.0391C68.5254 46.1875 68.0237 46.2396 67.5387 46.3386L69.944 39.1099C70.204 38.3316 70.9627 37.8086 71.832 37.8086H107.045C108.096 37.8086 108.949 36.956 108.949 35.9043C108.949 34.8526 108.096 34 107.045 34H71.832C69.3217 34 67.1112 35.5689 66.3309 37.9056L61.9612 51.0376C61.9096 51.1925 61.5488 52.9244 61.5488 53.6777V72.9746C61.5488 75.1927 62.5188 77.1879 64.0559 78.5605C62.5188 79.9332 61.5488 81.9284 61.5488 84.1465V90.748C61.5488 91.7997 62.4014 92.6523 63.4531 92.6523C64.5048 92.6523 65.3574 91.7997 65.3574 90.748V84.1465C65.3574 82.1165 67.0091 80.4648 69.0391 80.4648H128.961C130.991 80.4648 132.643 82.1165 132.643 84.1465V103.443C132.643 105.473 130.991 107.125 128.961 107.125H69.0391C67.0091 107.125 65.3574 105.473 65.3574 103.443V99C65.3574 97.9483 64.5048 97.0957 63.4531 97.0957C62.4014 97.0957 61.5488 97.9483 61.5488 99V103.443C61.5488 105.661 62.5188 107.657 64.0559 109.029C62.5188 110.402 61.5488 112.397 61.5488 114.615V133.912C61.5488 138.042 64.9088 141.402 69.0391 141.402H93.2871V152.574H35.9043C34.8526 152.574 34 153.427 34 154.479V162.096C34 163.147 34.8526 164 35.9043 164H162.096C163.147 164 164 163.147 164 162.096V154.479C164 153.427 163.147 152.574 162.096 152.574ZM69.0391 76.6562C67.0091 76.6562 65.3574 75.0046 65.3574 72.9746V53.6777C65.3574 51.6478 67.0091 49.9961 69.0391 49.9961H128.961C130.991 49.9961 132.643 51.6478 132.643 53.6777V72.9746C132.643 75.0046 130.991 76.6562 128.961 76.6562H69.0391ZM65.3574 133.912V114.615C65.3574 112.585 67.0091 110.934 69.0391 110.934H128.961C130.991 110.934 132.643 112.585 132.643 114.615V133.912C132.643 135.942 130.991 137.594 128.961 137.594H69.0391C67.0091 137.594 65.3574 135.942 65.3574 133.912ZM100.904 141.402V144.957H97.0957V141.402H100.904ZM37.8086 156.383H85.6699V160.191H37.8086V156.383ZM89.4785 160.191V156.383H95.1914C96.2431 156.383 97.0957 155.53 97.0957 154.479V148.766H100.904V154.479C100.904 155.53 101.757 156.383 102.809 156.383H108.521V160.191H89.4785Z" fill="#005087"/>
</svg>
