<svg width="200" height="200" viewBox="0 0 200 200" fill="none" xmlns="http://www.w3.org/2000/svg">
<circle cx="100" cy="100" r="99.5" fill="#F2F2F2" stroke="#005087"/>
<path d="M156.807 67.8732C152.015 63.0196 145.771 60.0984 139.044 59.5238C137.497 52.9743 133.878 47.0319 128.714 42.6215C122.959 37.7066 115.617 35 108.039 35C97.9038 35 88.4983 39.7574 82.4914 47.824C79.8401 46.9597 77.0771 46.5225 74.2521 46.5225C71.4198 46.5225 68.6309 46.9656 65.9631 47.8395C64.6304 48.276 63.9039 49.7101 64.3404 51.0426C64.7769 52.3751 66.2114 53.1022 67.5437 52.6653C69.7006 51.9592 71.9576 51.6009 74.2521 51.6009C77.101 51.6009 79.8696 52.1491 82.4812 53.23C83.6109 53.6984 84.9134 53.2939 85.5804 52.2694C90.5496 44.6355 98.9453 40.0781 108.039 40.0781C121.165 40.0781 132.27 49.4579 134.443 62.3818C134.646 63.5914 135.685 64.4826 136.912 64.4996C149.6 64.6748 159.922 75.1431 159.922 87.8346C159.922 100.704 149.452 111.174 136.583 111.174H133.77V96.4991C133.77 93.5724 131.89 89.4111 122.938 86.2088C116.772 84.0029 108.626 82.7882 100 82.7882C91.374 82.7882 83.2277 84.0029 77.0616 86.2088C68.1096 89.4111 66.2305 93.5724 66.2305 96.4991V111.174H56.3677C47.3855 111.174 40.0781 103.866 40.0781 94.8845C40.0781 87.8295 44.5804 81.6106 51.2815 79.4095C52.4675 79.0197 53.1944 77.8256 52.9956 76.5929C52.8113 75.4508 52.7181 74.2874 52.7181 73.1347C52.7181 70.994 53.0306 68.8815 53.6471 66.8556C54.0554 65.5142 53.2988 64.0956 51.9571 63.6873C50.616 63.2783 49.1972 64.0354 48.7889 65.3771C48.0264 67.8826 47.64 70.4925 47.64 73.1347C47.64 73.8677 47.6707 74.6038 47.7311 75.3383C40.0367 78.7267 35 86.3378 35 94.8845C35 106.667 44.5855 116.252 56.3677 116.252H66.2305V151.289C66.2305 154.216 68.1096 158.377 77.0616 161.579C83.2275 163.785 91.374 165 100 165C108.626 165 116.773 163.785 122.938 161.579C131.89 158.377 133.77 154.216 133.77 151.289V116.252H136.583C152.252 116.252 165 103.504 165 87.8346C165 80.3139 162.09 73.2248 156.807 67.8732V67.8732ZM128.691 114.763C128.691 116.072 126.737 118.301 121.228 120.272C115.597 122.286 108.058 123.395 100 123.395C91.942 123.395 84.403 122.286 78.7719 120.272C73.2632 118.301 71.3086 116.072 71.3086 114.763V104.061C72.7894 105.011 74.6711 105.935 77.0616 106.79C83.2277 108.996 91.374 110.21 100 110.21C108.626 110.21 116.773 108.996 122.938 106.79C125.329 105.935 127.211 105.011 128.691 104.061V114.763ZM71.3086 122.324C72.7894 123.274 74.6711 124.198 77.0616 125.053C83.2277 127.259 91.374 128.474 100 128.474C108.626 128.474 116.773 127.259 122.938 125.053C125.329 124.198 127.211 123.274 128.691 122.324V133.026C128.691 134.335 126.737 136.564 121.228 138.535C115.597 140.549 108.058 141.658 100 141.658C91.942 141.658 84.403 140.549 78.7719 138.535C73.2632 136.564 71.3086 134.335 71.3086 133.026V122.324ZM78.7719 90.9904C84.4033 88.9756 91.942 87.8663 100 87.8663C108.058 87.8663 115.597 88.9756 121.228 90.9904C126.737 92.9607 128.691 95.1895 128.691 96.4991C128.691 97.8088 126.737 100.038 121.228 102.008C115.597 104.023 108.058 105.132 100 105.132C91.942 105.132 84.403 104.023 78.7719 102.008C73.2632 100.037 71.3086 97.8088 71.3086 96.4991C71.3086 95.1895 73.2632 92.9607 78.7719 90.9904V90.9904ZM121.228 156.798C115.597 158.813 108.058 159.922 100 159.922C91.942 159.922 84.403 158.813 78.7719 156.798C73.2632 154.827 71.3086 152.599 71.3086 151.289V140.587C72.7894 141.537 74.6711 142.461 77.0616 143.316C83.2277 145.522 91.374 146.737 100 146.737C108.626 146.737 116.773 145.522 122.938 143.316C125.329 142.461 127.211 141.537 128.691 140.587V151.289C128.691 152.599 126.737 154.827 121.228 156.798Z" fill="#005087"/>
<path d="M57.0542 58.8314C57.722 58.8314 58.3771 58.5599 58.8493 58.0874C59.3216 57.6126 59.5933 56.9603 59.5933 56.2898C59.5933 55.622 59.3216 54.9694 58.8493 54.4949C58.3771 54.0226 57.722 53.7532 57.0542 53.7532C56.3864 53.7532 55.7313 54.0226 55.2591 54.4949C54.7868 54.9694 54.5151 55.622 54.5151 56.2898C54.5151 56.9603 54.7868 57.6126 55.2591 58.0874C55.7313 58.5599 56.3864 58.8314 57.0542 58.8314V58.8314Z" fill="#005087"/>
</svg>
