<svg width="200" height="200" viewBox="0 0 200 200" fill="none" xmlns="http://www.w3.org/2000/svg">
<circle cx="100" cy="100" r="99.5" fill="#F2F2F2" stroke="#005087"/>
<path d="M34 72.5938H41.8711V80.2109H34V118.297H41.8711V125.914H34V164H164V125.914H156.129V118.297H164V80.2109H156.129V72.5938H164V34H34V72.5938ZM156.383 156.383H41.6172V133.531H156.383V156.383ZM148.512 125.914H49.4883V118.297H148.512V125.914ZM156.383 110.68H41.6172V87.8281H156.383V110.68ZM148.512 80.2109H49.4883V72.5938H148.512V80.2109ZM41.6172 41.6172H156.383V64.9766H41.6172V41.6172Z" fill="#005087"/>
<path d="M49.4883 49.7422H57.1055V57.3594H49.4883V49.7422Z" fill="#005087"/>
<path d="M64.7227 49.7422H72.3398V57.3594H64.7227V49.7422Z" fill="#005087"/>
<path d="M79.957 49.7422H87.5742V57.3594H79.957V49.7422Z" fill="#005087"/>
<path d="M110.426 49.7422H148.512V57.3594H110.426V49.7422Z" fill="#005087"/>
<path d="M49.4883 95.4453H57.1055V103.062H49.4883V95.4453Z" fill="#005087"/>
<path d="M64.7227 95.4453H72.3398V103.062H64.7227V95.4453Z" fill="#005087"/>
<path d="M79.957 95.4453H87.5742V103.062H79.957V95.4453Z" fill="#005087"/>
<path d="M110.426 95.4453H148.512V103.062H110.426V95.4453Z" fill="#005087"/>
<path d="M49.4883 141.148H57.1055V148.766H49.4883V141.148Z" fill="#005087"/>
<path d="M64.7227 141.148H72.3398V148.766H64.7227V141.148Z" fill="#005087"/>
<path d="M79.957 141.148H87.5742V148.766H79.957V141.148Z" fill="#005087"/>
<path d="M110.426 141.148H148.512V148.766H110.426V141.148Z" fill="#005087"/>
</svg>
