<svg width="100" height="100" viewBox="0 0 100 100" fill="none" xmlns="http://www.w3.org/2000/svg">
<path d="M72.7325 30.8327H70.005V7.78198C70.005 3.49045 66.5092 0 62.2139 0H37.5862C33.2932 0 29.8004 3.49045 29.8004 7.78198V30.8327H27.0676C24.527 30.8327 22.4609 32.9002 22.4609 35.4416V51.2093C22.4609 52.0187 23.1171 52.6741 23.9265 52.6741C24.7353 52.6741 25.3914 52.0187 25.3914 51.2093V35.4416C25.3914 34.5154 26.1436 33.7616 27.0676 33.7616H72.7325C73.6443 33.7616 74.4141 34.5306 74.4141 35.4416V79.7615C74.4141 89.3059 66.6451 97.0711 57.0953 97.0711H42.7101C33.1604 97.0711 25.3914 89.3059 25.3914 79.7615V57.975C25.3914 57.1663 24.7353 56.5109 23.9265 56.5109C23.1171 56.5109 22.4609 57.1663 22.4609 57.975V79.7615C22.4609 90.921 31.5445 100 42.7101 100H57.0953C68.2602 100 77.3445 90.921 77.3445 79.7615V35.4416C77.3445 32.9002 75.2754 30.8327 72.7325 30.8327ZM32.7309 30.8327V7.78198C32.7309 5.10559 34.9091 2.92892 37.5862 2.92892H62.2139C64.8941 2.92892 67.0746 5.10559 67.0746 7.78198V30.8327H32.7309Z" fill="#2D9CDB"/>
<path d="M63.9231 57.5988C63.9231 55.2131 61.9807 53.2722 59.5942 53.2722C57.2069 53.2722 55.2653 55.2131 55.2653 57.5988C55.2653 59.4734 56.4608 61.0725 58.1286 61.6752V63.5063C58.1286 63.8755 58.0393 63.961 57.5823 64.2318L51.449 67.9153L51.4696 48.0957H52.4653C52.9436 48.0957 54.2139 48.0957 54.8212 47.0451C55.4499 45.9587 54.7755 44.786 54.3703 44.0818L52.1166 40.1802C51.8778 39.7667 51.2438 38.6665 50.0284 38.6665C50.0277 38.6665 50.0277 38.6665 50.0277 38.6665C48.7696 38.6665 48.0936 39.8353 47.6893 40.5349L45.4363 44.4359C45.196 44.8509 44.5574 45.9533 45.1655 47.0062C45.7941 48.0949 47.1476 48.0949 47.9563 48.0949H48.5407L48.5392 67.9542L42.9224 64.5652C41.8635 63.9297 41.8215 63.5833 41.8215 62.7922V58.9966H42.306C43.664 58.9966 44.7687 57.8949 44.7687 56.5414V52.6321C44.7687 51.2787 43.664 50.177 42.306 50.177H38.4012C37.0432 50.177 35.9385 51.2787 35.9385 52.6321V56.5414C35.9385 57.8956 37.0432 58.9966 38.4012 58.9966H38.8911V62.7922C38.8911 64.759 39.6219 66.0003 41.4126 67.0753L48.5392 71.3119V77.3002C45.6331 77.9548 43.4557 80.5542 43.4557 83.6532C43.4557 87.2451 46.3793 90.1672 49.9727 90.1672C53.5662 90.1672 56.4898 87.2451 56.4898 83.6532C56.4898 80.5656 54.3284 77.9747 51.4391 77.3079L51.4452 71.334L59.0006 66.7968L59.0784 66.7503C59.6201 66.4291 61.059 65.5746 61.059 63.5063V61.6752C62.7268 61.0725 63.9231 59.4734 63.9231 57.5988ZM50.0048 42.3835L51.6131 45.1667H48.398L50.0048 42.3835ZM38.8689 53.1059H41.8383V56.0676H38.8689V53.1059ZM53.5586 83.6532C53.5586 85.63 51.9495 87.2383 49.972 87.2383C47.9944 87.2383 46.3854 85.63 46.3854 83.6532C46.3854 81.6765 47.9944 80.0682 49.972 80.0682C51.9495 80.0682 53.5586 81.6765 53.5586 83.6532ZM59.5934 56.2004C60.3647 56.2004 60.9926 56.8283 60.9926 57.5988C60.9926 58.3725 60.3647 59.0019 59.5934 59.0019C58.8228 59.0019 58.1957 58.3725 58.1957 57.5988C58.1957 56.8283 58.8228 56.2004 59.5934 56.2004Z" fill="#2D9CDB"/>
<path d="M45.0092 22.6725H41.4027C40.0882 22.6725 39.0186 21.6029 39.0186 20.2891V16.685C39.0186 15.3704 40.0882 14.3008 41.4027 14.3008H45.0092C46.3245 14.3008 47.3941 15.3704 47.3941 16.685V20.2891C47.3941 21.6029 46.3237 22.6725 45.0092 22.6725ZM41.9482 19.7436H44.4637V17.2297H41.9482V19.7436ZM45.0092 17.2297H45.0107H45.0092Z" fill="#2D9CDB"/>
<path d="M59.0677 22.6725H55.456C54.1445 22.6725 53.0771 21.6029 53.0771 20.2891V16.685C53.0771 15.3704 54.1445 14.3008 55.456 14.3008H59.0677C60.3792 14.3008 61.4466 15.3704 61.4466 16.685V20.2891C61.4466 21.6029 60.3792 22.6725 59.0677 22.6725ZM56.0076 19.7436H58.5161V17.2297H56.0076V19.7436ZM59.0677 17.2297H59.0693H59.0677Z" fill="#2D9CDB"/>
</svg>
