<svg width="100" height="100" viewBox="0 0 100 100" fill="none" xmlns="http://www.w3.org/2000/svg">
<path d="M29.0329 61.1993C29.0329 60.3561 28.3771 59.6724 27.5681 59.6724H15.8978C9.04657 59.6724 3.36101 54.1799 2.95397 47.1679C2.94655 47.0395 2.94069 46.9106 2.93679 46.7815C2.73854 40.407 6.70222 34.74 12.5757 33.0003C13.3649 32.7666 14.0395 32.2021 14.4267 31.4516C14.8136 30.7016 14.8911 29.843 14.6448 29.0335C14.0302 27.0133 13.7306 24.9041 13.7542 22.7641C13.8712 12.2449 22.4939 3.21984 32.5833 3.05636C40.9228 2.92993 48.3279 8.35526 51.009 16.578C51.2799 17.4088 51.8769 18.0882 52.6472 18.4414C53.4224 18.7969 54.3135 18.7963 55.0914 18.4398C57.0424 17.546 59.1184 17.0928 61.2617 17.0928C63.3369 17.0928 65.3492 17.5159 67.243 18.3504C67.9885 18.6786 68.8475 18.3152 69.1627 17.5385C69.4778 16.7618 69.1289 15.8658 68.3838 15.5374C66.1272 14.543 63.7309 14.039 61.2617 14.039C58.71 14.039 56.2373 14.5789 53.9125 15.6441C53.9012 15.6492 53.8676 15.6646 53.8269 15.6461C53.7945 15.6312 53.7865 15.607 53.7828 15.5952C50.691 6.11309 42.1523 -0.153891 32.5378 0.00287517C26.8816 0.0944918 21.4864 2.53149 17.3464 6.86496C13.2065 11.1982 10.8905 16.832 10.8249 22.7287C10.7975 25.1942 11.1433 27.6261 11.8522 29.9566C11.8552 29.966 11.8595 29.98 11.8466 30.0051C11.8364 30.0246 11.8159 30.0505 11.7749 30.0625C4.60535 32.1862 -0.232947 39.1016 0.00865536 46.8803C0.0135382 47.0382 0.0207648 47.1958 0.0297492 47.3524C0.530141 55.9731 7.50027 62.7259 15.8979 62.7259H27.5683C28.3771 62.7263 29.0329 62.0426 29.0329 61.1993Z" fill="#2D9CDB"/>
<path d="M99.9922 45.7863C99.8643 41.4681 98.1584 37.4002 95.1889 34.3314C92.2197 31.2633 88.3025 29.5197 84.1587 29.4222C82.5488 29.3835 80.9543 29.5916 79.4185 30.0387C79.4068 30.0421 79.3923 30.0462 79.3675 30.0297C79.3474 30.0167 79.322 29.9902 79.314 29.9401C78.6519 25.8324 76.6683 21.9998 73.7283 19.1483C73.1363 18.574 72.2093 18.6086 71.6579 19.2261C71.1068 19.8434 71.1402 20.8096 71.7325 21.3842C74.2027 23.78 75.8691 26.9984 76.4246 30.4465C76.5683 31.3378 77.0683 32.1255 77.796 32.6076C78.5119 33.0818 79.3904 33.2176 80.206 32.9802C81.4636 32.6141 82.7701 32.4449 84.0921 32.4755C87.4832 32.5553 90.6916 33.9847 93.126 36.5003C95.5603 39.0161 96.959 42.3475 97.0635 45.8808C97.0754 46.2839 97.0709 46.6915 97.0498 47.0922C96.6787 54.1467 90.9906 59.6726 84.1005 59.6726H58.8448V46.5301C58.8448 44.488 57.2509 42.8265 55.2919 42.8265H40.3067C38.3477 42.8265 36.7538 44.488 36.7538 46.5301V59.6726H33.4278C32.6188 59.6726 31.9629 60.3562 31.9629 61.1995C31.9629 62.0428 32.6188 62.7265 33.4278 62.7265H36.7538V72.8279H30.6004C29.742 72.8279 28.977 73.3286 28.6039 74.1346C28.2309 74.9404 28.3309 75.8763 28.8651 76.5769L46.0639 99.1274C46.4868 99.682 47.1194 100 47.7991 100C48.4788 100 49.1114 99.682 49.5343 99.1274L66.7331 76.5769C67.2673 75.8765 67.3675 74.9406 66.9945 74.1346C66.6214 73.3286 65.8564 72.8279 64.9978 72.8279H58.8444V62.7265H84.1005C92.5459 62.7265 99.5187 55.9326 99.9752 47.2593C100.001 46.7715 100.007 46.276 99.9922 45.7863ZM63.5206 75.8816L47.7991 96.4949L32.0776 75.8816H37.4665C38.6887 75.8816 39.6833 74.8449 39.6833 73.5708V46.5301C39.6833 46.172 39.963 45.8804 40.3065 45.8804H55.2917C55.6352 45.8804 55.9149 46.172 55.9149 46.5301V73.5708C55.9149 74.8449 56.9095 75.8816 58.1317 75.8816H63.5206Z" fill="#2D9CDB"/>
</svg>
