<svg width="100" height="100" viewBox="0 0 100 100" fill="none" xmlns="http://www.w3.org/2000/svg">
<path d="M66.4932 48.0385L45.7285 32.9441C44.9665 32.3917 43.9549 32.3085 43.1196 32.7378C42.2777 33.1637 41.752 34.0289 41.752 34.964V65.1427C41.752 66.0878 42.2777 66.9496 43.1196 67.3756C43.4757 67.5553 43.865 67.6451 44.2577 67.6451C44.7702 67.6451 45.2893 67.4821 45.7285 67.1593L66.4932 52.0783C67.1488 51.5957 67.5315 50.8503 67.5315 50.0584C67.5348 49.2531 67.1421 48.511 66.4932 48.0385Z" fill="#2D9CDB"/>
<path d="M50.0017 0C22.382 0 0 22.382 0 50.0017C0 77.6114 22.382 99.9867 50.0017 99.9867C77.6147 99.9867 100 77.6081 100 50.0017C100.003 22.382 77.6147 0 50.0017 0ZM50.0017 91.6442C27.0008 91.6442 8.35247 73.0059 8.35247 50.0017C8.35247 27.0074 27.0008 8.34581 50.0017 8.34581C72.9992 8.34581 91.6442 27.0041 91.6442 50.0017C91.6475 73.0059 72.9992 91.6442 50.0017 91.6442Z" fill="#2D9CDB"/>
</svg>
