<svg width="100" height="100" viewBox="0 0 100 100" fill="none" xmlns="http://www.w3.org/2000/svg">
<path d="M46.2538 25.6744C71.1723 25.6744 91.3727 19.927 91.3727 12.8372C91.3727 5.74741 71.1723 0 46.2538 0C21.3352 0 1.13477 5.74741 1.13477 12.8372C1.13477 19.927 21.3352 25.6744 46.2538 25.6744Z" fill="#2D9CDB"/>
<path d="M14.2812 39.3254C23.2968 42.2352 34.6512 43.9497 46.2532 43.8379C71.8552 43.5914 83.8226 37.0275 83.823 37.0271C88.6926 34.7626 91.4678 32.2528 91.4678 29.9676V19.5554C91.4678 19.4325 91.4554 19.3122 91.4386 19.1934C89.8558 22.0854 85.9407 24.2529 82.3328 25.7177V32.3197C82.3328 33.2292 81.6618 33.9666 80.8336 33.9666C80.0055 33.9666 79.3344 33.2292 79.3344 32.3197V26.8156C78.4299 27.1142 77.6107 27.3573 76.9357 27.5455V35.5585C76.9357 36.7713 76.0408 37.7543 74.9368 37.7543C73.8331 37.7543 72.9378 36.7713 72.9378 35.5585V28.4934C65.45 30.0465 56.2291 30.9636 46.2532 30.9636C22.5458 30.9636 3.08939 25.7895 1.06707 19.1934C1.04988 19.3122 1.03809 19.4327 1.03809 19.5554V30.1947C1.03829 33.2352 5.98905 36.6483 14.2812 39.3254Z" fill="#2D9CDB"/>
<path d="M99.9708 47.5373C98.388 50.4294 94.4729 52.5969 90.8649 54.0617V60.6635C90.8649 61.5732 90.194 62.3103 89.3656 62.3103C88.5375 62.3103 87.8664 61.5732 87.8664 60.6635V55.1595C86.9621 55.458 86.143 55.7012 85.4677 55.8894V63.9023C85.4677 65.115 84.5728 66.0981 83.4688 66.0981C82.3652 66.0981 81.4698 65.115 81.4698 63.9023V56.8371C73.982 58.3902 64.7611 59.3074 54.7853 59.3074C31.0779 59.3074 11.6214 54.1332 9.5993 47.5371C9.58211 47.6559 9.57031 47.7764 9.57031 47.8992V58.5384C9.57031 61.5791 14.5213 64.9925 22.8133 67.6694C31.8289 70.5792 43.1832 72.2935 54.7853 72.1819C80.387 71.9353 92.3545 65.3713 92.3549 65.3708C97.2245 63.1063 99.9996 60.5965 99.9996 58.3116V47.8994C100 47.7767 99.988 47.6561 99.9708 47.5373Z" fill="#2D9CDB"/>
<path d="M45.2145 87.1206C35.2386 87.1206 26.0178 86.2035 18.5299 84.6504V91.7158C18.5299 92.9283 17.6346 93.9115 16.531 93.9115C15.427 93.9115 14.5321 92.9283 14.5321 91.7158V83.7027C13.857 83.5145 13.0379 83.2714 12.1333 82.9728V88.4768C12.1333 89.3865 11.4623 90.1236 10.6341 90.1236C9.80598 90.1236 9.13494 89.3865 9.13494 88.4768V81.8749C5.52706 80.4101 1.61194 78.2427 0.0291845 75.3506C0.0119936 75.4692 0 75.5897 0 75.7122V86.1244C0 88.4096 2.77512 90.9193 7.64473 93.1839C7.64513 93.1843 19.6126 99.7481 45.2145 99.9947C56.8168 100.107 68.1711 98.392 77.1865 95.4822C85.4785 92.8055 90.4295 89.3924 90.4295 86.3515V75.7127C90.4295 75.5895 90.4177 75.4694 90.4005 75.3506C88.3782 81.9461 68.9217 87.1206 45.2145 87.1206Z" fill="#2D9CDB"/>
<path d="M47.7432 48.6897C36.1453 49.032 24.7866 47.087 15.7716 44.1772C13.5174 43.4495 11.5121 42.6669 9.78418 41.8527C10.6697 48.7207 30.5141 54.2112 54.8692 54.2112C79.7877 54.2112 99.9882 48.4638 99.9882 41.3738C99.9882 38.8412 97.4091 36.4798 92.9583 34.4902V34.8192C92.9583 37.2194 89.8987 39.8675 84.5648 42.2187C84.5646 42.219 72.8286 47.9497 47.7432 48.6897Z" fill="#2D9CDB"/>
<path d="M45.3321 82.0474C69.6871 82.0474 89.5316 76.5566 90.4171 69.6889C88.6888 70.5031 86.6837 71.2855 84.4301 72.0134C75.4141 74.9232 64.0561 76.868 52.4581 76.5259C27.3726 75.7857 15.6371 70.0549 15.6371 70.0549C10.3027 67.7037 7.24315 65.0554 7.24315 62.6556V62.3267C2.79272 64.3163 0.212891 66.6772 0.212891 69.2104C0.212691 76.2997 20.4131 82.0474 45.3321 82.0474Z" fill="#2D9CDB"/>
</svg>
