<svg width="110" height="111" viewBox="0 0 110 111" fill="none" xmlns="http://www.w3.org/2000/svg">
<circle cx="55" cy="55.8022" r="50" stroke="#E10050" stroke-width="10"/>
<g clip-path="url(#clip0)">
<path d="M91.7277 52.628C88.9723 50.5022 84.6173 50.3199 81.7589 53.1915L74.6629 60.3223C73.7455 57.5621 70.9918 55.5524 67.7457 55.5524H55.0827C54.1218 55.5524 53.8 55.2088 52.1309 54.0051C45.7672 48.8118 36.2088 48.8284 29.8643 54.0549L25.2099 57.8906C23.1177 56.854 20.6746 56.8284 18.5709 57.8122L13.2324 60.3102C12.0397 60.8692 11.557 62.2266 12.1524 63.343L26.6374 90.4619C27.2345 91.5784 28.6846 92.0302 29.8772 91.4729L35.2157 88.9734C37.8471 87.7426 39.3117 85.2295 39.2167 82.6714H67.7455C73.0357 82.6714 78.0909 80.306 81.2648 76.3437L92.8544 61.8773C95.1027 59.0734 94.747 54.9617 91.7277 52.628ZM33.0557 84.9311L29.8771 86.4196L17.5505 63.343L20.7307 61.8546C21.9234 61.2971 23.3718 61.7476 23.969 62.8656L34.1357 81.9C34.7313 83.0163 34.2484 84.3721 33.0557 84.9311ZM88.9916 59.1653L77.4022 73.6317C75.1345 76.4626 71.5245 78.1514 67.7457 78.1514H37.5317L28.485 61.2127L33.0541 57.4478C37.6007 53.7038 44.457 53.7038 49.0036 57.4478C51.6817 59.6549 53.3474 60.0723 55.0825 60.0723H67.7455C69.0766 60.0723 70.1596 61.0863 70.1596 62.3322C70.1596 63.5781 69.0764 64.5921 67.7455 64.5921H55.4157C54.083 64.5921 53.0015 65.6046 53.0015 66.852C53.0015 68.0994 54.0831 69.1119 55.4157 69.1119H69.3631C71.3668 69.1119 73.2982 68.3254 74.6629 66.9529L85.2917 56.2726C86.2638 55.2962 87.7541 55.3776 88.6683 56.1264C89.6242 56.9097 89.7274 58.2492 88.9916 59.1653Z" fill="#E10050"/>
<path d="M62.6599 29.9939C64.3128 28.3713 65.3316 26.1777 65.3316 23.7625C65.3316 18.7877 61.0377 14.5723 55.6751 14.5723C50.3527 14.5723 45.8576 18.7802 45.8576 23.7625C45.8576 26.1038 46.8378 28.3139 48.6178 30.012C44.2031 32.3291 41.0293 36.7766 41.0293 41.9925V44.2524C41.0293 45.4998 42.1109 46.5123 43.4434 46.5123H67.7459C69.0784 46.5123 70.16 45.4998 70.16 44.2524V41.9925C70.1599 36.8791 67.1554 32.3623 62.6599 29.9939ZM55.6751 19.0922C58.292 19.0922 60.5033 21.2316 60.5033 23.7627C60.5033 26.2546 58.3371 28.2825 55.6751 28.2825C52.9712 28.2825 50.6858 26.2124 50.6858 23.7627C50.6858 21.2753 53.0179 19.0922 55.6751 19.0922ZM45.8576 41.9925C45.8576 37.0101 50.3527 32.8022 55.6751 32.8022C60.9991 32.8022 65.3316 36.9243 65.3316 41.9925H45.8576Z" fill="#E10050"/>
</g>
<defs>
<clipPath id="clip0">
<rect width="82.4081" height="77.1429" fill="white" transform="translate(11.8975 14.5713)"/>
</clipPath>
</defs>
</svg>
