<svg width="227" height="227" viewBox="0 0 227 227" fill="none" xmlns="http://www.w3.org/2000/svg">
<path d="M202.172 122.474V52.9194C214.185 51.1885 223.453 40.8565 223.453 28.375C223.453 14.6876 212.316 3.54688 198.625 3.54688C184.934 3.54688 173.797 14.6876 173.797 28.375H3.54688V170.25H110.134C111.978 199.888 136.611 223.453 166.703 223.453C197.994 223.453 223.453 197.994 223.453 166.703C223.453 148.83 215.129 132.884 202.172 122.474ZM198.625 10.6406C208.404 10.6406 216.359 18.5963 216.359 28.375C216.359 38.1537 208.404 46.1094 198.625 46.1094C188.846 46.1094 180.891 38.1537 180.891 28.375C180.891 18.5963 188.846 10.6406 198.625 10.6406ZM10.6406 35.4688H174.843C175.691 38.2992 177.039 40.9061 178.77 43.2187L157.077 64.9114C155.687 64.2445 154.154 63.8438 152.516 63.8438C150.877 63.8438 149.345 64.2445 147.958 64.9114L140.811 57.7644C141.474 56.374 141.875 54.8418 141.875 53.2031C141.875 47.3366 137.101 42.5625 131.234 42.5625C125.368 42.5625 120.594 47.3366 120.594 53.2031C120.594 54.8418 120.995 56.374 121.661 57.7609L103.874 75.5484C102.483 74.8852 100.951 74.4844 99.3125 74.4844C93.446 74.4844 88.6719 79.2585 88.6719 85.125C88.6719 90.9915 93.446 95.7656 99.3125 95.7656C105.179 95.7656 109.953 90.9915 109.953 85.125C109.953 83.4863 109.552 81.9541 108.886 80.5673L126.673 62.7797C128.063 63.443 129.596 63.8438 131.234 63.8438C132.873 63.8438 134.405 63.443 135.792 62.7761L142.939 69.9231C142.276 71.3135 141.875 72.8457 141.875 74.4844C141.875 80.3509 146.649 85.125 152.516 85.125C158.382 85.125 163.156 80.3509 163.156 74.4844C163.156 72.8457 162.755 71.3135 162.089 69.9266L183.785 48.234C187.03 50.6671 190.882 52.3164 195.078 52.9229V117.636C186.718 112.78 177.046 109.953 166.703 109.953C149.749 109.953 134.547 117.465 124.141 129.294V113.5H102.859V156.062H110.989C110.549 158.379 110.283 160.751 110.134 163.156H10.6406V35.4688ZM152.516 70.9375C154.47 70.9375 156.062 72.5265 156.062 74.4844C156.062 76.4422 154.47 78.0312 152.516 78.0312C150.561 78.0312 148.969 76.4422 148.969 74.4844C148.969 72.5265 150.561 70.9375 152.516 70.9375ZM127.688 53.2031C127.688 51.2453 129.28 49.6562 131.234 49.6562C133.189 49.6562 134.781 51.2453 134.781 53.2031C134.781 55.161 133.189 56.75 131.234 56.75C129.28 56.75 127.688 55.161 127.688 53.2031ZM102.859 85.125C102.859 87.0829 101.267 88.6719 99.3125 88.6719C97.3582 88.6719 95.7656 87.0829 95.7656 85.125C95.7656 83.1671 97.3582 81.5781 99.3125 81.5781C101.267 81.5781 102.859 83.1671 102.859 85.125ZM166.703 195.078C151.058 195.078 138.328 182.348 138.328 166.703C138.328 151.058 151.058 138.328 166.703 138.328C182.348 138.328 195.078 151.058 195.078 166.703C195.078 182.348 182.348 195.078 166.703 195.078ZM117.047 139.289C115.348 142.354 113.943 145.592 112.83 148.969H109.953V120.594H117.047V139.289ZM163.156 117.228V131.415C145.259 133.203 131.234 148.344 131.234 166.703C131.234 171.892 132.384 176.812 134.395 181.26L122.091 188.364C118.891 181.809 117.047 174.474 117.047 166.703C117.047 140.52 137.431 119.058 163.156 117.228ZM166.703 216.359C149.628 216.359 134.54 207.694 125.602 194.528L137.956 187.396C144.404 196.327 154.871 202.172 166.703 202.172C178.535 202.172 189.002 196.327 195.451 187.396L207.804 194.528C198.866 207.694 183.778 216.359 166.703 216.359V216.359ZM211.316 188.364L199.012 181.26C201.023 176.812 202.172 171.892 202.172 166.703C202.172 148.344 188.148 133.199 170.25 131.415V117.228C195.975 119.058 216.359 140.52 216.359 166.703C216.359 174.474 214.515 181.809 211.316 188.364Z" fill="#005087"/>
<path d="M166.703 145.422C154.967 145.422 145.422 154.967 145.422 166.703C145.422 178.44 154.967 187.984 166.703 187.984C178.44 187.984 187.984 178.44 187.984 166.703C187.984 154.967 178.44 145.422 166.703 145.422ZM166.703 180.891C158.879 180.891 152.516 174.528 152.516 166.703C152.516 158.879 158.879 152.516 166.703 152.516C174.528 152.516 180.891 158.879 180.891 166.703C180.891 174.528 174.528 180.891 166.703 180.891Z" fill="#005087"/>
<path d="M17.7344 42.5625H24.8281V49.6562H17.7344V42.5625Z" fill="#005087"/>
<path d="M31.9219 42.5625H81.5781V49.6562H31.9219V42.5625Z" fill="#005087"/>
<path d="M17.7344 56.75H24.8281V63.8438H17.7344V56.75Z" fill="#005087"/>
<path d="M31.9219 56.75H81.5781V63.8438H31.9219V56.75Z" fill="#005087"/>
<path d="M17.7344 70.9375H24.8281V78.0312H17.7344V70.9375Z" fill="#005087"/>
<path d="M31.9219 70.9375H81.5781V78.0312H31.9219V70.9375Z" fill="#005087"/>
<path d="M17.7344 85.125H24.8281V92.2188H17.7344V85.125Z" fill="#005087"/>
<path d="M31.9219 85.125H81.5781V92.2188H31.9219V85.125Z" fill="#005087"/>
<path d="M17.7344 156.062H39.0156V120.594H17.7344V156.062ZM24.8281 127.688H31.9219V148.969H24.8281V127.688Z" fill="#005087"/>
<path d="M46.1094 156.062H67.3906V127.688H46.1094V156.062ZM53.2031 134.781H60.2969V148.969H53.2031V134.781Z" fill="#005087"/>
<path d="M74.4844 156.062H95.7656V99.3125H74.4844V156.062ZM81.5781 106.406H88.6719V148.969H81.5781V106.406Z" fill="#005087"/>
</svg>
