<?xml version="1.0" encoding="iso-8859-1"?>
<!-- Generator: Adobe Illustrator 19.0.0, SVG Export Plug-In . SVG Version: 6.00 Build 0)  -->
<svg version="1.1" id="Capa_1" xmlns="http://www.w3.org/2000/svg" xmlns:xlink="http://www.w3.org/1999/xlink" x="0px" y="0px"
	 viewBox="0 0 512 512" style="enable-background:new 0 0 512 512;" xml:space="preserve">
<polygon style="fill:#269BD8;" points="512,0 194.207,0 317.793,88.276 317.793,423.724 512,423.724 "/>
<polygon style="fill:#0D529E;" points="194.207,0 194.207,88.276 317.793,88.276 "/>
<rect y="88.276" style="fill:#90D1F3;" width="317.793" height="423.724"/>
<rect x="44.138" y="397.241" style="fill:#FCBF29;" width="70.621" height="70.621"/>
<path style="opacity:0.5;fill:#E97424;enable-background:new    ;" d="M44.138,467.862v-70.621h17.655
	c0,39,13.965,70.621,52.966,70.621H44.138z"/>
<rect x="361.931" y="256" style="fill:#FCBF29;" width="105.931" height="52.966"/>
<path style="opacity:0.5;fill:#F28D01;enable-background:new    ;" d="M361.931,308.966V256h39.724
	c0,29.255,10.47,52.966,39.724,52.966H361.931z"/>
<rect x="361.931" y="44.138" style="fill:#FCBF29;" width="105.931" height="52.966"/>
<path style="opacity:0.5;fill:#F28D01;enable-background:new    ;" d="M361.931,97.103V44.138h39.724
	c0,29.255,10.47,52.966,39.724,52.966H361.931z"/>
<path style="fill:#FCBF29;" d="M194.207,203.034v-27.18c33.774-19.5,45.347-62.694,25.847-96.468s-62.694-45.356-96.468-25.847
	s-45.347,62.694-25.847,96.468c6.197,10.734,15.113,19.65,25.847,25.847v27.18H194.207z"/>
<rect x="123.586" y="203.034" style="fill:#591E00;" width="70.621" height="35.31"/>
<rect x="123.586" y="238.345" style="fill:#0D529E;" width="35.31" height="61.793"/>
<path style="opacity:0.5;fill:#F28D01;enable-background:new    ;" d="M185.379,158.897c-38.965,0.035-70.585-31.532-70.621-70.497
	c-0.009-12.27,3.178-24.338,9.26-35.001c-33.88,19.209-45.78,62.243-26.571,96.132c6.206,10.955,15.236,20.039,26.138,26.324v27.18
	h70.621v-27.18c10.814-6.285,19.783-15.316,25.997-26.183C209.593,155.719,197.588,158.905,185.379,158.897z"/>
<rect x="158.897" y="238.345" style="fill:#269BD8;" width="35.31" height="61.793"/>
<g>
	<polygon style="fill:#FFFFFF;" points="123.586,300.138 194.207,300.138 158.897,344.276 	"/>
	<rect x="150.069" y="141.241" style="fill:#FFFFFF;" width="17.655" height="61.793"/>
	<path style="fill:#FFFFFF;" d="M158.897,150.069c-2.339,0-4.59-0.927-6.241-2.586L126.173,121l12.482-12.482l20.242,20.242
		l20.242-20.242L191.62,121l-26.483,26.483C163.487,149.142,161.236,150.069,158.897,150.069z"/>
</g>
<g>
	<rect x="353.103" y="123.586" style="fill:#591E00;" width="17.655" height="17.655"/>
	<rect x="388.414" y="123.586" style="fill:#591E00;" width="88.276" height="17.655"/>
	<rect x="353.103" y="158.897" style="fill:#591E00;" width="123.586" height="17.655"/>
	<rect x="353.103" y="194.207" style="fill:#591E00;" width="123.586" height="17.655"/>
	<rect x="353.103" y="335.448" style="fill:#591E00;" width="17.655" height="17.655"/>
	<rect x="388.414" y="335.448" style="fill:#591E00;" width="88.276" height="17.655"/>
	<rect x="353.103" y="370.759" style="fill:#591E00;" width="123.586" height="17.655"/>
	<rect x="141.241" y="388.414" style="fill:#591E00;" width="17.655" height="17.655"/>
	<rect x="176.552" y="388.414" style="fill:#591E00;" width="105.931" height="17.655"/>
	<rect x="141.241" y="423.724" style="fill:#591E00;" width="141.241" height="17.655"/>
	<rect x="141.241" y="459.034" style="fill:#591E00;" width="141.241" height="17.655"/>
</g>
<g>
</g>
<g>
</g>
<g>
</g>
<g>
</g>
<g>
</g>
<g>
</g>
<g>
</g>
<g>
</g>
<g>
</g>
<g>
</g>
<g>
</g>
<g>
</g>
<g>
</g>
<g>
</g>
<g>
</g>
</svg>
