<svg width="21" height="20" viewBox="0 0 21 20" fill="none" xmlns="http://www.w3.org/2000/svg">
<path d="M8.09546 15.0156L17.0955 6.01562L15.6892 4.5625L8.09546 12.1562L4.53296 8.59375L3.12671 10L8.09546 15.0156ZM3.03296 2.96875C5.00171 1 7.36108 0.015625 10.1111 0.015625C12.8611 0.015625 15.2048 1 17.1423 2.96875C19.1111 4.90625 20.0955 7.25 20.0955 10C20.0955 12.75 19.1111 15.1094 17.1423 17.0781C15.2048 19.0156 12.8611 19.9844 10.1111 19.9844C7.36108 19.9844 5.00171 19.0156 3.03296 17.0781C1.09546 15.1094 0.126709 12.75 0.126709 10C0.126709 7.25 1.09546 4.90625 3.03296 2.96875Z" fill="black"/>
</svg>
