<svg width="120" height="100" viewBox="0 0 120 100" fill="none" xmlns="http://www.w3.org/2000/svg">
<g clip-path="url(#clip0)">
<path d="M117.129 96.8573V77.2938C117.129 75.1515 115.874 73.1437 113.769 71.9142L98.9564 63.2726C97.9636 62.6932 96.7796 62.3828 95.5662 62.3828H83.6399L83.837 90.4715C83.9099 93.3986 86.2049 95.9628 89.5498 96.8575H117.129V96.8573Z" fill="#FEC9A3"/>
<path d="M105.31 96.8572H91.5198C87.1681 96.8572 83.6399 93.917 83.6399 90.2907V83.7241H97.4297L105.31 96.8572Z" fill="#FABD91"/>
<path d="M54.09 13.1331C52.7328 13.1347 51.3912 13.3712 50.15 13.8259V1.6416H14.6905C8.16205 1.6416 2.87061 6.05114 2.87061 11.4915V41.0411H17.4917C15.305 36.8909 17.5686 32.0482 22.5507 30.2259C27.5309 28.4037 33.3422 30.29 35.5289 34.4417C36.6379 36.5446 36.6379 38.9399 35.5289 41.0429H50.15V28.8586C55.1302 30.6808 60.9415 28.7945 63.1282 24.6428C65.3149 20.4911 63.0513 15.6499 58.0692 13.8276C56.8165 13.3663 55.4611 13.1315 54.09 13.1331Z" fill="#88B337"/>
<path d="M97.4293 11.4915C97.4293 6.05114 92.1379 1.6416 85.6094 1.6416H50.1499V13.8259C55.1301 12.0036 60.9414 13.8899 63.1281 18.0417C65.3148 22.1918 63.0512 27.0346 58.0692 28.8568C55.5457 29.781 52.6716 29.781 50.1478 28.8568V41.0411H64.769C62.5823 45.1913 64.8458 50.034 69.8279 51.8562C74.8081 53.6785 80.6194 51.7922 82.8061 47.6405C83.9151 45.5375 83.9151 43.1424 82.8061 41.0393H97.4272V11.4915H97.4293Z" fill="#E8594A"/>
<path d="M97.4294 12.4287C86.169 25.4831 65.8408 32.8985 50.15 36.8893V41.041H64.7712C62.5845 45.1912 64.848 50.0339 69.8301 51.8562C74.8103 53.6784 80.6216 51.7921 82.8083 47.6404C83.9173 45.5375 83.9173 43.1424 82.8083 41.0392H97.4294V12.4287Z" fill="#D65245"/>
<path d="M46.2102 54.1741C47.5674 54.1757 48.909 54.4122 50.1502 54.8669V41.041H35.5291C37.7158 36.8909 35.4522 32.0481 30.4702 30.2259C25.4881 28.4036 19.6787 30.29 17.492 34.4417C16.3829 36.5446 16.3829 38.9399 17.492 41.0428H2.87061V70.5924C2.87061 76.0328 8.16205 80.4423 14.6905 80.4423H50.15V69.8996C45.1698 71.7219 39.3585 69.8355 37.1718 65.6838C34.9851 61.5337 37.2487 56.6909 42.2308 54.8687C43.4837 54.4071 44.841 54.1724 46.2102 54.1741Z" fill="#FDB62F"/>
<path d="M2.87061 70.5908C2.87061 76.0311 8.16205 80.4407 14.6905 80.4407H50.15V69.898C45.1935 71.7169 39.4059 69.8439 37.2229 65.7134C36.7167 64.7547 36.435 63.7221 36.3956 62.6748C25.8345 66.6 14.4322 68.7128 2.87061 68.8884C2.87061 68.8882 2.87061 70.5908 2.87061 70.5908Z" fill="#FFA719"/>
<path d="M102.581 75.3516L90.1169 47.6079L76.4276 51.9042C80.2434 55.1432 80.1844 60.3471 76.2975 63.5254C72.4107 66.7037 66.166 66.656 62.3521 63.417C60.4096 61.7672 59.3891 59.5131 59.5429 57.2049L45.8555 61.5012L51.6867 74.4848C50.3334 74.4208 48.978 74.5932 47.7073 74.9905C42.6209 76.6354 40.0993 81.4043 42.0732 85.6432C44.0135 89.808 49.5867 91.9242 54.6318 90.4072C55.9024 90.0084 57.0609 89.391 58.03 88.598L62.4742 98.4987L95.6722 88.0793C101.793 86.1488 104.884 80.4555 102.581 75.3516Z" fill="#4398D1"/>
<path d="M96.1529 61.0449C82.56 77.9868 57.0785 83.9031 42.1541 85.9404C44.2482 90.0922 49.9847 92.0423 54.9668 90.2974C56.1075 89.8984 57.1476 89.3207 58.03 88.5984L62.4742 98.4991L95.6722 88.0797C101.789 86.149 104.878 80.4592 102.581 75.3569L96.1529 61.0449Z" fill="#3E8FC9"/>
<path d="M54.09 13.1331C52.7328 13.1347 51.3912 13.3712 50.15 13.8259V11.4438C35.399 22.7598 15.4136 29.0095 2.87061 32.0548V41.0413H17.4917C15.305 36.8911 17.5686 32.0484 22.5507 30.2261C27.5309 28.4039 33.3422 30.2902 35.5289 34.4419C36.6379 36.5448 36.6379 38.9401 35.5289 41.043H50.15V28.8587C55.1302 30.681 60.9415 28.7947 63.1282 24.643C65.3149 20.4912 63.0513 15.6501 58.0692 13.8278C56.8165 13.3663 55.4611 13.1315 54.09 13.1331Z" fill="#80A834"/>
<path d="M93.525 75.5456C91.6397 73.9433 88.5528 73.9171 86.63 75.4882C84.7072 77.0593 84.6758 79.6317 86.5611 81.234C86.5847 81.2538 86.6063 81.2735 86.63 81.2915L93.4894 87.0076C93.4894 92.448 98.7808 96.8575 105.309 96.8575H117.129V95.216L93.525 75.5456Z" fill="#FEC9A3"/>
<path d="M46.2101 52.3965C39.6817 52.3949 34.3883 56.8027 34.3862 62.2431C34.3844 66.1616 37.1718 69.7092 41.4821 71.2754L43.058 68.268C39.0669 66.8217 37.2388 62.9524 38.9762 59.6265C40.2292 57.2263 43.0719 55.6767 46.2099 55.68C47.2953 55.68 48.3689 55.8689 49.3617 56.2349C50.3585 56.5978 51.5208 56.2185 51.9563 55.3861C52.0645 55.1793 52.1198 54.956 52.1198 54.731V42.6831H62.1372C62.0249 43.2249 61.9699 43.7748 61.9699 44.3246C61.9816 49.0018 65.9296 53.032 71.4256 53.9775L72.2136 50.7615C68.5494 50.1295 65.9176 47.4438 65.9097 44.3246C65.9097 43.4202 66.1363 42.5254 66.5755 41.6981C67.011 40.8674 66.5558 39.8989 65.5569 39.536C65.3106 39.4458 65.0427 39.3997 64.7708 39.3997H52.1196V31.0519C52.7698 31.1455 53.4298 31.1914 54.0895 31.1914C60.618 31.1914 65.9094 26.7818 65.9094 21.3414C65.9094 15.901 60.618 11.4915 54.0895 11.4915C53.4295 11.4915 52.7695 11.5374 52.1196 11.631V3.28337H85.6092C91.0464 3.28826 95.4531 6.96069 95.459 11.4915V39.3995H82.8077C81.7202 39.3995 80.8378 40.135 80.8397 41.0428C80.8397 41.2678 80.8948 41.4911 81.0033 41.6979C81.4425 42.5252 81.6692 43.42 81.6692 44.3245H85.6092C85.6092 43.7745 85.5541 43.2245 85.4419 42.6829H97.4291C98.5166 42.6829 99.399 41.9473 99.399 41.0413V11.4915C99.3896 5.1482 93.2216 0.00820306 85.6097 0H14.6905C7.07848 0.00820306 0.910478 5.1482 0.900635 11.4915V70.4545C0.910478 76.7978 7.07848 81.9378 14.6905 81.946H36.3601V78.6627H14.6905C9.25323 78.6578 4.84654 74.9853 4.84068 70.4545V42.6829H17.4919C18.66 42.6124 19.5368 41.7651 19.452 40.7917C19.4363 40.6046 19.3831 40.4206 19.2964 40.2466C17.5451 36.9272 19.3554 33.0529 23.3407 31.5935C27.3241 30.1341 31.9731 31.6427 33.7244 34.9638C34.6129 36.6481 34.6129 38.564 33.7244 40.2483C33.2378 41.0971 33.6693 42.1131 34.6858 42.5188C34.9497 42.6239 35.2354 42.6797 35.5288 42.6846H48.18V52.5345C47.5299 52.4408 46.8701 52.3947 46.2101 52.3965ZM14.6905 3.28337H48.18V13.8261C48.18 14.7323 49.0627 15.4677 50.152 15.4661C50.422 15.4661 50.6899 15.4202 50.9381 15.3298C51.9309 14.9637 53.0046 14.7749 54.09 14.7749C58.4416 14.7749 61.9699 17.7151 61.9699 21.3414C61.9699 24.9678 58.4416 27.908 54.09 27.908C53.0046 27.908 51.9309 27.7191 50.9381 27.3531C49.9413 26.9902 48.7791 27.3695 48.3436 28.2019C48.2353 28.4088 48.18 28.632 48.18 28.857V39.2634H38.1765C38.275 38.7659 38.3263 38.262 38.3303 37.7579C38.3303 37.7284 38.3303 37.702 38.3303 37.6726C38.3303 37.6431 38.3303 37.638 38.3303 37.6216C38.3303 32.1812 33.0388 27.7717 26.5104 27.7717C19.9819 27.7717 14.6905 32.1812 14.6905 37.6216C14.6905 37.638 14.6905 37.6561 14.6905 37.6726C14.6905 37.689 14.6905 37.7284 14.6905 37.7579C14.6944 38.2618 14.7455 38.7659 14.8442 39.2634H4.84068V11.4915C4.84842 6.96049 9.25346 3.28826 14.6905 3.28337Z" fill="black"/>
<path d="M114.885 70.5613L98.324 61.0578L91.9628 46.8954C91.5827 46.045 90.45 45.6132 89.4295 45.9302C89.392 45.9417 89.3566 45.9532 89.3212 45.9663L76.5165 50.686C75.5572 51.0389 75.098 51.9583 75.4723 52.7743C75.6851 53.2338 75.8841 53.5819 76.0948 53.9432C76.3055 54.3045 76.5008 54.6426 76.7391 55.176C78.2679 58.5809 76.2092 62.3764 72.1313 63.6683C68.0554 64.939 63.5146 63.2152 61.99 59.8188C61.6078 58.9668 61.4423 58.0572 61.5035 57.1494C61.5606 56.2432 60.7253 55.4717 59.64 55.4241C59.3681 55.4125 59.0962 55.4471 58.84 55.5276L45.1527 59.8238C44.1362 60.1424 43.6201 61.0879 44.0021 61.9367L48.9153 72.8734C48.2633 72.9718 47.6251 73.1196 47.0044 73.3134C40.8739 75.2177 37.7575 80.901 40.0405 86.01C42.3256 91.1187 49.1457 93.7158 55.2764 91.8133C55.9069 91.6179 56.5174 91.3765 57.1005 91.0941L60.6229 98.9347C61.0052 99.7835 62.1398 100.214 63.1584 99.8966C63.1602 99.8966 63.1602 99.8966 63.1624 99.895L82.6809 93.7668C83.9063 95.9632 86.164 97.6411 88.92 98.4093L90.165 95.2902C88.5417 94.8337 87.1922 93.8734 86.3983 92.6078L92.3378 90.7445C94.288 95.3181 99.4869 98.37 105.31 98.3634V95.08C99.8849 95.0521 95.4937 91.3929 95.4604 86.8719C95.4604 86.4369 95.2534 86.0182 94.8831 85.7111L88.0237 79.995C87.0072 79.1397 86.891 77.7936 87.7537 76.8282C88.256 76.2636 89.0304 75.9122 89.8715 75.8663C90.7148 75.8071 91.544 76.0649 92.133 76.5706L105.887 88.0326L108.673 85.7113L104.603 82.3198C105.606 79.8212 105.545 77.1108 104.428 74.645L100.736 66.4285L112.64 73.2593C114.218 74.1819 115.158 75.6872 115.16 77.2944V98.4995H119.1V77.2936C119.097 74.6112 117.523 72.098 114.885 70.5613ZM101.312 79.5756L94.9176 74.2485C92.2778 71.9929 87.9438 71.947 85.237 74.1468C82.5302 76.3466 82.4752 79.9583 85.1149 82.2139C85.1543 82.2485 85.1958 82.2829 85.237 82.3157L91.4681 87.5082L63.6283 96.2466L59.8736 87.8857C59.6393 87.367 59.1072 86.9795 58.4573 86.8598C58.3174 86.8336 58.1737 86.8203 58.0298 86.8203C57.5137 86.8203 57.0192 86.9877 56.6508 87.2883C53.487 89.7787 48.5009 89.6605 45.5105 87.024C42.522 84.3875 42.6638 80.2325 45.8277 77.7405C46.5723 77.1544 47.4451 76.6948 48.4004 76.3878C49.0268 76.194 49.6829 76.071 50.3487 76.02C50.7584 75.979 51.1721 75.9675 51.5839 75.9854C52.6713 76.0331 53.5971 75.337 53.6543 74.4325C53.6681 74.2075 53.6267 73.9827 53.5322 73.771L48.3865 62.3223L57.7676 59.3787C58.9987 64.7207 65.1944 68.2206 71.6047 67.1947C72.2607 67.0896 72.9029 66.9386 73.5275 66.7433C79.6364 64.8127 82.7234 59.1311 80.4361 54.0303C80.255 53.6264 80.0914 53.3063 79.9339 53.0208L88.9957 49.6766L100.737 75.7936C101.283 76.9999 101.48 78.2952 101.312 79.5756Z" fill="black"/>
</g>
<defs>
<clipPath id="clip0">
<rect width="120" height="100" fill="white"/>
</clipPath>
</defs>
</svg>
