<svg id="Capa_1" enable-background="new 0 0 512 512" height="512" viewBox="0 0 512 512" width="512" xmlns="http://www.w3.org/2000/svg"><g><g><path d="m96 70h320v432h-320z" fill="#eefaff"/><path d="m336 90h-160c0-13.99 0-26.01 0-40h40c0-22.09 17.91-40 40-40s40 17.91 40 40h40z" fill="#ffda8f"/><path d="m336 342h-80c0-22.078 17.911-160 40-160 22.09 0 40 137.91 40 160z" fill="#ff7d95"/><path d="m260.44 297.86c-6.76-9.28-15.24-15.86-24.44-15.86-22.059 0-40 37.877-40 60h60l4.45-44.14z" fill="#ffda8f"/><path d="m176 242c-22.09 0-40 77.91-40 100h60l13.3-40.84c-7.17-28.36-19.41-59.16-33.3-59.16z" fill="#a0e5a5"/></g><g><circle cx="156" cy="382" r="10"/><circle cx="156" cy="422" r="10"/><circle cx="156" cy="462" r="10"/><path d="m336 40h-31.005c-4.645-22.794-24.849-40-48.995-40s-44.349 17.206-48.996 40h-31.004c-5.523 0-10 4.478-10 10v10h-70c-5.523 0-10 4.478-10 10v432c0 5.522 4.477 10 10 10h115c5.523 0 10-4.478 10-10s-4.477-10-10-10h-105v-412h60v10c0 5.522 4.477 10 10 10h160c5.522 0 10-4.478 10-10v-10h60v412h-105c-5.522 0-10 4.478-10 10s4.478 10 10 10h115c5.522 0 10-4.478 10-10v-432c0-5.522-4.478-10-10-10h-70v-10c0-5.522-4.478-10-10-10zm-10 40h-140v-20h30c5.523 0 10-4.478 10-10 0-16.542 13.458-30 30-30s30 13.458 30 30c0 5.522 4.478 10 10 10h30z"/><path d="m386 342v-20c0-5.522-4.478-10-10-10s-10 4.478-10 10v10h-20.515c-1.393-17.668-5.536-50.104-11.385-80.191-4.859-24.996-15.244-79.809-38.1-79.809-12.879 0-21.789 13.704-30.752 47.3-5.098 19.108-9.092 40.811-11.841 57.987-5.563-3.485-11.418-5.287-17.407-5.287-7.638 0-15.169 3.046-22.108 8.761-10.368-32.368-23.081-48.761-37.892-48.761-11.312 0-21.205 9.326-30 28.362v-120.362h10c5.523 0 10-4.478 10-10s-4.477-10-10-10h-20c-5.523 0-10 4.478-10 10v212c0 5.522 4.477 10 10 10h240c5.522 0 10-4.478 10-10zm-199.133-10h-40.053c4.535-34.771 20.111-77.849 29.187-79.99 3.427.768 13.494 13.722 22.558 47.591-5.805 10.087-9.984 21.761-11.692 32.399zm59.633 0h-39.293c3.524-16.254 16.153-40 28.793-40 4.24 0 9.214 3.142 13.969 8.721-1.611 12.045-2.831 23.1-3.469 31.279zm20.068 0c2.17-25.923 8.797-70.729 16.555-101.92 5.707-22.941 10.389-32.427 12.882-36.205 3.438 5.191 11.001 21.166 19.671 68.13 4.915 26.621 8.442 54.398 9.758 69.995z"/><path d="m356 372h-160c-5.523 0-10 4.478-10 10s4.477 10 10 10h160c5.522 0 10-4.478 10-10s-4.478-10-10-10z"/><path d="m356 412h-160c-5.523 0-10 4.478-10 10s4.477 10 10 10h160c5.522 0 10-4.478 10-10s-4.478-10-10-10z"/><path d="m366 462c0-5.522-4.478-10-10-10h-160c-5.523 0-10 4.478-10 10s4.477 10 10 10h160c5.522 0 10-4.478 10-10z"/><circle cx="256" cy="502" r="10"/></g></g></svg>