<svg width="260" height="260" viewBox="0 0 260 260" fill="none" xmlns="http://www.w3.org/2000/svg">
<circle cx="130" cy="130" r="126" stroke="#005087" stroke-width="8"/>
<g clip-path="url(#clip0)">
<path d="M222.878 96.1941H180.737V74.6992H205.122L203.01 76.8117C200.723 79.1 200.723 82.8102 203.011 85.098C204.155 86.2418 205.655 86.8137 207.154 86.8137C208.653 86.8137 210.153 86.2414 211.297 85.0969L223.307 73.084C225.595 70.7961 225.595 67.0863 223.307 64.7984L211.297 52.7859C209.01 50.4973 205.3 50.4973 203.011 52.7852C200.723 55.073 200.722 58.7832 203.01 61.0715L204.919 62.9805H174.878C171.642 62.9805 169.019 65.6039 169.019 68.8398V96.1941H135.859V45.007L137.867 47.0148C140.154 49.3035 143.864 49.3035 146.153 47.0156C148.441 44.7277 148.442 41.0176 146.154 38.7293L134.143 26.7168C133.045 25.6176 131.554 25 130 25C128.446 25 126.955 25.6176 125.857 26.7168L113.846 38.7297C111.559 41.018 111.559 44.7281 113.847 47.016C114.991 48.1598 116.491 48.7316 117.99 48.7316C119.489 48.7316 120.989 48.1594 122.133 47.0148L124.141 45.007V96.1941H90.9812V68.8398C90.9812 65.6039 88.3577 62.9805 85.1218 62.9805H55.0812L56.9898 61.0715C59.2777 58.7832 59.2773 55.073 56.989 52.7852C54.7011 50.4977 50.9909 50.4977 48.7027 52.7859L36.6925 64.7984C34.405 67.0863 34.405 70.7961 36.6925 73.084L48.7027 85.0969C49.8468 86.2414 51.3464 86.8137 52.846 86.8137C54.3452 86.8137 55.8448 86.2418 56.9886 85.098C59.2769 82.8102 59.2773 79.1 56.9894 76.8117L54.8777 74.6992H79.2624V96.1941H37.1222C33.8863 96.1941 31.2628 98.8176 31.2628 102.054V147.959C31.2628 151.195 33.8863 153.818 37.1222 153.818H79.2624V175.377H54.878L56.9898 173.264C59.2777 170.976 59.2773 167.266 56.989 164.978C54.7011 162.691 50.9909 162.691 48.7027 164.979L36.6925 176.991C34.405 179.279 34.405 182.989 36.6925 185.277L48.7027 197.289C49.8468 198.434 51.3464 199.006 52.846 199.006C54.3452 199.006 55.8448 198.434 56.9886 197.291C59.2769 195.003 59.2773 191.293 56.9894 189.004L55.0808 187.095H85.1214C88.3573 187.095 90.9808 184.472 90.9808 181.236V153.818H124.141V204.993L122.133 202.985C119.846 200.696 116.135 200.696 113.847 202.984C111.559 205.272 111.558 208.982 113.846 211.27L125.856 223.283C126.955 224.382 128.446 225 130 225C131.554 225 133.045 224.382 134.143 223.283L146.153 211.271C148.441 208.982 148.441 205.272 146.153 202.984C143.865 200.697 140.155 200.697 137.866 202.985L135.859 204.993V153.818H169.018V181.236C169.018 184.472 171.642 187.095 174.878 187.095H204.918L203.01 189.004C200.722 191.293 200.722 195.003 203.01 197.291C204.155 198.434 205.654 199.006 207.153 199.006C208.653 199.006 210.153 198.434 211.296 197.289L223.307 185.277C225.594 182.989 225.594 179.279 223.307 176.991L211.296 164.979C209.009 162.69 205.299 162.69 203.01 164.978C200.722 167.266 200.721 170.976 203.009 173.264L205.121 175.377H180.736V153.818H222.876C226.112 153.818 228.736 151.195 228.736 147.959V102.054C228.737 98.8176 226.114 96.1941 222.878 96.1941V96.1941ZM217.018 142.099H42.9816V107.913H217.018V142.099H217.018Z" fill="#E10050"/>
<path d="M56.7335 130.971C60.0214 130.958 62.676 128.281 62.6629 124.993C62.6497 121.704 59.9737 119.049 56.6859 119.062C53.3981 119.075 50.7435 121.752 50.7566 125.04C50.7698 128.329 53.4457 130.984 56.7335 130.971Z" fill="#E10050"/>
<path d="M77.0991 130.978C80.387 130.965 83.0416 128.288 83.0285 125C83.0153 121.711 80.3393 119.056 77.0515 119.069C73.7637 119.083 71.1091 121.759 71.1222 125.048C71.1354 128.336 73.8113 130.991 77.0991 130.978Z" fill="#E10050"/>
<path d="M97.464 130.985C100.752 130.972 103.406 128.296 103.393 125.007C103.38 121.719 100.704 119.064 97.4164 119.077C94.1286 119.09 91.4739 121.766 91.4871 125.055C91.5002 128.343 94.1762 130.999 97.464 130.985Z" fill="#E10050"/>
<path d="M203.255 130.96C206.543 130.96 209.208 128.294 209.208 125.006C209.208 121.718 206.543 119.052 203.255 119.052C199.967 119.052 197.302 121.718 197.302 125.006C197.302 128.294 199.967 130.96 203.255 130.96Z" fill="#E10050"/>
</g>
<defs>
<clipPath id="clip0">
<rect width="200" height="200" fill="white" transform="translate(30 25)"/>
</clipPath>
</defs>
</svg>
