<svg width="227" height="227" viewBox="0 0 227 227" fill="none" xmlns="http://www.w3.org/2000/svg">
<g clip-path="url(#clip0)">
<path d="M216.918 43.7502L195.423 169.131C194.976 171.75 193.471 174.124 191.293 175.646L121.228 224.691C119.07 226.201 116.542 227 113.909 227C113.816 227 113.722 227 113.629 226.995C111.095 226.943 108.667 226.148 106.587 224.691L37.5785 176.387C36.148 175.385 34.9548 174.133 34.023 172.664C33.0913 171.19 32.4643 169.574 32.1716 167.858L11.2645 45.8925C10.7622 42.9605 11.3181 39.9332 12.8353 37.3717C14.3489 34.8068 16.732 32.8585 19.5463 31.8869L109.595 0.718358C110.896 0.264607 112.259 0.0256082 113.629 0.00309379C115.182 -0.0332756 116.744 0.207455 118.223 0.718358L210.323 32.597C214.974 34.2076 217.747 38.8992 216.918 43.7502Z" fill="#2FC0F0"/>
<path d="M216.917 43.7502L195.423 169.131C194.976 171.75 193.471 174.124 191.292 175.646L121.228 224.691C119.07 226.201 116.541 227 113.909 227C113.815 227 113.722 227 113.628 226.995V0.00309379C115.182 -0.0332756 116.744 0.207455 118.223 0.718358L210.322 32.597C214.974 34.2076 217.747 38.8992 216.917 43.7502Z" fill="#005087"/>
<path d="M79.4513 78.1006C78.8383 77.7819 78.1057 77.6226 77.2536 77.6226C76.4015 77.6226 75.6689 77.7819 75.0576 78.1006C74.4445 78.421 74.138 78.8868 74.138 79.4999V89.285H66.1904V79.4999C66.1904 78.8868 65.8838 78.421 65.2708 78.1006C64.6594 77.7819 63.9268 77.6226 63.0747 77.6226C62.2227 77.6226 61.4901 77.7819 60.877 78.1006C60.2656 78.421 59.9591 78.8868 59.9591 79.4999V104.903C59.9591 105.516 60.2656 105.991 60.877 106.323C61.4901 106.656 62.2227 106.82 63.0747 106.82C63.9268 106.82 64.6594 106.656 65.2708 106.323C65.8838 105.991 66.1904 105.516 66.1904 104.903V94.0788H74.138V104.903C74.138 105.516 74.4445 105.991 75.0576 106.323C75.6689 106.656 76.4015 106.82 77.2536 106.82C78.1057 106.82 78.8383 106.656 79.4513 106.323C80.0627 105.991 80.3692 105.516 80.3692 104.903V79.4999C80.3692 78.8868 80.0627 78.421 79.4513 78.1006Z" fill="white"/>
<path d="M103.377 78.4158C103.057 77.8875 102.591 77.6226 101.98 77.6226H84.7232C84.1118 77.6226 83.6442 77.8875 83.3256 78.4158C83.0052 78.9492 82.8458 79.5744 82.8458 80.2983C82.8458 81.0742 83.0155 81.7271 83.3481 82.2588C83.6806 82.787 84.1378 83.0537 84.7232 83.0537H90.2357V104.889C90.2357 105.506 90.5423 105.982 91.1536 106.318C91.7667 106.652 92.4993 106.82 93.3514 106.82C94.2035 106.82 94.936 106.652 95.5474 106.318C96.1605 105.982 96.467 105.506 96.467 104.889V83.0537H101.98C102.565 83.0537 103.026 82.787 103.36 82.2588C103.692 81.7271 103.857 81.0742 103.857 80.2983C103.857 79.5744 103.696 78.9492 103.377 78.4158Z" fill="white"/>
<path d="M125.026 78.4158C124.707 77.8875 124.241 77.6226 123.628 77.6226H106.373C105.76 77.6226 105.294 77.8875 104.974 78.4158C104.655 78.9492 104.496 79.5744 104.496 80.2983C104.496 81.0742 104.664 81.7271 104.996 82.2588C105.329 82.787 105.786 83.0537 106.373 83.0537H111.884V104.889C111.884 105.506 112.191 105.982 112.804 106.318C113.057 106.457 113.332 106.567 113.628 106.647C114.042 106.763 114.503 106.82 115 106.82C115.852 106.82 116.584 106.652 117.198 106.318C117.809 105.982 118.115 105.506 118.115 104.889V83.0537H123.628C124.213 83.0537 124.676 82.787 125.008 82.2588C125.341 81.7271 125.505 81.0742 125.505 80.2983C125.505 79.5744 125.346 78.9492 125.026 78.4158Z" fill="white"/>
<path d="M145.415 79.8411C143.702 78.3621 141.416 77.6226 138.567 77.6226H130.299C129.606 77.6226 129.047 77.8079 128.621 78.1802C128.195 78.5543 127.982 78.9925 127.982 79.4999V104.903C127.982 105.516 128.288 105.991 128.9 106.323C129.513 106.656 130.245 106.82 131.098 106.82C131.95 106.82 132.682 106.656 133.294 106.323C133.907 105.991 134.213 105.516 134.213 104.903V96.2748H138.167C141.123 96.2748 143.501 95.5249 145.299 94.0199C147.093 92.5167 147.994 90.1769 147.994 87.0076V86.8084C147.994 83.6391 147.133 81.3184 145.415 79.8411ZM141.762 87.4873C141.762 90.1509 140.564 91.4827 138.167 91.4827H134.213V83.0537H138.167C140.564 83.0537 141.762 84.3855 141.762 87.0491V87.4873Z" fill="#E1EBF0"/>
<path d="M167.983 94.3178C167.356 93.0934 166.58 92.1426 165.648 91.4637C164.717 90.7848 163.695 90.1596 162.59 89.5863C161.485 89.0148 160.468 88.549 159.537 88.1887C158.605 87.8302 157.824 87.3938 157.199 86.8881C156.572 86.3824 156.262 85.823 156.262 85.2116C156.262 84.5449 156.594 83.982 157.261 83.5161C157.926 83.0503 158.924 82.8147 160.255 82.8147C161.508 82.8147 162.652 83.0676 163.691 83.5733C164.729 84.079 165.408 84.3318 165.728 84.3318C166.501 84.3318 167.103 83.9543 167.543 83.1957C167.983 82.4372 168.205 81.7098 168.205 81.0032C168.205 80.2619 167.903 79.6315 167.304 79.1137C166.705 78.589 165.932 78.2114 164.987 77.9811C164.041 77.7455 163.189 77.5914 162.431 77.5065C161.672 77.4217 160.948 77.3818 160.255 77.3818C157.432 77.3818 155.023 78.0832 153.027 79.4809C151.03 80.8785 150.03 82.9879 150.03 85.8109C150.03 87.541 150.462 89.0321 151.326 90.2843C152.192 91.5347 153.252 92.5028 154.504 93.1817C155.756 93.8606 156.998 94.4737 158.236 95.0192C159.474 95.5648 160.527 96.1692 161.391 96.8342C162.257 97.4993 162.692 98.2717 162.692 99.1515C162.692 100.03 162.306 100.691 161.533 101.131C160.761 101.569 159.857 101.787 158.818 101.787C157.992 101.787 157.207 101.628 156.461 101.304C155.716 100.98 155.134 100.625 154.722 100.229C154.308 99.839 153.856 99.4788 153.364 99.1549C152.871 98.8363 152.427 98.6718 152.027 98.6718C151.308 98.6718 150.675 99.0441 150.127 99.7905C149.582 100.535 149.312 101.282 149.312 102.026C149.312 103.358 150.269 104.557 152.187 105.622C154.105 106.687 156.355 107.22 158.937 107.22C161.92 107.22 164.33 106.457 166.168 104.926C168.006 103.398 168.923 101.259 168.923 98.5124C168.923 96.9416 168.608 95.5423 167.983 94.3178Z" fill="#E1EBF0"/>
<path d="M169.528 120.17C169.528 123.845 166.546 126.827 162.87 126.827H66.7099C63.0297 126.827 60.0526 123.845 60.0526 120.17C60.0526 116.491 63.0297 113.512 66.7099 113.512H162.87C166.546 113.512 169.528 116.491 169.528 120.17Z" fill="white"/>
<path d="M115 106.82C114.503 106.82 114.042 106.763 113.628 106.647V77.6226H123.628C124.241 77.6226 124.707 77.8875 125.026 78.4158C125.346 78.9492 125.505 79.5744 125.505 80.2983C125.505 81.0742 125.341 81.7271 125.008 82.2588C124.676 82.787 124.213 83.0537 123.628 83.0537H118.115V104.889C118.115 105.506 117.809 105.982 117.198 106.318C116.584 106.652 115.852 106.82 115 106.82Z" fill="#E1EBF0"/>
<path d="M169.528 120.17C169.528 123.845 166.546 126.827 162.871 126.827H113.628V113.512H162.871C166.546 113.512 169.528 116.491 169.528 120.17Z" fill="#E1EBF0"/>
</g>
<defs>
<clipPath id="clip0">
<rect width="227" height="227" fill="white"/>
</clipPath>
</defs>
</svg>
