<svg width="130" height="110" viewBox="0 0 130 110" fill="none" xmlns="http://www.w3.org/2000/svg">
<path d="M64.4921 66.6177C49.9783 66.6177 38.1702 56.6266 38.1702 44.3457C38.1702 32.0648 49.9778 22.0737 64.4921 22.0737C79.0064 22.0737 90.8136 32.0648 90.8136 44.3457C90.8136 56.6266 79.0059 66.6177 64.4921 66.6177ZM64.4921 24.2217C51.3784 24.2217 40.7092 33.249 40.7092 44.3453C40.7092 55.4416 51.3779 64.4689 64.4921 64.4689C77.6064 64.4689 88.2745 55.4416 88.2745 44.3453C88.2745 33.249 77.6059 24.2217 64.4921 24.2217Z" fill="#EBE7F2"/>
<path d="M98.3303 47.5993C96.8977 46.941 96.0426 45.7246 96.0426 44.3453C96.0426 42.966 96.8977 41.7495 98.3303 41.0912C101.821 39.4872 102.492 36.445 101.607 34.1415C100.723 31.8379 98.0652 29.7084 94.1286 30.1484C92.5112 30.3276 90.9751 29.7694 90.0174 28.6535C89.0591 27.5376 88.9063 26.1282 89.6081 24.8834C91.3184 21.8494 89.7472 19.0547 87.4311 17.6307C85.1154 16.2076 81.4887 15.8063 78.6068 18.1202C77.4241 19.0698 75.7935 19.3821 74.2422 18.9555C72.6918 18.5292 71.5889 17.4649 71.2923 16.1088C70.5681 12.8036 67.3557 11.3242 64.4932 11.3242C61.6306 11.3242 58.4182 12.8036 57.6941 16.1092C57.397 17.4653 56.294 18.5292 54.7437 18.9559C53.1923 19.3817 51.5617 19.0698 50.379 18.1202C47.4977 15.8063 43.8704 16.2068 41.5548 17.6307C39.2387 19.0543 37.6675 21.8494 39.3778 24.8834C40.0796 26.1287 39.9267 27.538 38.9685 28.6535C38.0103 29.7698 36.4726 30.328 34.8572 30.1484C30.9192 29.7071 28.2628 31.8375 27.3787 34.1415C26.4941 36.445 27.1644 39.4872 30.6556 41.0912C32.0881 41.7495 32.9433 42.966 32.9433 44.3453C32.9433 45.7246 32.0881 46.941 30.6556 47.5993C27.1644 49.2033 26.4941 52.2455 27.3787 54.5495C28.2633 56.853 30.9176 58.9821 34.8572 58.5421C36.4736 58.363 38.0103 58.9207 38.9685 60.037C39.9267 61.1529 40.0796 62.5627 39.3783 63.8075C37.668 66.8416 39.2397 69.6363 41.5553 71.0598C43.8714 72.4838 47.4977 72.8847 50.3795 70.5704C51.5628 69.6208 53.1938 69.3088 54.7442 69.7346C56.2946 70.1609 57.3975 71.2252 57.6946 72.5813C58.4187 75.8865 61.6312 77.3659 64.4937 77.3659C67.3562 77.3659 70.5687 75.8865 71.2928 72.5813C71.5899 71.2252 72.6928 70.1609 74.2427 69.7346C75.793 69.3088 77.4241 69.6203 78.6073 70.5704C81.4892 72.8843 85.116 72.4834 87.4316 71.0598C89.7477 69.6363 91.3189 66.8416 89.6086 63.8075C88.9068 62.5627 89.0601 61.1529 90.0184 60.037C90.9766 58.9211 92.5153 58.3634 94.1296 58.5421C98.0672 58.9817 100.724 56.853 101.608 54.5495C102.492 52.2459 101.821 49.2033 98.3303 47.5993V47.5993ZM99.192 53.8856C98.673 55.237 97.1247 56.7078 94.4592 56.4122C91.9039 56.1273 89.476 57.0107 87.9628 58.7742C86.4485 60.5376 86.2067 62.7651 87.3158 64.7322C88.4721 66.7836 87.2965 68.4868 85.9381 69.3217C84.5802 70.157 82.3022 70.5768 80.3542 69.0123C78.486 67.5123 75.9083 67.0182 73.4576 67.6919C71.0079 68.3657 69.2651 70.047 68.7954 72.1903C68.3058 74.4251 66.1715 75.2179 64.4927 75.2179C62.8138 75.2179 60.6795 74.4247 60.19 72.1903C59.7208 70.047 57.9779 68.3657 55.5278 67.6919C54.8062 67.4938 54.0739 67.3963 53.3513 67.3963C51.6212 67.3963 49.9494 67.9536 48.6312 69.0123C46.6827 70.5768 44.4051 70.1575 43.0472 69.3217C41.6888 68.4868 40.5133 66.784 41.6695 64.7322C42.7786 62.7647 42.5369 60.5376 41.0226 58.7742C39.5083 57.0112 37.0804 56.1282 34.5256 56.4122C31.8642 56.7078 30.3118 55.2366 29.7928 53.8856C29.2738 52.5343 29.5054 50.5719 31.8662 49.4873C34.1301 48.4475 35.4813 46.5251 35.4813 44.3457C35.4813 42.1659 34.1301 40.2439 31.8662 39.2036C29.5054 38.1191 29.2738 36.1563 29.7928 34.8053C30.3113 33.4544 31.8596 31.981 34.5256 32.2784C37.0784 32.5637 39.5083 31.6798 41.0226 29.9164C42.5364 28.1534 42.7786 25.9259 41.6695 23.9583C40.5133 21.907 41.6894 20.2037 43.0472 19.3688C44.4051 18.5335 46.6827 18.1141 48.6312 19.6786C50.4999 21.1787 53.0786 21.6724 55.5278 20.9991C57.9774 20.3253 59.7203 18.6435 60.19 16.5007C60.6795 14.2659 62.8138 13.4731 64.4927 13.4731C66.1715 13.4731 68.3058 14.2659 68.7954 16.5007C69.2646 18.6439 71.0079 20.3253 73.4576 20.9991C75.9083 21.6724 78.486 21.1787 80.3542 19.6786C82.3037 18.1141 84.5807 18.5339 85.9381 19.3693C87.2965 20.2041 88.4721 21.9074 87.3158 23.9587C86.2067 25.9263 86.4485 28.1534 87.9628 29.9168C89.4765 31.6802 91.9074 32.5632 94.4592 32.2788C97.1222 31.9827 98.673 33.4548 99.192 34.8058C99.711 36.1567 99.4789 38.1191 97.1186 39.2041C94.8548 40.2439 93.5035 42.1663 93.5035 44.3461C93.5035 46.5255 94.8548 48.4479 97.1186 49.4878C99.4789 50.5719 99.711 52.5347 99.192 53.8856V53.8856Z" fill="#005087"/>
<path d="M55.9294 73.9982C55.2728 73.7889 54.541 74.0691 54.2937 74.6247L45.2222 94.9837L41.798 89.4669C41.4989 88.9848 40.8215 88.7691 40.2197 88.9633L33.3434 91.1943L41.2744 73.3949C41.5217 72.8398 41.1901 72.2201 40.534 72.0109C39.8774 71.8012 39.1452 72.0822 38.8984 72.6374L29.9705 92.675C29.7943 93.0707 29.9086 93.5172 30.2635 93.8154C30.618 94.1136 31.1461 94.2085 31.6133 94.0569L40.0755 91.3116L44.2898 98.1011C44.5102 98.456 44.9444 98.6756 45.4136 98.6756C45.4395 98.6756 45.4659 98.6751 45.4918 98.6734C45.9905 98.6472 46.4252 98.3761 46.6019 97.9803L56.6708 75.3826C56.9166 74.8275 56.5855 74.2079 55.9294 73.9982V73.9982Z" fill="#005087"/>
<path d="M90.0865 72.6367C89.8392 72.0816 89.1069 71.801 88.4508 72.0102C87.7947 72.2195 87.4637 72.8391 87.7105 73.3943L95.6415 91.1936L88.7652 88.9627C88.1634 88.7676 87.486 88.9842 87.1869 89.4663L83.7627 94.983L74.6912 74.624C74.4439 74.0689 73.7116 73.7887 73.0555 73.9975C72.3994 74.2068 72.0683 74.8264 72.3151 75.3816L82.384 97.9792C82.5602 98.375 82.9949 98.6465 83.4941 98.6723C83.5205 98.6736 83.5464 98.6745 83.5723 98.6745C84.0415 98.6745 84.4757 98.4545 84.6961 98.1L88.9104 91.3105L97.3726 94.0558C97.8398 94.2074 98.3679 94.1125 98.7224 93.8143C99.0768 93.5161 99.1916 93.0696 99.0154 92.6739L90.0865 72.6367Z" fill="#005087"/>
<path d="M64.75 63.3415C62.8534 63.3415 61.3106 62.0357 61.3106 60.4312V59.7751C58.9676 59.36 57.0333 58.4968 55.5495 57.2013C54.2642 56.0793 53.3867 54.6837 52.9419 53.0539C52.691 52.1348 52.9459 51.1839 53.6406 50.4453C54.3368 49.7049 55.3763 49.2804 56.493 49.2804C58.1911 49.2804 59.6445 50.2455 60.0274 51.6273C60.2041 52.265 60.5316 52.7742 61.0288 53.1832C61.8271 53.8398 63.0001 54.1591 64.6155 54.1591C66.0013 54.1591 67.0611 53.8815 67.8563 53.31C68.5536 52.8094 68.8638 52.2164 68.8638 51.3872C68.8638 50.6421 68.6191 50.0925 68.093 49.6568C67.5887 49.2387 66.4223 48.5753 63.7288 47.7859C60.2325 46.8578 57.759 45.7153 56.2015 44.3033C54.5247 42.7831 53.6741 40.8302 53.6741 38.4995C53.6741 36.0546 54.6024 34.0179 56.4326 32.4461C57.7488 31.3152 59.4068 30.5366 61.3726 30.1249V29.2015C61.3726 27.5919 62.9199 26.2822 64.8227 26.2822C66.7249 26.2822 68.2722 27.5919 68.2722 29.2015V30.1494C70.3406 30.6178 72.0468 31.5231 73.3544 32.8479C74.4924 34.002 75.2592 35.4273 75.635 37.085C75.8386 37.9822 75.5593 38.9021 74.8687 39.6094C74.1735 40.3214 73.1493 40.7296 72.059 40.7296C70.3461 40.7296 68.8527 39.7095 68.5079 38.3036C68.3403 37.6217 68.0325 37.0725 67.5674 36.6257C66.9047 35.9897 66.012 35.6932 64.7597 35.6932C63.4201 35.6932 62.4568 35.9412 61.8149 36.4512C61.2081 36.9329 60.9252 37.5697 60.9252 38.4548C60.9252 39.5475 61.3497 40.0069 61.6686 40.257C62.1871 40.663 63.3515 41.3045 65.9536 42.0518C68.6074 42.814 70.5244 43.5484 71.8147 44.2969C73.2285 45.1172 74.3132 46.12 75.0388 47.2776C75.7665 48.4391 76.1352 49.8098 76.1352 51.3523C76.1352 53.8226 75.18 55.8675 73.296 57.4307C71.9432 58.553 70.2288 59.3226 68.1889 59.7248V60.4316C68.1895 62.0357 66.6467 63.3415 64.75 63.3415ZM56.493 51.4284C56.1548 51.4284 55.839 51.5573 55.6277 51.782C55.4175 52.0059 55.3403 52.2929 55.4159 52.5701C55.7552 53.8136 56.4138 54.8685 57.3725 55.7059C58.6756 56.8433 60.4839 57.5493 62.7472 57.8041C63.3779 57.875 63.8492 58.3305 63.8492 58.8689V60.4312C63.8492 60.8514 64.2529 61.193 64.7495 61.193C65.2462 61.193 65.6499 60.8514 65.6499 60.4312V58.8375C65.6499 58.3064 66.1084 57.8552 66.729 57.7753C68.711 57.5209 70.3223 56.8889 71.5187 55.8963C72.8974 54.7525 73.5961 53.2236 73.5961 51.3523C73.5961 50.1643 73.3265 49.1317 72.7953 48.2839C72.2636 47.4362 71.4506 46.6907 70.3786 46.0685C69.2828 45.433 67.5679 44.7846 65.137 44.0859C62.6741 43.3786 60.975 42.6417 59.9431 41.833C58.9097 41.0231 58.3861 39.8866 58.3861 38.4548C58.3861 36.9767 58.9549 35.7753 60.0772 34.8846C61.2116 33.9831 62.7432 33.5448 64.7597 33.5448C66.7386 33.5448 68.3245 34.1034 69.4722 35.2055C70.2263 35.93 70.7382 36.8255 70.9941 37.8675C71.0957 38.2812 71.5431 38.5816 72.059 38.5816C72.3896 38.5816 72.7004 38.4574 72.9116 38.2413C73.033 38.1171 73.2239 37.8546 73.1416 37.4906C72.8476 36.1943 72.2636 35.096 71.4054 34.2254C70.2776 33.0833 68.7227 32.358 66.7833 32.0705C66.176 31.9803 65.7332 31.5343 65.7332 31.0127V29.2015C65.7332 28.7766 65.3244 28.4307 64.8227 28.4307C64.3204 28.4307 63.9116 28.7766 63.9116 29.2015V31.0015C63.9116 31.5291 63.4592 31.9782 62.8437 32.062C60.9506 32.3198 59.4023 32.9557 58.2414 33.9534C56.8957 35.1093 56.2132 36.6386 56.2132 38.4991C56.2132 40.2681 56.8338 41.7273 58.0576 42.8372C59.3073 43.9703 61.4229 44.9216 64.5241 45.7458C67.1144 46.5046 68.8516 47.278 69.8693 48.1215C70.8865 48.9641 71.4029 50.0629 71.4029 51.3872C71.4029 52.8421 70.7625 54.04 69.4996 54.9475C68.226 55.8623 66.6284 56.3075 64.6155 56.3075C62.3064 56.3075 60.5535 55.7893 59.2581 54.7232C58.4146 54.0293 57.8418 53.1523 57.5549 52.1172C57.4447 51.718 56.9983 51.4284 56.493 51.4284V51.4284Z" fill="#A58BC9"/>
</svg>
