<svg width="227" height="227" viewBox="0 0 227 227" fill="none" xmlns="http://www.w3.org/2000/svg">
<path d="M18.9169 22.6919H68.1001V30.2587H18.9169V22.6919Z" fill="#29485A"/>
<path d="M18.9169 37.8257H68.1001V45.3925H18.9169V37.8257Z" fill="#29485A"/>
<path d="M18.9169 52.9585H52.9669V60.5253H18.9169V52.9585Z" fill="#29485A"/>
<path d="M18.9169 68.0918H52.9669V75.6586H18.9169V68.0918Z" fill="#29485A"/>
<path d="M0 219.426H227V226.993H0V219.426Z" fill="#29485A"/>
<path d="M15.4551 170.242L14.8118 162.675C93.8721 155.823 161.59 103.295 187.88 28.4195L196.96 2.52686L204.103 5.02386L195.023 30.9169C167.757 108.615 97.4925 163.133 15.4551 170.242Z" fill="#ED1C24"/>
<path d="M18.9169 185.375H45.4001V208.075H18.9169V185.375Z" fill="#ED1C24"/>
<path d="M60.5332 174.025H87.0164V208.075H60.5332V174.025Z" fill="#FBB03B"/>
<path d="M102.15 155.109H128.633V208.076H102.15V155.109Z" fill="#F8CF26"/>
<path d="M143.767 128.625H170.25V208.075H143.767V128.625Z" fill="#39B54A"/>
<path d="M185.383 75.6587H211.866V208.076H185.383V75.6587Z" fill="#0071BC"/>
<path d="M215.65 37.8256C214.209 37.8332 212.888 37.0236 212.245 35.7334L198.807 8.87159L171.941 22.3138C170.073 23.2484 167.799 22.488 166.864 20.6188C165.93 18.7501 166.69 16.4761 168.559 15.5415L198.826 0.408307C200.695 -0.526295 202.969 0.23052 203.903 2.09928V2.10327L219.036 32.3701C219.959 34.2428 219.188 36.5128 217.315 37.4359C216.797 37.6891 216.229 37.8256 215.65 37.8256Z" fill="#ED1C24"/>
</svg>
