<svg width="120" height="100" viewBox="0 0 120 100" fill="none" xmlns="http://www.w3.org/2000/svg">
<path d="M82.6106 79.4751C81.5075 80.4863 80.1525 81.2843 78.6405 81.8132C77.1285 82.3421 75.4959 82.5892 73.8573 82.5371C72.2186 82.485 70.6134 82.135 69.1541 81.5116C67.6949 80.8882 66.4168 80.0065 65.4093 78.9282L51.4087 63.3735C50.7777 62.6962 50.3152 61.9207 50.0481 61.0926C49.7811 60.2644 49.715 59.4002 49.8536 58.5505C49.9922 57.7008 50.3328 56.8827 50.8555 56.144C51.3781 55.4053 52.0723 54.7609 52.8975 54.2485C53.7055 53.7783 54.6169 53.4455 55.5794 53.269C56.542 53.0925 57.5368 53.0758 58.5071 53.2199C59.4774 53.364 60.4041 53.666 61.2342 54.1087C62.0643 54.5515 62.7816 55.1262 63.345 55.8001L73.125 66.6642C73.2924 66.8504 73.5076 67.0032 73.755 67.1113C74.0023 67.2193 74.2755 67.28 74.5545 67.2889C74.8336 67.2977 75.1115 67.2545 75.368 67.1623C75.6244 67.0702 75.853 66.9315 76.0369 66.7563L93.69 49.9423C94.0022 49.6501 94.1705 49.2705 94.1611 48.8793C94.1517 48.4882 93.9654 48.1144 93.6394 47.8329C88.0721 43.1826 80.8098 40.2038 72.9919 39.364C65.174 38.5242 57.2427 39.8709 50.4422 43.1927C43.6418 46.5146 38.357 51.6236 35.4169 57.7185C32.4768 63.8133 32.0477 70.549 34.197 76.869C36.3463 83.1889 40.9523 88.7355 47.2925 92.6387C53.6327 96.5418 61.3484 98.5806 69.2291 98.4353C77.1097 98.2899 84.7096 95.9687 90.8364 91.8356C96.9631 87.7025 101.27 81.9915 103.082 75.5985C104.245 71.6047 104.377 67.4507 103.47 63.411C103.399 63.1263 103.234 62.8637 102.993 62.6529C102.753 62.4421 102.446 62.2914 102.109 62.2179C101.771 62.1443 101.415 62.1508 101.082 62.2365C100.748 62.3223 100.45 62.4839 100.221 62.7032L82.6106 79.4751Z" fill="#C4A2FC"/>
<path d="M74.0044 79.4109C72.8877 79.3775 71.7942 79.1355 70.8047 78.7028C69.8153 78.2701 68.955 77.6577 68.2875 76.9109L54.1875 61.25C53.5908 60.5869 53.3346 59.7535 53.4752 58.933C53.6159 58.1125 54.1419 57.3722 54.9375 56.875C55.7332 56.3777 56.7333 56.1642 57.7178 56.2814C58.7024 56.3986 59.5908 56.8369 60.1875 57.5L74.2875 73.1656L110.625 38.5671C111.283 37.9539 112.205 37.5819 113.191 37.5317C114.177 37.4815 115.146 37.7573 115.889 38.2992C116.632 38.841 117.089 39.6053 117.16 40.426C117.231 41.2467 116.911 42.0576 116.269 42.6828L79.9313 77.2812C79.1975 77.9831 78.2841 78.5389 77.2583 78.9075C76.2326 79.2761 75.1206 79.4481 74.0044 79.4109V79.4109Z" fill="#C4A2FC"/>
<path d="M49.6875 1.5625C40.4165 1.5625 31.3537 3.85348 23.6452 8.14572C15.9366 12.438 9.92853 18.5387 6.38067 25.6764C2.83281 32.8142 1.90453 40.6683 3.71321 48.2457C5.52189 55.8231 9.9863 62.7834 16.5419 68.2464C23.0975 73.7093 31.4498 77.4297 40.5427 78.9369C49.6355 80.4442 59.0605 79.6706 67.6258 76.714C76.1911 73.7575 83.512 68.7508 88.6627 62.327C93.8133 55.9032 96.5625 48.3508 96.5625 40.625C96.5486 30.2685 91.6056 20.3396 82.8178 13.0164C74.03 5.6933 62.1153 1.57408 49.6875 1.5625V1.5625ZM49.6875 76.5625C41.1582 76.5625 32.8204 74.4548 25.7286 70.5059C18.6367 66.5571 13.1092 60.9444 9.84522 54.3777C6.58119 47.811 5.72717 40.5851 7.39116 33.6139C9.05514 26.6427 13.1624 20.2393 19.1935 15.2133C25.2247 10.1874 32.9088 6.76469 41.2743 5.37803C49.6397 3.99137 58.3107 4.70305 66.1907 7.42308C74.0708 10.1431 80.806 14.7493 85.5447 20.6592C90.2833 26.5691 92.8125 33.5172 92.8125 40.625C92.7996 50.1529 88.252 59.2875 80.1673 66.0248C72.0825 72.762 61.121 76.5517 49.6875 76.5625V76.5625Z" fill="#151A6A"/>
<path d="M51.5625 39.9781V21.875C51.5625 21.4606 51.365 21.0632 51.0133 20.7701C50.6617 20.4771 50.1848 20.3125 49.6875 20.3125C49.1902 20.3125 48.7133 20.4771 48.3617 20.7701C48.01 21.0632 47.8125 21.4606 47.8125 21.875V40.625C47.8126 41.0394 48.0102 41.4367 48.3619 41.7297L70.8619 60.4797C71.2155 60.7643 71.6891 60.9218 72.1808 60.9182C72.6724 60.9147 73.1426 60.7504 73.4903 60.4607C73.8379 60.171 74.0351 59.7791 74.0394 59.3694C74.0437 58.9597 73.8547 58.565 73.5131 58.2703L51.5625 39.9781Z" fill="#151A6A"/>
<path d="M17.8125 40.625C17.8125 40.2106 17.615 39.8132 17.2633 39.5201C16.9117 39.2271 16.4348 39.0625 15.9375 39.0625H12.1875C11.6902 39.0625 11.2133 39.2271 10.8617 39.5201C10.51 39.8132 10.3125 40.2106 10.3125 40.625C10.3125 41.0394 10.51 41.4368 10.8617 41.7299C11.2133 42.0229 11.6902 42.1875 12.1875 42.1875H15.9375C16.4348 42.1875 16.9117 42.0229 17.2633 41.7299C17.615 41.4368 17.8125 41.0394 17.8125 40.625Z" fill="#151A6A"/>
<path d="M81.5625 40.625C81.5625 41.0394 81.76 41.4368 82.1117 41.7299C82.4633 42.0229 82.9402 42.1875 83.4375 42.1875H87.1875C87.6848 42.1875 88.1617 42.0229 88.5133 41.7299C88.865 41.4368 89.0625 41.0394 89.0625 40.625C89.0625 40.2106 88.865 39.8132 88.5133 39.5201C88.1617 39.2271 87.6848 39.0625 87.1875 39.0625H83.4375C82.9402 39.0625 82.4633 39.2271 82.1117 39.5201C81.76 39.8132 81.5625 40.2106 81.5625 40.625Z" fill="#151A6A"/>
<path d="M49.6875 14.0625C50.1848 14.0625 50.6617 13.8979 51.0133 13.6049C51.365 13.3118 51.5625 12.9144 51.5625 12.5V9.375C51.5625 8.9606 51.365 8.56317 51.0133 8.27015C50.6617 7.97712 50.1848 7.8125 49.6875 7.8125C49.1902 7.8125 48.7133 7.97712 48.3617 8.27015C48.01 8.56317 47.8125 8.9606 47.8125 9.375V12.5C47.8125 12.9144 48.01 13.3118 48.3617 13.6049C48.7133 13.8979 49.1902 14.0625 49.6875 14.0625Z" fill="#151A6A"/>
<path d="M49.6875 67.1875C49.1902 67.1875 48.7133 67.3521 48.3617 67.6451C48.01 67.9382 47.8125 68.3356 47.8125 68.75V71.875C47.8125 72.2894 48.01 72.6868 48.3617 72.9799C48.7133 73.2729 49.1902 73.4375 49.6875 73.4375C50.1848 73.4375 50.6617 73.2729 51.0133 72.9799C51.365 72.6868 51.5625 72.2894 51.5625 71.875V68.75C51.5625 68.3356 51.365 67.9382 51.0133 67.6451C50.6617 67.3521 50.1848 67.1875 49.6875 67.1875Z" fill="#151A6A"/>
<path d="M21.3976 25.2092L18.1501 23.6467C17.9367 23.5425 17.7008 23.4744 17.4558 23.4465C17.2108 23.4186 16.9616 23.4314 16.7225 23.484C16.4835 23.5367 16.2593 23.6283 16.0628 23.7534C15.8664 23.8786 15.7016 24.0349 15.578 24.2134C15.4544 24.3918 15.3743 24.5889 15.3424 24.7932C15.3106 24.9976 15.3275 25.2052 15.3923 25.404C15.4571 25.6029 15.5684 25.7891 15.7199 25.952C15.8714 26.1148 16.0601 26.2511 16.2751 26.3529L19.5226 27.9154C19.7359 28.0197 19.9718 28.0877 20.2168 28.1156C20.4618 28.1435 20.711 28.1308 20.9501 28.0781C21.1891 28.0254 21.4133 27.9339 21.6098 27.8087C21.8062 27.6835 21.971 27.5272 22.0946 27.3488C22.2182 27.1703 22.2983 26.9732 22.3302 26.7689C22.3621 26.5645 22.3451 26.357 22.2803 26.1581C22.2155 25.9592 22.1042 25.773 21.9527 25.6102C21.8012 25.4473 21.6125 25.311 21.3976 25.2092Z" fill="#151A6A"/>
<path d="M83.1 54.8971L79.8525 53.3346C79.4221 53.1306 78.9123 53.0769 78.4345 53.185C77.9567 53.2931 77.5496 53.5543 77.302 53.9116C77.0544 54.2689 76.9865 54.6934 77.1131 55.0923C77.2396 55.4912 77.5504 55.8321 77.9775 56.0408L81.225 57.6033C81.4383 57.7075 81.6743 57.7756 81.9193 57.8035C82.1643 57.8314 82.4135 57.8186 82.6525 57.766C82.8916 57.7133 83.1158 57.6218 83.3122 57.4966C83.5087 57.3714 83.6734 57.2151 83.7971 57.0366C83.9207 56.8582 84.0008 56.6611 84.0327 56.4568C84.0645 56.2524 84.0476 56.0449 83.9828 55.846C83.918 55.6471 83.8067 55.4609 83.6551 55.298C83.5036 55.1352 83.315 54.9989 83.1 54.8971Z" fill="#151A6A"/>
<path d="M65.625 17.6221C66.0556 17.8293 66.5674 17.8854 67.0477 17.7782C67.528 17.6709 67.9376 17.409 68.1862 17.0502L70.0612 14.3439C70.1863 14.1662 70.2679 13.9695 70.3014 13.7654C70.3349 13.5612 70.3196 13.3536 70.2564 13.1543C70.1932 12.9551 70.0833 12.7683 69.9331 12.6046C69.7829 12.4409 69.5953 12.3036 69.3812 12.2006C69.167 12.0975 68.9306 12.0308 68.6853 12.0042C68.4401 11.9777 68.191 11.9918 67.9524 12.0458C67.7138 12.0998 67.4903 12.1926 67.2949 12.3188C67.0994 12.4451 66.9359 12.6023 66.8137 12.7814L64.9387 15.4877C64.6901 15.8466 64.6227 16.273 64.7514 16.6733C64.8801 17.0736 65.1943 17.4149 65.625 17.6221Z" fill="#151A6A"/>
<path d="M33.7501 63.6283C33.3195 63.4211 32.8077 63.3649 32.3274 63.4722C31.847 63.5794 31.4375 63.8413 31.1889 64.2002L29.3139 66.9064C29.1888 67.0842 29.1072 67.2808 29.0737 67.485C29.0402 67.6891 29.0555 67.8968 29.1187 68.096C29.1819 68.2952 29.2918 68.482 29.442 68.6457C29.5922 68.8094 29.7797 68.9467 29.9939 69.0498C30.208 69.1528 30.4445 69.2195 30.6897 69.2461C30.9349 69.2726 31.184 69.2585 31.4227 69.2045C31.6613 69.1505 31.8848 69.0578 32.0802 68.9315C32.2756 68.8052 32.4391 68.648 32.5614 68.4689L34.4364 65.7627C34.685 65.4038 34.7524 64.9773 34.6237 64.577C34.495 64.1768 34.1808 63.8355 33.7501 63.6283Z" fill="#151A6A"/>
<path d="M32.5614 12.7814C32.4391 12.6023 32.2756 12.4451 32.0802 12.3188C31.8848 12.1926 31.6613 12.0998 31.4227 12.0458C31.184 11.9918 30.9349 11.9777 30.6897 12.0042C30.4445 12.0308 30.208 12.0975 29.9939 12.2006C29.7797 12.3036 29.5922 12.4409 29.442 12.6046C29.2918 12.7683 29.1819 12.9551 29.1187 13.1543C29.0555 13.3536 29.0402 13.5612 29.0737 13.7654C29.1072 13.9695 29.1888 14.1662 29.3139 14.3439L31.1889 17.0502C31.3111 17.2293 31.4746 17.3865 31.67 17.5128C31.8655 17.639 32.0889 17.7318 32.3276 17.7858C32.5662 17.8398 32.8153 17.8539 33.0605 17.8274C33.3057 17.8008 33.5422 17.7341 33.7564 17.6311C33.9705 17.528 34.1581 17.3907 34.3083 17.227C34.4585 17.0633 34.5683 16.8765 34.6316 16.6773C34.6948 16.4781 34.71 16.2704 34.6766 16.0662C34.6431 15.8621 34.5614 15.6655 34.4364 15.4877L32.5614 12.7814Z" fill="#151A6A"/>
<path d="M68.1862 64.1999C68.064 64.0208 67.9005 63.8635 67.7051 63.7373C67.5096 63.611 67.2862 63.5182 67.0475 63.4643C66.8089 63.4103 66.5598 63.3961 66.3146 63.4227C66.0694 63.4493 65.8329 63.516 65.6188 63.619C65.4046 63.722 65.217 63.8594 65.0668 64.023C64.9166 64.1867 64.8068 64.3736 64.7436 64.5728C64.6804 64.772 64.6651 64.9797 64.6986 65.1838C64.7321 65.388 64.8137 65.5846 64.9387 65.7624L66.8137 68.4686C66.936 68.6478 67.0995 68.805 67.2949 68.9312C67.4903 69.0575 67.7138 69.1503 67.9524 69.2043C68.1911 69.2583 68.4402 69.2724 68.6854 69.2458C68.9306 69.2193 69.1671 69.1526 69.3812 69.0495C69.5954 68.9465 69.783 68.8092 69.9332 68.6455C70.0834 68.4818 70.1932 68.295 70.2564 68.0957C70.3196 67.8965 70.3349 67.6889 70.3014 67.4847C70.2679 67.2805 70.1863 67.0839 70.0612 66.9061L68.1862 64.1999Z" fill="#151A6A"/>
<path d="M77.2912 27.3439C77.5399 27.7028 77.9494 27.9647 78.4297 28.0719C78.9101 28.1791 79.4218 28.123 79.8525 27.9158L83.1 26.3533C83.5271 26.1446 83.8379 25.8036 83.9644 25.4048C84.091 25.0059 84.0231 24.5814 83.7755 24.2241C83.5279 23.8668 83.1208 23.6056 82.643 23.4975C82.1651 23.3894 81.6554 23.4431 81.225 23.6471L77.9775 25.2096C77.5469 25.4168 77.2326 25.758 77.1039 26.1583C76.9752 26.5586 77.0426 26.9851 77.2912 27.3439Z" fill="#151A6A"/>
<path d="M19.5226 53.3342L16.2751 54.8967C16.0601 54.9985 15.8714 55.1348 15.7199 55.2977C15.5684 55.4605 15.4571 55.6467 15.3923 55.8456C15.3275 56.0445 15.3106 56.252 15.3424 56.4564C15.3743 56.6607 15.4544 56.8578 15.578 57.0363C15.7016 57.2147 15.8664 57.371 16.0628 57.4962C16.2593 57.6214 16.4835 57.7129 16.7225 57.7656C16.9616 57.8183 17.2108 57.831 17.4558 57.8031C17.7008 57.7752 17.9367 57.7072 18.1501 57.6029L21.3976 56.0404C21.6125 55.9386 21.8012 55.8023 21.9527 55.6395C22.1042 55.4766 22.2155 55.2904 22.2803 55.0915C22.3451 54.8927 22.3621 54.6851 22.3302 54.4807C22.2983 54.2764 22.2182 54.0793 22.0946 53.9009C21.971 53.7224 21.8062 53.5661 21.6098 53.4409C21.4133 53.3158 21.1891 53.2242 20.9501 53.1715C20.711 53.1189 20.4618 53.1061 20.2168 53.134C19.9718 53.1619 19.7359 53.23 19.5226 53.3342V53.3342Z" fill="#151A6A"/>
</svg>
