<svg width="120" height="100" viewBox="0 0 120 100" fill="none" xmlns="http://www.w3.org/2000/svg">
<path d="M97.3848 87.0967L92.9041 75.8934C91.3383 71.9821 87.3435 69.095 82.4738 68.3563L69.539 66.395V65.5596C71.7899 64.4708 73.7487 63.0144 75.3087 61.2902H79.2164C82.4177 61.2902 85.0228 59.1192 85.0228 56.4515V37.0966C85.0228 25.5354 73.7351 16.1289 59.8615 16.1289C45.988 16.1289 34.7003 25.5354 34.7003 37.0966V48.387C34.7003 51.4967 37.3538 54.0983 40.8725 54.7047C41.9583 59.3402 45.4345 63.2628 50.1841 65.5596V66.395L37.2474 68.3563C32.3796 69.095 28.3828 71.9821 26.819 75.8934L26.0448 77.8305L19.4525 72.337C18.6977 71.7079 18.6977 70.6837 19.4525 70.0547L27.0977 63.6854L12.748 51.7273L4.108 58.9273C1.54929 61.0596 0.140259 63.895 0.140259 66.9112C0.140259 69.9273 1.54929 72.7612 4.108 74.8934L30.2661 96.6918C32.8248 98.8241 36.2274 99.9999 39.8467 99.9999C43.4661 99.9999 46.8667 98.8241 49.3654 96.7402L58.7932 89.5418L55.8532 87.0967H97.3848ZM81.1519 56.4515C81.1519 57.3418 80.2828 58.0644 79.2164 58.0644H77.5887C78.1499 56.9983 78.5757 55.8741 78.8506 54.7047C79.679 54.5612 80.4416 54.287 81.1519 53.9418V56.4515ZM79.2164 51.1644V45.6096C80.368 46.1692 81.1519 47.1983 81.1519 48.387C81.1519 49.5757 80.368 50.6047 79.2164 51.1644ZM40.5067 51.1644C39.3551 50.6047 38.5712 49.5757 38.5712 48.387C38.5712 47.1983 39.3551 46.1692 40.5067 45.6096V51.1644ZM40.5067 40.3225V42.1644C39.8177 42.3144 39.1712 42.5402 38.5712 42.8321V37.0966C38.5712 27.3144 48.1228 19.3547 59.8615 19.3547C71.6003 19.3547 81.1519 27.3144 81.1519 37.0966V42.8321C80.5519 42.5402 79.9054 42.3128 79.2164 42.1644V40.3225H77.2809C71.5577 40.3225 66.177 38.4644 62.128 35.0918L59.8615 33.2031L57.5951 35.0918C53.5461 38.4644 48.1654 40.3225 42.4422 40.3225H40.5067ZM44.3777 51.6128V43.487C50.1899 43.1225 55.6093 41.1241 59.8615 37.7547C64.1138 41.1241 69.5332 43.1241 75.3454 43.487V51.6128C75.3454 53.9644 74.5751 56.1644 73.2512 58.0644H59.8615V61.2902H70.0693C67.3403 63.2918 63.7732 64.516 59.8615 64.516C51.3241 64.516 44.3777 58.7273 44.3777 51.6128ZM65.668 66.9983V67.0741L59.8615 71.9128L54.0551 67.0741V66.9983C55.8899 67.4789 57.839 67.7418 59.8615 67.7418C61.8841 67.7418 63.8332 67.4789 65.668 66.9983ZM30.4886 76.9128C31.6054 74.1192 34.4603 72.0563 37.9383 71.5273L51.4674 69.4789L59.8615 76.4741L68.2538 69.4805L81.7809 71.5289C85.259 72.0579 88.1138 74.1192 89.2306 76.9144L92.0157 83.8708H51.9822L44.4435 77.5886L36.0667 83.9031C35.337 84.5144 34.0616 84.5144 33.3299 83.9031L29.1028 80.3805L30.4886 76.9128ZM12.7461 56.2886L21.6222 63.6854L19.5203 65.437L10.6441 58.0402L12.7461 56.2886ZM46.6848 94.4144C44.8577 95.9337 42.4267 96.7741 39.8428 96.7741C37.259 96.7741 34.828 95.9338 32.999 94.4112L6.8409 72.6144C5.01381 71.0918 4.00736 69.066 4.00736 66.9128C4.00736 64.7579 5.01381 62.7321 6.8409 61.2096L7.90542 60.3225L16.7815 67.7192L16.7119 67.7773C14.4493 69.6644 14.4493 72.7337 16.7119 74.6208L30.5912 86.187C31.6886 87.0999 33.1461 87.6047 34.6983 87.6047C36.2506 87.6047 37.708 87.1015 38.7338 86.2434L38.879 86.1354L47.7957 93.566L46.6848 94.4144ZM50.6525 91.3821L41.7551 83.9676L44.3119 82.0418L53.1938 89.4434L50.6525 91.3821Z" fill="#005087"/>
<path d="M114.055 0H86.9584C83.7571 0 81.152 2.17097 81.152 4.83871V17.7419C81.152 20.4097 83.7571 22.5806 86.9584 22.5806H92.1281L90.1268 32.3081L108.804 22.5806H114.055C117.256 22.5806 119.862 20.4097 119.862 17.7419V4.83871C119.862 2.17097 117.256 0 114.055 0ZM115.991 17.7419C115.991 18.6306 115.122 19.3548 114.055 19.3548H107.693L95.401 25.7565L96.7191 19.3548H86.9584C85.892 19.3548 85.0229 18.6306 85.0229 17.7419V4.83871C85.0229 3.95 85.892 3.22581 86.9584 3.22581H114.055C115.122 3.22581 115.991 3.95 115.991 4.83871V17.7419Z" fill="#005087"/>
<path d="M112.12 6.45166H88.8938V9.67747H112.12V6.45166Z" fill="#005087"/>
<path d="M104.378 12.9033H88.8938V16.1291H104.378V12.9033Z" fill="#005087"/>
<path d="M112.12 12.9033H108.249V16.1291H112.12V12.9033Z" fill="#005087"/>
<path d="M59.8616 4.83887C34.5726 4.83887 12.7887 19.4163 7.12552 39.7502L3.45778 34.655L0.138428 36.3147L6.94165 45.7614L18.2778 40.0921L16.2862 37.326L11.041 39.9485C16.5262 21.3469 36.5991 8.06467 59.8616 8.06467C64.9461 8.06467 69.9629 8.69371 74.7726 9.93564L75.9184 6.855C70.7371 5.51629 65.3352 4.83887 59.8616 4.83887Z" fill="#005087"/>
<path d="M118.921 35.7128L107.585 30.0435L100.784 39.4918L104.103 41.1515L107.49 36.4467C109.273 40.7935 110.184 45.3402 110.184 49.9999C110.184 59.5918 106.197 68.9693 98.9603 76.4031L101.966 78.4354C109.762 70.4289 114.055 60.3289 114.055 49.9999C114.055 45.066 113.101 40.2483 111.241 35.6354L116.929 38.4789L118.921 35.7128Z" fill="#005087"/>
</svg>
