<svg width="57" height="58" viewBox="0 0 57 58" fill="none" xmlns="http://www.w3.org/2000/svg">
<ellipse cx="27.6895" cy="29" rx="27.0176" ry="28" stroke="#FF8B00"/>
<path d="M19.2254 11L13.4913 16.5629V47H42.1289V11H19.2254ZM19.8178 13.4084V17.1376H15.9739L19.8178 13.4084ZM39.9546 44.8906H15.6656V19.247H21.9921V13.1094H39.9546V44.8906H39.9546Z" fill="#FF8B00"/>
<path d="M17.8398 32.0685C17.8398 37.402 22.3124 41.7411 27.81 41.7411C33.3076 41.7411 37.7802 37.402 37.7802 32.0685C37.7802 26.7351 33.3076 22.396 27.81 22.396C22.3124 22.396 17.8398 26.7351 17.8398 32.0685ZM20.8304 28.7022L24.2679 30.9901C24.1574 31.3307 24.0977 31.693 24.0977 32.0685C24.0977 32.4441 24.1575 32.8064 24.268 33.1471L20.8304 35.435C20.3085 34.4205 20.0141 33.2773 20.0141 32.0686C20.0141 30.8597 20.3084 29.7166 20.8304 28.7022V28.7022ZM29.3481 32.0685C29.3481 32.8913 28.6582 33.5607 27.81 33.5607C26.9619 33.5607 26.2719 32.8913 26.2719 32.0685C26.2719 31.2457 26.9619 30.5764 27.81 30.5764C28.6582 30.5764 29.3481 31.2457 29.3481 32.0685ZM27.81 39.6317C25.5373 39.6317 23.4889 38.6831 22.0626 37.1729L25.5002 34.8849C26.1347 35.3757 26.9373 35.67 27.81 35.67C28.6827 35.67 29.4854 35.3757 30.1198 34.8849L33.5575 37.1729C32.1312 38.6831 30.0827 39.6317 27.81 39.6317V39.6317ZM34.7897 35.4349L31.3522 33.147C31.4626 32.8063 31.5224 32.4441 31.5224 32.0685C31.5224 31.6929 31.4626 31.3307 31.3522 30.99L34.7898 28.7021C35.3118 29.7165 35.606 30.8597 35.606 32.0685C35.6059 33.2773 35.3117 34.4204 34.7897 35.4349ZM33.5575 26.9642L30.1199 29.2522C29.4855 28.7614 28.6827 28.467 27.8101 28.467C26.9374 28.467 26.1347 28.7614 25.5003 29.2522L22.0627 26.9642C23.4889 25.454 25.5374 24.5054 27.8102 24.5054C30.083 24.5054 32.1312 25.454 33.5575 26.9642V26.9642Z" fill="#FF8B00"/>
</svg>
