<svg width="250" height="250" viewBox="0 0 250 250" fill="none" xmlns="http://www.w3.org/2000/svg">
<path d="M89.8438 64.6484C99.6094 54.8828 111.328 50 125 50C138.672 50 150.391 54.8828 160.156 64.6484C169.922 74.4141 174.805 86.1328 174.805 99.8047C174.805 110.352 168.555 121.289 156.055 132.617C143.555 143.555 137.305 153.516 137.305 162.5H112.695C112.695 153.516 114.648 145.898 118.555 139.648C122.461 133.008 126.758 128.32 131.445 125.586C136.133 122.461 140.43 118.75 144.336 114.453C148.242 110.156 150.195 105.273 150.195 99.8047C150.195 93.1641 147.656 87.5 142.578 82.8125C137.5 77.7344 131.641 75.1953 125 75.1953C118.359 75.1953 112.5 77.7344 107.422 82.8125C102.344 87.5 99.8047 93.1641 99.8047 99.8047H75.1953C75.1953 86.1328 80.0781 74.4141 89.8438 64.6484ZM54.1016 195.898C74.0234 215.43 97.6562 225.195 125 225.195C152.344 225.195 175.781 215.43 195.312 195.898C215.234 175.977 225.195 152.344 225.195 125C225.195 97.6562 215.234 74.2187 195.312 54.6875C175.781 34.7656 152.344 24.8047 125 24.8047C97.6562 24.8047 74.0234 34.7656 54.1016 54.6875C34.5703 74.2187 24.8047 97.6562 24.8047 125C24.8047 152.344 34.5703 175.977 54.1016 195.898ZM36.5234 37.1094C61.1328 12.5 90.625 0.195312 125 0.195312C159.375 0.195312 188.672 12.5 212.891 37.1094C237.5 61.3281 249.805 90.625 249.805 125C249.805 159.375 237.5 188.867 212.891 213.477C188.672 237.695 159.375 249.805 125 249.805C90.625 249.805 61.1328 237.695 36.5234 213.477C12.3047 188.867 0.195312 159.375 0.195312 125C0.195312 90.625 12.3047 61.3281 36.5234 37.1094ZM112.695 200V174.805H137.305V200H112.695Z" fill="#FF8B00"/>
</svg>
