<svg width="430" height="479" viewBox="0 0 430 479" fill="none" xmlns="http://www.w3.org/2000/svg">
<path d="M393.868 202.112C445.082 106.312 426.844 0 426.844 0H0V479L65.7675 446.987C65.7675 446.987 342.654 297.912 393.868 202.112Z" fill="white"/>
<path d="M155.844 114.648C165.609 104.883 177.328 100 191 100C204.672 100 216.391 104.883 226.156 114.648C235.922 124.414 240.805 136.133 240.805 149.805C240.805 160.352 234.555 171.289 222.055 182.617C209.555 193.555 203.305 203.516 203.305 212.5H178.695C178.695 203.516 180.648 195.898 184.555 189.648C188.461 183.008 192.758 178.32 197.445 175.586C202.133 172.461 206.43 168.75 210.336 164.453C214.242 160.156 216.195 155.273 216.195 149.805C216.195 143.164 213.656 137.5 208.578 132.812C203.5 127.734 197.641 125.195 191 125.195C184.359 125.195 178.5 127.734 173.422 132.812C168.344 137.5 165.805 143.164 165.805 149.805H141.195C141.195 136.133 146.078 124.414 155.844 114.648ZM120.102 245.898C140.023 265.43 163.656 275.195 191 275.195C218.344 275.195 241.781 265.43 261.312 245.898C281.234 225.977 291.195 202.344 291.195 175C291.195 147.656 281.234 124.219 261.312 104.688C241.781 84.7656 218.344 74.8047 191 74.8047C163.656 74.8047 140.023 84.7656 120.102 104.688C100.57 124.219 90.8047 147.656 90.8047 175C90.8047 202.344 100.57 225.977 120.102 245.898ZM102.523 87.1094C127.133 62.5 156.625 50.1953 191 50.1953C225.375 50.1953 254.672 62.5 278.891 87.1094C303.5 111.328 315.805 140.625 315.805 175C315.805 209.375 303.5 238.867 278.891 263.477C254.672 287.695 225.375 299.805 191 299.805C156.625 299.805 127.133 287.695 102.523 263.477C78.3047 238.867 66.1953 209.375 66.1953 175C66.1953 140.625 78.3047 111.328 102.523 87.1094ZM178.695 250V224.805H203.305V250H178.695Z" fill="#FF8B00"/>
</svg>
