<svg width="350" height="350" viewBox="0 0 350 350" fill="none" xmlns="http://www.w3.org/2000/svg">
<circle cx="175" cy="175" r="174.25" stroke="#FF8B00" stroke-width="1.5"/>
<path d="M219.805 90H294.805V165L266.094 136.289L187.578 214.805L137.773 165L62.7734 240L45.1953 222.422L137.773 129.844L187.578 179.648L248.516 118.711L219.805 90Z" fill="#005087"/>
<path d="M260 169.102L297.5 185.898V210.898C297.5 222.487 293.919 233.099 286.758 242.734C279.596 252.24 270.677 258.294 260 260.898C249.323 258.294 240.404 252.24 233.242 242.734C226.081 233.099 222.5 222.487 222.5 210.898V185.898L260 169.102ZM260 215V252.305C267.682 249.831 274.193 245.208 279.531 238.438C284.87 231.536 288.06 223.724 289.102 215H260ZM260 215V178.281L230.898 191.172V215H260Z" fill="#FF8B00"/>
<path d="M152.602 71.5H169.398V117.398H152.602V71.5ZM102.602 117.398V84H119.398V117.398H102.602ZM127.602 117.398V50.6016H144.398V117.398H127.602Z" fill="#FF8B00"/>
<path d="M111.219 241.508C114.083 242.289 116.427 243.07 118.25 243.852C120.203 244.633 122.221 245.74 124.305 247.172C126.388 248.474 127.951 250.167 128.992 252.25C130.164 254.333 130.75 256.807 130.75 259.672C130.75 263.708 129.383 267.029 126.648 269.633C124.044 272.107 120.529 273.734 116.102 274.516V283.5H103.602V274.516C99.3047 273.604 95.724 271.781 92.8594 269.047C90.125 266.312 88.6276 262.797 88.3672 258.5H97.5469C98.0677 264.359 102.169 267.289 109.852 267.289C113.888 267.289 116.753 266.573 118.445 265.141C120.268 263.578 121.18 261.82 121.18 259.867C121.18 255.18 117.013 251.794 108.68 249.711C95.6589 246.716 89.1484 240.987 89.1484 232.523C89.1484 228.747 90.5156 225.557 93.25 222.953C95.9844 220.219 99.4349 218.396 103.602 217.484V208.5H116.102V217.68C120.398 218.721 123.654 220.674 125.867 223.539C128.211 226.404 129.448 229.724 129.578 233.5H120.398C120.138 227.641 116.622 224.711 109.852 224.711C106.466 224.711 103.732 225.427 101.648 226.859C99.6953 228.292 98.7188 230.18 98.7188 232.523C98.7188 236.299 102.885 239.294 111.219 241.508Z" fill="#FF8B00"/>
</svg>
