<svg width="120" height="223" viewBox="0 0 120 223" fill="none" xmlns="http://www.w3.org/2000/svg">
<path d="M39 157.7V149.6C39 142 39.7 135.5 41.1 130.1C42.7 124.5 45.3 119.2 48.9 114.2C52.7 109.2 57.8 104 64.2 98.6C72 92 78 86.5 82.2 82.1C86.6 77.7 89.7 73.4 91.5 69.2C93.3 65 94.2 59.9 94.2 53.9C94.2 44.3 91.1 36.9 84.9 31.7C78.7 26.5 69.7 23.9 57.9 23.9C48.1 23.9 39.4 25.2 31.8 27.8C24.2 30.2 16.9 33.1 9.9 36.5L0.6 15.5C8.6 11.3 17.4 7.79999 27 4.99999C36.8 2.19999 47.7 0.799989 59.7 0.799989C78.7 0.799989 93.4 5.49999 103.8 14.9C114.2 24.3 119.4 37.1 119.4 53.3C119.4 62.3 117.9 70 114.9 76.4C112.1 82.6 108 88.4 102.6 93.8C97.4 99 91.2 104.6 84 110.6C77.4 116.2 72.3 121.1 68.7 125.3C65.3 129.5 63 133.7 61.8 137.9C60.6 141.9 60 146.8 60 152.6V157.7H39ZM32.1 201.8C32.1 194.4 33.8 189.2 37.2 186.2C40.8 183.2 45.3 181.7 50.7 181.7C55.7 181.7 60 183.2 63.6 186.2C67.2 189.2 69 194.4 69 201.8C69 209 67.2 214.2 63.6 217.4C60 220.6 55.7 222.2 50.7 222.2C45.3 222.2 40.8 220.6 37.2 217.4C33.8 214.2 32.1 209 32.1 201.8Z" fill="#FF8B00"/>
</svg>
