<svg width="58" height="58" viewBox="0 0 58 58" fill="none" xmlns="http://www.w3.org/2000/svg">
<circle cx="29.396" cy="29" r="28" stroke="#FF8B00"/>
<g clip-path="url(#clip0)">
<path d="M28.1468 25.0625H27.5459V32.9375H26.5892C26.3465 32.5533 25.9878 32.2237 25.5281 32.0082L16.8169 27.9313C17.8445 27.3361 18.5325 26.2747 18.5325 25.0625C18.5325 23.2012 16.9155 21.6875 14.9271 21.6875C12.9388 21.6875 11.3218 23.2012 11.3218 25.0625C11.3218 26.1031 11.8277 27.0341 12.6209 27.6539C11.1499 28.2676 10.12 29.6474 10.12 31.25V35.75C10.12 36.8514 10.6067 37.847 11.3885 38.5625H10.12V46.4375H19.1334C20.4589 46.4375 21.5369 45.4284 21.5369 44.1875V38C21.5369 37.3644 21.302 36.7839 20.9204 36.3125H28.1468C29.8034 36.3125 31.1512 35.0508 31.1512 33.5V27.875C31.1512 26.3242 29.8034 25.0625 28.1468 25.0625ZM14.9271 22.8125C16.2527 22.8125 17.3307 23.8216 17.3307 25.0625C17.3307 26.3034 16.2527 27.3125 14.9271 27.3125C13.6016 27.3125 12.5236 26.3034 12.5236 25.0625C12.5236 23.8216 13.6016 22.8125 14.9271 22.8125ZM11.3218 39.6875H14.3262H15.528H16.7298V44.1875C16.7298 44.5992 16.8572 44.9801 17.0639 45.3125H11.3218V39.6875ZM20.3352 38V44.1875C20.3352 44.8079 19.7962 45.3125 19.1334 45.3125C18.4706 45.3125 17.9316 44.8079 17.9316 44.1875V39.6875C17.9316 39.0671 17.3926 38.5625 16.7298 38.5625H15.528H14.3262C12.6696 38.5625 11.3218 37.3008 11.3218 35.75V31.25C11.3218 29.6992 12.6696 28.4375 14.3262 28.4375H14.9271C15.1122 28.4375 15.2973 28.478 15.4619 28.5551L24.9903 33.0146C25.5912 33.2958 25.8892 33.9579 25.6537 34.4889C25.4632 34.9197 25.0365 35.1875 24.5408 35.1875C24.3563 35.1875 24.1713 35.147 24.0066 35.0699L14.3893 30.5688L13.8515 31.5751L16.7298 32.9223V36.3125H17.3307H18.5325C19.5264 36.3125 20.3352 37.0696 20.3352 38ZM21.57 35.1875H18.5325H17.9316V33.4848L21.57 35.1875ZM29.9494 33.5C29.9494 34.4304 29.1406 35.1875 28.1468 35.1875H26.6199C26.6728 35.1014 26.7226 35.0137 26.7641 34.9197C26.8873 34.6413 26.9408 34.3505 26.9354 34.0625H27.5459C28.2086 34.0625 28.7476 33.5579 28.7476 32.9375V26.2837C29.4471 26.516 29.9494 27.1415 29.9494 27.875V33.5Z" fill="#FF8B00"/>
<path d="M38.3619 28.4375C43.3319 28.4375 47.3753 24.6524 47.3753 20C47.3753 15.3476 43.3319 11.5625 38.3619 11.5625C33.3919 11.5625 29.3485 15.3476 29.3485 20C29.3485 24.6524 33.3919 28.4375 38.3619 28.4375ZM38.3619 12.9086C38.7489 13.2882 39.3678 13.9723 39.9464 14.9375H36.7767C37.356 13.9723 37.9749 13.2882 38.3619 12.9086ZM40.5287 16.0625C40.9487 17.0114 41.2666 18.1421 41.3417 19.4375H35.3821C35.4566 18.1421 35.7751 17.0114 36.1951 16.0625H40.5287ZM46.1428 19.4375H42.5435C42.4786 18.1618 42.2052 17.0345 41.8266 16.0625H44.9338C45.6123 17.0514 46.0419 18.2011 46.1428 19.4375ZM38.3619 27.0914C37.9749 26.7118 37.3566 26.0277 36.7773 25.0625H39.947C39.3672 26.0283 38.7489 26.7118 38.3619 27.0914ZM36.1951 23.9375C35.7751 22.9886 35.4572 21.8579 35.3821 20.5625H41.3417C41.2672 21.8579 40.9487 22.9886 40.5287 23.9375H36.1951ZM42.5441 20.5625H46.1434C46.0419 21.7989 45.6129 22.9486 44.9345 23.9375H41.8272C42.2058 22.9655 42.4792 21.8382 42.5441 20.5625ZM34.1797 19.4375H30.5803C30.6819 18.2011 31.1109 17.0514 31.7893 16.0625H34.8965C34.518 17.0345 34.2446 18.1618 34.1797 19.4375ZM34.1797 20.5625C34.2446 21.8382 34.518 22.9655 34.8965 23.9375H31.7893C31.1109 22.9486 30.6813 21.7989 30.5803 20.5625H34.1797ZM32.7381 25.0625H35.4067C35.8676 25.94 36.3832 26.6437 36.8344 27.1702C35.2409 26.8732 33.8234 26.1189 32.7381 25.0625ZM39.8894 27.1702C40.3406 26.6437 40.8562 25.94 41.3171 25.0625H43.9856C42.9004 26.1189 41.4829 26.8732 39.8894 27.1702ZM43.9856 14.9375H41.3171C40.8562 14.06 40.3406 13.3563 39.8894 12.8298C41.4829 13.1268 42.9004 13.8811 43.9856 14.9375ZM36.8344 12.8298C36.3832 13.3563 35.8682 14.06 35.4067 14.9375H32.7381C33.8234 13.8811 35.2409 13.1268 36.8344 12.8298Z" fill="#FF8B00"/>
<path d="M36.5592 17.1875H37.761V18.3125H36.5592V17.1875Z" fill="#FF8B00"/>
<path d="M38.9628 17.1875H40.1646V18.3125H38.9628V17.1875Z" fill="#FF8B00"/>
<path d="M36.5592 21.6875H37.761V22.8125H36.5592V21.6875Z" fill="#FF8B00"/>
<path d="M38.9628 21.6875H40.1646V22.8125H38.9628V21.6875Z" fill="#FF8B00"/>
<path d="M25.6229 24.2748L24.6615 23.5998L23.9404 24.4998V18.3123C23.9404 17.3819 24.7492 16.6248 25.7431 16.6248H26.344L25.3826 17.2998L26.1036 18.1998L29.1484 16.0623L26.1036 13.9248L25.3826 14.8248L26.344 15.4998H25.7431C24.0865 15.4998 22.7386 16.7615 22.7386 18.3123V24.4998L22.0176 23.5998L21.0562 24.2748L23.3395 27.125L25.6229 24.2748Z" fill="#FF8B00"/>
<path d="M27.1852 41.2627L28.1467 41.9377H25.7431C25.412 41.9377 25.1422 41.6857 25.1422 41.3752V39.6877L25.8633 40.5877L26.8247 39.9133L24.5413 37.0625L22.2579 39.9127L23.2194 40.5871L23.9404 39.6877V41.3752C23.9404 42.3056 24.7492 43.0627 25.7431 43.0627H28.1467L27.1852 43.7377L27.9063 44.6377L30.9504 42.5002L27.9063 40.3627L27.1852 41.2627Z" fill="#FF8B00"/>
<path d="M46.1735 38C46.1735 36.4492 44.8257 35.1875 43.169 35.1875H35.9583C34.3017 35.1875 32.9539 36.4492 32.9539 38V43.0625H31.7521V43.625C31.7521 45.1758 33.0999 46.4375 34.7565 46.4375H44.3708C46.0275 46.4375 47.3753 45.1758 47.3753 43.625V43.0625H46.1735V38ZM34.1556 38C34.1556 37.0696 34.9644 36.3125 35.9583 36.3125H43.169C44.1629 36.3125 44.9717 37.0696 44.9717 38V43.0625H34.1556V38ZM44.3708 45.3125H34.7565C33.973 45.3125 33.3048 44.8423 33.0566 44.1875H46.0701C45.8226 44.8423 45.1544 45.3125 44.3708 45.3125Z" fill="#FF8B00"/>
<path d="M39.5637 37.4375C38.5698 37.4375 37.761 38.1946 37.761 39.125C37.761 40.0554 38.5698 40.8125 39.5637 40.8125C40.5575 40.8125 41.3663 40.0554 41.3663 39.125C41.3663 38.1946 40.5575 37.4375 39.5637 37.4375ZM39.5637 39.6875C39.2326 39.6875 38.9628 39.4355 38.9628 39.125C38.9628 38.8145 39.2326 38.5625 39.5637 38.5625C39.8948 38.5625 40.1646 38.8145 40.1646 39.125C40.1646 39.4355 39.8948 39.6875 39.5637 39.6875Z" fill="#FF8B00"/>
</g>
<defs>
<clipPath id="clip0">
<rect width="38.4571" height="36" fill="white" transform="translate(9.51904 11)"/>
</clipPath>
</defs>
</svg>
