<svg width="58" height="58" viewBox="0 0 58 58" fill="none" xmlns="http://www.w3.org/2000/svg">
<circle cx="28.8423" cy="29" r="28" stroke="#FF8B00"/>
<path d="M29.2755 28.3828C30.3068 28.6641 31.1505 28.9453 31.8068 29.2266C32.5099 29.5078 33.2365 29.9062 33.9865 30.4219C34.7365 30.8906 35.299 31.5 35.674 32.25C36.0958 33 36.3068 33.8906 36.3068 34.9219C36.3068 36.375 35.8146 37.5703 34.8302 38.5078C33.8927 39.3984 32.6271 39.9844 31.0333 40.2656V43.5H26.5333V40.2656C24.9865 39.9375 23.6974 39.2812 22.6661 38.2969C21.6818 37.3125 21.1427 36.0469 21.049 34.5H24.3536C24.5411 36.6094 26.0177 37.6641 28.7833 37.6641C30.2365 37.6641 31.2677 37.4062 31.8771 36.8906C32.5333 36.3281 32.8615 35.6953 32.8615 34.9922C32.8615 33.3047 31.3615 32.0859 28.3615 31.3359C23.674 30.2578 21.3302 28.1953 21.3302 25.1484C21.3302 23.7891 21.8224 22.6406 22.8068 21.7031C23.7911 20.7188 25.0333 20.0625 26.5333 19.7344V16.5H31.0333V19.8047C32.5802 20.1797 33.7521 20.8828 34.549 21.9141C35.3927 22.9453 35.838 24.1406 35.8849 25.5H32.5802C32.4865 23.3906 31.2208 22.3359 28.7833 22.3359C27.5646 22.3359 26.5802 22.5938 25.8302 23.1094C25.1271 23.625 24.7755 24.3047 24.7755 25.1484C24.7755 26.5078 26.2755 27.5859 29.2755 28.3828Z" fill="#FF8B00"/>
</svg>
