<svg width="58" height="58" viewBox="0 0 58 58" fill="none" xmlns="http://www.w3.org/2000/svg">
<circle cx="28.8209" cy="29" r="28" stroke="#FF8B00"/>
<g clip-path="url(#clip0)">
<path d="M46.6458 25.8149H38.5428V21.9459H43.2317L42.8256 22.3261C42.3857 22.738 42.3858 23.4058 42.8258 23.8176C43.0458 24.0235 43.334 24.1265 43.6223 24.1265C43.9106 24.1265 44.1991 24.0235 44.419 23.8174L46.7284 21.6551C47.1683 21.2433 47.1683 20.5755 46.7284 20.1637L44.419 18.0015C43.9792 17.5895 43.2658 17.5895 42.8257 18.0013C42.3857 18.4131 42.3856 19.081 42.8255 19.4929L43.1925 19.8365H37.4161C36.7939 19.8365 36.2895 20.3087 36.2895 20.8912V25.8149H29.9134V16.6013L30.2994 16.9627C30.7392 17.3746 31.4527 17.3746 31.8927 16.9628C32.3328 16.551 32.3328 15.8832 31.8929 15.4713L29.5834 13.309C29.3722 13.1112 29.0856 13 28.7867 13C28.4879 13 28.2012 13.1112 27.99 13.309L25.6807 15.4713C25.2407 15.8832 25.2408 16.5511 25.6808 16.9629C25.9008 17.1688 26.1892 17.2717 26.4774 17.2717C26.7657 17.2717 27.0541 17.1687 27.2741 16.9627L27.6601 16.6013V25.8149H21.284V20.8912C21.284 20.3087 20.7795 19.8365 20.1573 19.8365H14.3809L14.7479 19.4929C15.1879 19.081 15.1878 18.4131 14.7478 18.0013C14.3079 17.5896 13.5945 17.5896 13.1545 18.0015L10.8451 20.1637C10.4052 20.5755 10.4052 21.2433 10.8451 21.6551L13.1545 23.8174C13.3745 24.0235 13.6628 24.1265 13.9512 24.1265C14.2394 24.1265 14.5278 24.0235 14.7477 23.8176C15.1877 23.4058 15.1878 22.738 14.7479 22.3261L14.3418 21.9459H19.0307V25.8149H10.9277C10.3055 25.8149 9.80103 26.2872 9.80103 26.8696V35.1325C9.80103 35.715 10.3055 36.1872 10.9277 36.1872H19.0307V40.0678H14.3419L14.7479 39.6876C15.1879 39.2757 15.1878 38.6079 14.7478 38.1961C14.3079 37.7843 13.5945 37.7843 13.1545 38.1962L10.8451 40.3585C10.4052 40.7703 10.4052 41.438 10.8451 41.8499L13.1545 44.0121C13.3745 44.2181 13.6628 44.3211 13.9512 44.3211C14.2394 44.3211 14.5278 44.2182 14.7477 44.0123C15.1877 43.6005 15.1878 42.9327 14.7479 42.5208L14.3809 42.1772H20.1573C20.7795 42.1772 21.2839 41.7049 21.2839 41.1225V36.1872H27.6601V45.3987L27.2741 45.0373C26.8343 44.6253 26.1208 44.6253 25.6807 45.0371C25.2407 45.4489 25.2406 46.1168 25.6806 46.5287L27.99 48.691C28.2012 48.8888 28.4879 49 28.7867 49C29.0856 49 29.3722 48.8888 29.5834 48.691L31.8928 46.5287C32.3328 46.1168 32.3327 45.449 31.8927 45.0372C31.4527 44.6254 30.7393 44.6254 30.2993 45.0373L29.9133 45.3987V36.1872H36.2894V41.1225C36.2894 41.7049 36.7939 42.1772 37.4161 42.1772H43.1924L42.8255 42.5208C42.3855 42.9327 42.3856 43.6005 42.8256 44.0123C43.0456 44.2182 43.334 44.3211 43.6222 44.3211C43.9105 44.3211 44.1989 44.2181 44.4189 44.0121L46.7282 41.8499C47.1681 41.438 47.1681 40.7703 46.7282 40.3585L44.4189 38.1962C43.979 37.7842 43.2656 37.7842 42.8255 38.1961C42.3855 38.6079 42.3855 39.2757 42.8254 39.6876L43.2314 40.0678H38.5426V36.1872H46.6456C47.2678 36.1872 47.7722 35.715 47.7722 35.1325V26.8696C47.7725 26.2872 47.268 25.8149 46.6458 25.8149V25.8149ZM45.5191 34.0779H12.0544V27.9243H45.519V34.0779H45.5191Z" fill="#FF8B00"/>
<path d="M14.6987 32.0748C15.3309 32.0725 15.8413 31.5907 15.8388 30.9988C15.8362 30.4068 15.3217 29.9289 14.6895 29.9313C14.0573 29.9336 13.5469 30.4154 13.5494 31.0073C13.5519 31.5993 14.0665 32.0772 14.6987 32.0748Z" fill="#FF8B00"/>
<path d="M18.6147 32.0763C19.2469 32.0739 19.7573 31.5921 19.7548 31.0002C19.7523 30.4083 19.2377 29.9304 18.6055 29.9327C17.9733 29.9351 17.4629 30.4169 17.4654 31.0088C17.4679 31.6007 17.9825 32.0787 18.6147 32.0763Z" fill="#FF8B00"/>
<path d="M22.5306 32.0773C23.1628 32.0749 23.6732 31.5931 23.6707 31.0012C23.6682 30.4093 23.1536 29.9313 22.5214 29.9337C21.8892 29.9361 21.3788 30.4178 21.3813 31.0098C21.3838 31.6017 21.8984 32.0796 22.5306 32.0773Z" fill="#FF8B00"/>
<path d="M42.8726 32.0727C43.5048 32.0727 44.0173 31.5929 44.0173 31.001C44.0173 30.4091 43.5048 29.9292 42.8726 29.9292C42.2404 29.9292 41.7279 30.4091 41.7279 31.001C41.7279 31.5929 42.2404 32.0727 42.8726 32.0727Z" fill="#FF8B00"/>
</g>
<defs>
<clipPath id="clip0">
<rect width="38.4571" height="36" fill="white" transform="translate(9.55823 13)"/>
</clipPath>
</defs>
</svg>
