<svg width="300" height="300" viewBox="0 0 300 300" fill="none" xmlns="http://www.w3.org/2000/svg">
<path d="M80.8079 125.891C80.8149 125.961 80.8149 126.026 80.8149 126.098C80.8149 126.15 80.8149 126.205 80.8238 126.257C80.8238 126.33 80.8238 126.401 80.8238 126.474C80.8397 126.67 80.8485 126.862 80.8573 127.055C80.8644 127.102 80.8732 127.15 80.8732 127.195C80.8732 127.233 80.882 127.272 80.882 127.31C80.8891 127.417 80.8979 127.525 80.9067 127.632C80.9226 127.82 80.9402 128.007 80.9649 128.198C80.9649 128.218 80.9738 128.239 80.9738 128.263C80.9738 128.3 80.9808 128.331 80.9896 128.367C80.9985 128.498 81.0144 128.628 81.0302 128.758C81.0638 128.941 81.0885 129.127 81.1202 129.313C81.1449 129.498 81.1873 129.682 81.2191 129.866C81.2438 130.013 81.2773 130.159 81.3002 130.303C81.3073 130.327 81.3073 130.348 81.3161 130.37C81.3161 130.384 81.3161 130.398 81.3232 130.412C81.3638 130.592 81.3973 130.773 81.4467 130.955C81.4714 131.062 81.4961 131.168 81.5279 131.274C81.5367 131.312 81.5438 131.352 81.5526 131.395C81.5614 131.43 81.5685 131.459 81.5773 131.492C81.6249 131.673 81.6744 131.851 81.7238 132.028C81.7485 132.104 81.7732 132.183 81.7979 132.259C81.8049 132.285 81.8049 132.307 81.8138 132.332C81.8226 132.354 81.8296 132.372 81.8296 132.391C81.8544 132.45 81.8702 132.505 81.8861 132.562C81.9444 132.741 82.0008 132.916 82.0591 133.093C82.0838 133.148 82.0996 133.2 82.1244 133.256C82.142 133.298 82.1491 133.339 82.1649 133.383C82.1985 133.461 82.2232 133.54 82.2549 133.618C82.322 133.794 82.3873 133.963 82.4614 134.135C82.4685 134.166 82.4861 134.194 82.4949 134.227C82.5108 134.27 82.5355 134.314 82.5532 134.357C82.6026 134.461 82.6343 134.567 82.6855 134.669C82.7667 134.844 82.8408 135.021 82.9238 135.195C82.9238 135.195 82.9238 135.196 82.9326 135.198C82.9326 135.217 82.9485 135.235 82.9573 135.252C83.0314 135.406 83.1055 135.559 83.1796 135.711C83.2379 135.822 83.3014 135.933 83.3596 136.044C83.3755 136.084 83.4002 136.128 83.4179 136.166C83.4338 136.187 83.4426 136.204 83.4514 136.223C83.5502 136.403 83.6491 136.584 83.7549 136.759C83.7885 136.82 83.8291 136.878 83.8696 136.939C83.8944 136.991 83.9279 137.043 83.9596 137.097C83.9932 137.158 84.0267 137.22 84.0744 137.281C84.182 137.454 84.2879 137.626 84.4044 137.799C84.4202 137.817 84.4291 137.834 84.4449 137.851C84.4608 137.888 84.4855 137.921 84.5102 137.952C84.5932 138.07 84.6743 138.189 84.7573 138.306C84.8314 138.413 84.9055 138.515 84.9779 138.618C85.0026 138.647 85.0273 138.675 85.0449 138.701C85.052 138.718 85.0696 138.736 85.0855 138.751C85.1261 138.81 85.1667 138.869 85.2179 138.93C85.292 139.036 85.3732 139.135 85.4561 139.237C85.5373 139.341 85.6202 139.441 85.7032 139.54L107.723 166.065C107.501 165.802 107.278 165.524 107.074 165.247C107.067 165.233 107.049 165.215 107.04 165.207C106.843 164.952 106.663 164.693 106.474 164.426C106.449 164.393 106.433 164.364 106.407 164.329C106.227 164.073 106.054 163.806 105.89 163.542C105.856 163.492 105.824 163.44 105.791 163.393C105.627 163.128 105.461 162.859 105.313 162.593C105.288 162.554 105.272 162.512 105.247 162.483C105.09 162.2 104.944 161.922 104.796 161.64C104.787 161.636 104.787 161.626 104.787 161.619C104.64 161.328 104.499 161.038 104.36 160.747C104.344 160.707 104.326 160.665 104.301 160.625C104.178 160.339 104.046 160.048 103.933 159.762C103.915 159.718 103.899 159.677 103.874 159.637C103.76 159.344 103.645 159.042 103.546 158.746C103.53 158.711 103.513 158.671 103.497 158.631C103.398 158.333 103.299 158.033 103.2 157.736C103.193 157.702 103.184 157.672 103.176 157.637C103.077 157.329 102.994 157.024 102.913 156.708C102.904 156.684 102.888 156.659 102.888 156.628C102.805 156.313 102.731 156 102.658 155.674C102.65 155.667 102.65 155.657 102.65 155.65C102.576 155.326 102.517 155.005 102.452 154.677C102.452 154.643 102.443 154.613 102.436 154.575C102.387 154.265 102.337 153.954 102.288 153.64C102.279 153.59 102.272 153.538 102.272 153.488C102.223 153.177 102.189 152.863 102.157 152.55C102.157 152.499 102.14 152.451 102.14 152.404C102.106 152.087 102.083 151.766 102.066 151.441C102.066 151.395 102.066 151.35 102.058 151.296C102.043 150.97 102.025 150.642 102.018 150.307C102.018 150.28 102.018 150.25 102.018 150.222C102.009 149.895 102.009 149.565 102.018 149.234C102.018 149.213 102.018 149.194 102.018 149.173C102.018 148.849 102.034 148.528 102.051 148.2C102.051 148.129 102.06 148.058 102.06 147.987C102.076 147.67 102.101 147.356 102.126 147.035C102.134 146.974 102.141 146.91 102.141 146.846C102.175 146.55 102.198 146.25 102.24 145.95C102.249 145.898 102.249 145.849 102.256 145.797C102.297 145.469 102.348 145.143 102.397 144.814C102.406 144.73 102.422 144.646 102.431 144.564C102.487 144.24 102.546 143.915 102.604 143.589C102.604 143.574 102.613 143.557 102.62 143.541C102.62 143.539 102.62 143.537 102.62 143.532C102.687 143.191 102.75 142.846 102.833 142.504C102.858 142.4 102.883 142.299 102.907 142.199C102.966 141.942 103.022 141.684 103.087 141.427C103.112 141.32 103.146 141.217 103.17 141.11C103.26 140.768 103.35 140.428 103.458 140.085C103.458 140.081 103.458 140.074 103.458 140.074C103.573 139.688 103.687 139.304 103.811 138.918C103.827 138.878 103.844 138.84 103.858 138.798C103.966 138.458 104.09 138.113 104.204 137.772C104.254 137.633 104.312 137.492 104.361 137.359C104.451 137.107 104.55 136.858 104.649 136.61C104.698 136.467 104.764 136.324 104.82 136.183C104.912 135.933 105.018 135.687 105.117 135.436C105.15 135.368 105.175 135.304 105.207 135.238C105.337 134.941 105.461 134.645 105.6 134.348C105.65 134.243 105.699 134.133 105.748 134.029C105.872 133.761 105.996 133.492 106.135 133.225C106.176 133.121 106.225 133.015 106.283 132.913C106.456 132.554 106.645 132.189 106.834 131.83C107.146 131.241 107.466 130.662 107.796 130.084C107.901 129.904 108.009 129.725 108.115 129.548C108.346 129.148 108.584 128.751 108.83 128.357C108.951 128.158 109.084 127.96 109.207 127.759C109.454 127.384 109.7 127.008 109.954 126.639C110.084 126.446 110.21 126.252 110.347 126.059C110.619 125.667 110.898 125.281 111.178 124.892C111.302 124.735 111.408 124.573 111.531 124.415C112.336 123.332 113.183 122.274 114.069 121.24C114.201 121.079 114.341 120.926 114.48 120.77C114.81 120.389 115.146 120.009 115.483 119.638C115.573 119.534 115.671 119.433 115.761 119.333C116.197 118.865 116.633 118.4 117.085 117.942C117.159 117.867 117.231 117.791 117.306 117.717C117.708 117.304 118.128 116.896 118.546 116.492C118.627 116.416 118.71 116.338 118.784 116.26C119.261 115.802 119.753 115.35 120.247 114.904C120.288 114.869 120.328 114.835 120.362 114.798C120.888 114.326 121.423 113.862 121.964 113.404C121.971 113.392 121.989 113.38 122.005 113.367C122.548 112.908 123.106 112.454 123.664 112.003C123.697 111.977 123.731 111.954 123.763 111.928C124.313 111.486 124.88 111.051 125.448 110.624C125.464 110.617 125.473 110.609 125.481 110.6C126.057 110.17 126.641 109.748 127.223 109.336C127.255 109.311 127.288 109.289 127.322 109.265C127.906 108.857 128.48 108.46 129.073 108.068C129.113 108.046 129.147 108.023 129.18 108.002C129.771 107.61 130.371 107.225 130.971 106.852C131.005 106.832 131.03 106.816 131.061 106.799C131.67 106.419 132.277 106.05 132.893 105.685C132.918 105.677 132.934 105.668 132.951 105.654C133.585 105.292 134.217 104.931 134.859 104.583C134.875 104.574 134.884 104.57 134.891 104.562C135.54 104.211 136.19 103.868 136.846 103.535C136.853 103.532 136.862 103.526 136.871 103.523C137.529 103.188 138.194 102.861 138.868 102.547C138.868 102.545 138.868 102.545 138.868 102.545C139.55 102.224 140.224 101.915 140.907 101.617C142.262 101.026 143.642 100.474 145.022 99.9629C145.04 99.9577 145.055 99.9507 145.063 99.9455C145.728 99.701 146.395 99.4704 147.058 99.2467C147.117 99.2293 147.173 99.2085 147.224 99.1912C147.897 98.9675 148.58 98.7542 149.261 98.5496C149.277 98.5426 149.301 98.5357 149.326 98.527C150 98.3293 150.665 98.1403 151.348 97.9617C151.407 97.9461 151.463 97.9288 151.528 97.9132C152.203 97.738 152.877 97.5698 153.551 97.4137C153.584 97.4085 153.609 97.4016 153.643 97.3929C154.301 97.2438 154.964 97.1033 155.63 96.975C155.72 96.9577 155.803 96.9386 155.901 96.9212C156.542 96.7981 157.183 96.6854 157.841 96.5814C157.931 96.5658 158.038 96.5484 158.135 96.5345C158.81 96.4305 159.484 96.3351 160.158 96.2519C160.174 96.2519 160.183 96.2501 160.198 96.2501C160.839 96.1721 161.48 96.1097 162.12 96.0542C162.275 96.0403 162.433 96.0265 162.597 96.0143C163.246 95.9623 163.903 95.9172 164.552 95.8877C168.463 95.7143 172.135 95.9588 175.521 96.5814C178.964 97.216 182.111 98.2409 184.929 99.6212C187.788 101.029 190.311 102.802 192.422 104.903C194.255 106.738 195.773 108.821 196.948 111.122L198.05 113.6L289.177 90.4808L283.032 53.6328L184.183 82.1501C184.01 81.7409 183.828 81.3282 183.639 80.9189C182.457 78.2345 180.74 75.8727 178.546 73.8819C176.402 71.9311 173.822 70.3322 170.847 69.1201C167.945 67.9305 164.66 67.112 161.07 66.6993C157.544 66.2918 153.692 66.2744 149.584 66.6837C149.067 66.734 148.541 66.7912 148.022 66.8554C147.858 66.8762 147.685 66.9022 147.521 66.9247C147.348 66.9438 147.184 66.9681 147.02 66.9941C146.831 67.0166 146.651 67.0409 146.469 67.0669C145.977 67.1397 145.475 67.216 144.983 67.301C144.974 67.301 144.965 67.3045 144.95 67.3062C144.943 67.308 144.925 67.308 144.916 67.3097C144.399 67.3964 143.882 67.49 143.363 67.5906C143.183 67.6236 142.994 67.6634 142.805 67.7016C142.707 67.7224 142.608 67.7415 142.502 67.7623C142.363 67.7935 142.214 67.8195 142.084 67.849C141.648 67.9392 141.221 68.0328 140.785 68.1317C140.679 68.1577 140.564 68.1854 140.45 68.2132C140.36 68.234 140.268 68.2548 140.171 68.2756C139.955 68.3293 139.726 68.3831 139.505 68.4369C139.078 68.5426 138.651 68.6536 138.224 68.7663C138.166 68.7802 138.117 68.7976 138.06 68.808C138.035 68.8184 138.002 68.827 137.97 68.834C137.714 68.9033 137.469 68.9692 137.215 69.0403C136.878 69.1357 136.55 69.2311 136.213 69.3299C136.089 69.3663 135.957 69.4062 135.835 69.4444C135.768 69.4634 135.695 69.4808 135.63 69.5033C135.489 69.545 135.35 69.5848 135.21 69.6299C134.88 69.7322 134.545 69.8363 134.217 69.9438C133.97 70.0184 133.74 70.0981 133.5 70.1762C133.467 70.1866 133.444 70.197 133.419 70.2022C133.385 70.2143 133.352 70.2247 133.329 70.2334C133.033 70.3322 132.729 70.4345 132.441 70.5369C132.145 70.6374 131.85 70.7397 131.561 70.8438C131.455 70.8819 131.356 70.9201 131.257 70.9548C131.224 70.9634 131.199 70.9739 131.176 70.9825C131.143 70.9947 131.109 71.0068 131.084 71.0189C130.952 71.0675 130.814 71.1143 130.673 71.1646C130.403 71.2652 130.131 71.3658 129.868 71.4715C129.597 71.5738 129.318 71.6779 129.055 71.7837C129.021 71.7958 128.997 71.8062 128.965 71.8184C128.94 71.8288 128.924 71.8357 128.9 71.8444C128.677 71.9311 128.464 72.0195 128.241 72.1045C127.978 72.2137 127.708 72.323 127.437 72.4357C127.198 72.5345 126.96 72.6351 126.722 72.7357C126.706 72.7409 126.688 72.7478 126.681 72.753C126.426 72.8623 126.171 72.9698 125.916 73.0808C125.661 73.19 125.414 73.3045 125.16 73.4155C124.954 73.5091 124.74 73.6028 124.535 73.6981C124.527 73.7016 124.518 73.7033 124.511 73.7068C124.47 73.7241 124.437 73.7397 124.405 73.7571C124.158 73.8681 123.911 73.9808 123.666 74.097C123.427 74.2097 123.182 74.3241 122.935 74.4421C122.737 74.5357 122.548 74.6311 122.351 74.7247C122.342 74.7282 122.333 74.7317 122.333 74.7351C122.293 74.7525 122.252 74.775 122.21 74.7941C121.963 74.9137 121.726 75.0334 121.486 75.1548C121.239 75.2744 121.003 75.3941 120.764 75.5155C120.576 75.6126 120.378 75.7114 120.189 75.812C120.189 75.812 120.18 75.8155 120.18 75.8207C120.14 75.8415 120.09 75.8623 120.048 75.8831C119.818 76.008 119.571 76.1345 119.342 76.2559C119.104 76.3843 118.864 76.5108 118.634 76.6374C118.454 76.7345 118.273 76.8334 118.093 76.9322C118.068 76.9444 118.043 76.9582 118.027 76.9704C117.987 76.9877 117.953 77.0068 117.92 77.0259C117.688 77.1559 117.45 77.286 117.221 77.4195C116.983 77.553 116.744 77.6831 116.515 77.8201C116.333 77.9224 116.16 78.023 115.989 78.127C115.964 78.1357 115.948 78.1478 115.933 78.1617C115.892 78.1825 115.85 78.2033 115.818 78.2259C115.58 78.3663 115.35 78.5051 115.112 78.6473C114.874 78.7877 114.643 78.9299 114.406 79.0721C114.251 79.1675 114.094 79.2629 113.946 79.3565C113.93 79.3686 113.905 79.379 113.887 79.3912C113.88 79.3981 113.863 79.4085 113.847 79.4155C113.797 79.4449 113.757 79.4744 113.707 79.5022C113.476 79.6478 113.247 79.7918 113.016 79.9392C112.777 80.09 112.532 80.2444 112.294 80.397C112.161 80.4819 112.031 80.5686 111.898 80.6554C111.874 80.671 111.84 80.69 111.816 80.7108C111.741 80.7594 111.66 80.8097 111.586 80.86C111.348 81.0143 111.118 81.1704 110.88 81.3282C110.649 81.486 110.411 81.6473 110.181 81.8051C110.09 81.8675 109.993 81.9317 109.91 81.9923C109.869 82.0166 109.836 82.0426 109.802 82.0652C109.687 82.1484 109.555 82.2334 109.44 82.3149C109.193 82.4883 108.946 82.6582 108.708 82.8334C108.463 83.0085 108.224 83.1819 107.986 83.3554C107.953 83.3779 107.928 83.397 107.896 83.4178C107.896 83.4195 107.887 83.423 107.887 83.423C107.674 83.5791 107.469 83.7317 107.263 83.8877C106.993 84.0837 106.737 84.2779 106.474 84.4756C106.327 84.5883 106.179 84.7027 106.031 84.8207C105.997 84.8432 105.966 84.8675 105.941 84.8883C105.86 84.9507 105.777 85.0114 105.694 85.0704C105.44 85.2715 105.184 85.4744 104.93 85.6773C104.674 85.8802 104.42 86.0831 104.164 86.2877C104.148 86.3033 104.132 86.3189 104.107 86.3311C104.1 86.3432 104.083 86.3588 104.067 86.3692C103.804 86.5808 103.55 86.7923 103.287 87.0074C102.999 87.2502 102.711 87.4912 102.424 87.7357C102.383 87.7704 102.35 87.8033 102.309 87.8345C102.276 87.8692 102.235 87.9022 102.194 87.9317C101.99 88.112 101.776 88.2941 101.563 88.4779C101.284 88.7241 101.005 88.9756 100.724 89.2288C100.675 89.2738 100.626 89.3172 100.576 89.3623C100.493 89.4351 100.412 89.5114 100.329 89.5843C100.1 89.7923 99.8685 90.0004 99.6461 90.212C99.399 90.4374 99.1626 90.6663 98.9226 90.8935C98.8732 90.9438 98.8238 90.9889 98.7673 91.0374C98.7514 91.06 98.7267 91.0773 98.7108 91.0999C98.6702 91.1363 98.6279 91.1727 98.5961 91.2126C98.2414 91.5455 97.8973 91.8854 97.562 92.2253C97.4473 92.3345 97.3485 92.4421 97.2408 92.5496C97.1332 92.6571 97.0361 92.7629 96.9285 92.8669C96.7979 92.9987 96.6655 93.127 96.542 93.2571C96.2949 93.5155 96.0567 93.7773 95.8096 94.0357C95.6543 94.197 95.4973 94.3617 95.3508 94.5212C94.8655 95.0519 94.3802 95.5843 93.9126 96.1253C93.4291 96.675 92.9579 97.2334 92.4991 97.7952C92.3579 97.9634 92.2361 98.1334 92.0949 98.3016C91.8743 98.5652 91.6591 98.834 91.4543 99.1062C91.3555 99.2276 91.2655 99.3542 91.1667 99.4773C91.0114 99.6819 90.8543 99.89 90.6973 100.093C90.4185 100.467 90.1396 100.842 89.8679 101.22C89.7214 101.426 89.5732 101.635 89.4249 101.843C89.3508 101.959 89.2591 102.072 89.1779 102.189C88.9802 102.472 88.8002 102.758 88.6114 103.043C88.4791 103.232 88.3485 103.417 88.2338 103.608C87.8473 104.194 87.4785 104.784 87.1167 105.378C86.9279 105.692 86.7391 106.006 86.5591 106.317C86.5344 106.369 86.5096 106.419 86.4761 106.469C86.4108 106.592 86.3367 106.714 86.2714 106.839C86.1885 106.976 86.1073 107.116 86.0332 107.255C85.9767 107.376 85.9185 107.487 85.8532 107.6C85.7879 107.72 85.7226 107.837 85.6644 107.957C85.6149 108.035 85.5744 108.117 85.5338 108.193C85.4261 108.41 85.3114 108.625 85.2055 108.84C85.1649 108.913 85.1226 108.987 85.0908 109.06C85.082 109.083 85.0661 109.107 85.0573 109.128C84.9514 109.343 84.8526 109.561 84.7449 109.776C84.6638 109.932 84.5896 110.09 84.5155 110.246C84.5085 110.26 84.4996 110.274 84.4908 110.288C84.3691 110.555 84.2526 110.818 84.1379 111.082C84.0902 111.193 84.032 111.302 83.9914 111.411C83.9826 111.424 83.9755 111.434 83.9755 111.446C83.852 111.729 83.7373 112.008 83.6226 112.287C83.5732 112.386 83.5326 112.487 83.492 112.585C83.492 112.589 83.492 112.592 83.492 112.598C83.3349 112.979 83.1885 113.362 83.0473 113.744V113.746C83.0402 113.747 83.0402 113.749 83.0402 113.752C82.9326 114.042 82.8338 114.33 82.7279 114.621C82.712 114.68 82.6961 114.736 82.6714 114.795C82.6644 114.833 82.6467 114.869 82.6379 114.907C82.6132 114.968 82.5973 115.029 82.5796 115.088C82.5302 115.223 82.4896 115.36 82.4385 115.495C82.3908 115.632 82.3573 115.769 82.3167 115.906C82.2832 116 82.2585 116.092 82.2267 116.184C82.2108 116.246 82.1861 116.307 82.1685 116.366C82.0873 116.657 82.0044 116.945 81.9302 117.233C81.8649 117.484 81.7996 117.73 81.7414 117.978C81.7167 118.077 81.692 118.173 81.6673 118.272C81.6514 118.35 81.6338 118.426 81.6091 118.506C81.602 118.577 81.5773 118.65 81.5702 118.721C81.512 118.967 81.4555 119.213 81.4044 119.458C81.4044 119.473 81.4044 119.491 81.3973 119.51C81.3885 119.551 81.3814 119.595 81.3726 119.64C81.3391 119.822 81.3073 120.007 81.2667 120.191C81.2491 120.32 81.2332 120.45 81.2085 120.578C81.1996 120.628 81.1926 120.678 81.1838 120.729C81.1749 120.77 81.1679 120.815 81.1591 120.857C81.1255 121.081 81.0938 121.301 81.0602 121.523C81.0602 121.582 81.0532 121.641 81.0444 121.703C81.0373 121.766 81.0285 121.832 81.0214 121.894C81.0126 121.991 80.9967 122.088 80.9808 122.182C80.9649 122.402 80.9402 122.621 80.9226 122.841C80.9226 122.848 80.9226 122.858 80.9138 122.87C80.9138 122.902 80.9138 122.931 80.9138 122.962C80.8979 123.129 80.8802 123.295 80.8732 123.463C80.8661 123.614 80.8573 123.767 80.8485 123.92C80.8485 123.942 80.8485 123.966 80.8396 123.991C80.8396 123.999 80.8396 124.01 80.8396 124.02C80.8396 124.039 80.8396 124.06 80.8396 124.081C80.8326 124.287 80.8238 124.49 80.8149 124.693C80.8149 124.8 80.8149 124.906 80.8061 125.012C80.8061 125.055 80.8061 125.102 80.8061 125.147C80.8061 125.199 80.8061 125.251 80.8061 125.302C80.7991 125.499 80.7991 125.695 80.8079 125.891Z" fill="#002B64"/>
<path d="M173.488 19.1936C184.802 17.189 195.648 16.2872 205.878 16.4485C216.632 16.6167 226.797 17.9589 236.121 20.4526C246.021 23.0988 255.051 27.0578 262.825 32.3156C271.131 37.9323 278.042 45.056 283.038 53.6381L184.154 82.1676C183.087 79.2734 181.426 76.7242 179.257 74.567C177.145 72.4583 174.533 70.7208 171.51 69.4011C168.551 68.1092 165.184 67.2127 161.476 66.7531C157.835 66.2988 153.859 66.2641 149.587 66.689C143.441 67.2976 137.213 68.7994 131.174 70.9878C125.201 73.1554 119.342 76.0185 113.887 79.4C108.424 82.7815 103.288 86.7196 98.7689 91.0462C94.2018 95.4248 90.2153 100.259 87.1183 105.391C83.9559 110.645 81.9989 115.759 81.203 120.536C80.3894 125.459 80.8165 130.05 82.4347 134.057C84.1112 138.198 87.0618 141.72 91.26 144.328C95.5977 147.021 101.243 148.726 108.102 149.101C110.264 149.222 112.482 149.206 114.741 149.061C117.009 148.913 119.326 148.632 121.659 148.227C124.001 147.822 126.367 147.285 128.734 146.636C131.118 145.983 133.498 145.206 135.867 144.323L163.703 233.577C154.41 237.217 145.045 240.205 135.718 242.499C126.524 244.761 117.42 246.328 108.507 247.175C99.7818 248.005 91.2847 248.144 83.1265 247.566C75.173 247.003 67.5724 245.772 60.4006 243.859C41.6665 238.868 27.863 229.806 18.72 218.328C10.38 207.875 5.95237 195.451 4.99767 182.187C4.1259 170.024 6.18179 157.07 10.8724 144.001C15.2277 131.86 21.9318 119.456 30.8788 107.196C39.3494 95.5895 49.26 84.9161 59.9736 75.3682C70.3994 66.0751 81.863 57.6127 93.833 50.2427C105.78 42.8867 118.532 36.441 131.621 31.2369C145.011 25.9063 159.117 21.7445 173.488 19.1936Z" fill="#005087"/>
<path d="M135.866 144.319L163.703 233.573C162.586 234.012 161.46 234.441 160.343 234.858C160.269 234.89 160.203 234.912 160.129 234.936C159.316 235.245 158.495 235.538 157.682 235.833C157.131 236.027 156.588 236.225 156.037 236.421C155.446 236.625 154.855 236.832 154.263 237.035C153.713 237.224 153.146 237.418 152.596 237.602C152.012 237.798 151.438 237.985 150.845 238.172C150.295 238.353 149.744 238.531 149.186 238.71C148.586 238.899 147.986 239.083 147.379 239.267C146.845 239.433 146.303 239.598 145.761 239.761C145.195 239.929 144.626 240.094 144.051 240.26C143.46 240.428 142.86 240.607 142.269 240.773C141.685 240.938 141.093 241.091 140.509 241.249C139.934 241.405 139.361 241.566 138.783 241.712C138.183 241.871 137.583 242.019 136.983 242.171C136.424 242.32 135.858 242.459 135.291 242.593C134.716 242.738 134.141 242.87 133.556 243.005C132.981 243.139 132.415 243.274 131.839 243.402C131.338 243.517 130.839 243.626 130.329 243.732C129.63 243.888 128.924 244.037 128.216 244.183C127.708 244.287 127.189 244.387 126.688 244.49C126.007 244.625 125.324 244.755 124.652 244.885C124.126 244.984 123.607 245.071 123.09 245.169C122.426 245.284 121.751 245.402 121.094 245.509C120.568 245.594 120.051 245.686 119.534 245.766C118.869 245.87 118.203 245.971 117.545 246.062C117.053 246.137 116.559 246.208 116.066 246.276C115.186 246.401 114.316 246.515 113.453 246.619C113.051 246.666 112.655 246.725 112.262 246.765C111.046 246.91 109.837 247.037 108.63 247.157C108.596 247.16 108.556 247.164 108.515 247.171C107.282 247.285 106.068 247.387 104.843 247.476C104.448 247.507 104.063 247.524 103.675 247.552C102.836 247.606 101.998 247.661 101.169 247.701C100.562 247.736 99.9529 247.758 99.3529 247.79C99.0723 247.797 98.7935 247.807 98.5146 247.817C97.5617 247.849 96.5999 247.878 95.6558 247.895C95.5482 247.899 95.4405 247.895 95.3346 247.899C94.4876 247.906 93.6423 247.916 92.7952 247.909C92.5005 247.906 92.2111 247.906 91.9164 247.906C91.2246 247.899 90.5276 247.888 89.8376 247.869C89.5588 247.866 89.287 247.859 89.0152 247.849C88.0782 247.824 87.1429 247.795 86.2217 247.743C86.1723 247.743 86.1229 247.739 86.0735 247.736C85.1946 247.696 84.3158 247.637 83.4441 247.583C83.1652 247.566 82.8935 247.543 82.6146 247.523C82.0305 247.478 81.4482 247.429 80.8552 247.382C80.4193 247.342 79.9764 247.301 79.5405 247.261C79.0235 247.207 78.5046 247.155 77.9964 247.098C77.5535 247.051 77.1246 246.999 76.6905 246.947C76.1735 246.89 75.6564 246.822 75.1464 246.751C74.7193 246.697 74.2994 246.64 73.8652 246.577C73.3552 246.503 72.8541 246.428 72.3529 246.349C71.9346 246.284 71.5076 246.217 71.0964 246.149C70.5793 246.064 70.0693 245.976 69.5593 245.879C69.157 245.813 68.7529 245.742 68.3593 245.667C67.8335 245.565 67.3252 245.461 66.8082 245.355C66.4217 245.279 66.0441 245.201 65.6576 245.119C65.0911 244.998 64.5158 244.862 63.9476 244.731C63.6352 244.66 63.3229 244.595 63.0105 244.517C62.1317 244.304 61.2617 244.086 60.3988 243.855C57.5558 243.097 54.8276 242.244 52.207 241.302C49.6093 240.373 47.137 239.357 44.7617 238.262C42.4199 237.179 40.1858 236.013 38.0576 234.777C35.9541 233.56 33.9564 232.273 32.0664 230.913L63.1076 253.122C65.0135 254.483 67.0023 255.78 69.0723 257.008C71.1829 258.255 73.3764 259.432 75.6617 260.534C77.9699 261.652 80.377 262.694 82.8758 263.657C85.4064 264.633 88.027 265.521 90.7393 266.329C91.5688 266.568 92.3911 266.804 93.2294 267.026C93.5082 267.101 93.7958 267.172 94.0835 267.246C94.567 267.378 95.0611 267.505 95.5535 267.631C95.6188 267.642 95.6841 267.659 95.7493 267.675C96.0952 267.76 96.4482 267.841 96.7941 267.923C97.2952 268.039 97.7964 268.158 98.2976 268.269C98.6752 268.354 99.0546 268.425 99.4323 268.507C99.7941 268.587 100.147 268.668 100.509 268.743C100.632 268.767 100.756 268.783 100.879 268.807C101.275 268.888 101.668 268.96 102.071 269.034C102.547 269.121 103.023 269.209 103.502 269.293C103.904 269.364 104.298 269.431 104.702 269.492C104.996 269.546 105.293 269.598 105.596 269.645C105.778 269.676 105.965 269.697 106.147 269.724C106.558 269.785 106.961 269.846 107.372 269.905C107.857 269.972 108.342 270.043 108.826 270.104C109.237 270.154 109.648 270.21 110.066 270.255C110.313 270.283 110.559 270.316 110.799 270.347C111.102 270.382 111.399 270.408 111.693 270.442C111.858 270.46 112.015 270.479 112.17 270.496C112.278 270.51 112.375 270.517 112.473 270.527C113.278 270.609 114.092 270.683 114.898 270.747C114.955 270.754 115.006 270.754 115.062 270.761H115.087C115.934 270.831 116.788 270.884 117.642 270.94C117.914 270.957 118.177 270.975 118.447 270.983C118.777 271.004 119.105 271.023 119.441 271.037C119.728 271.054 120.025 271.061 120.312 271.077C120.6 271.084 120.888 271.098 121.166 271.108C121.922 271.132 122.67 271.151 123.425 271.165C123.549 271.165 123.688 271.172 123.812 271.172L123.852 271.179C124.706 271.19 125.569 271.19 126.431 271.19C126.702 271.19 126.972 271.183 127.237 271.183C127.606 271.183 127.969 271.183 128.329 271.172C128.511 271.169 128.691 271.165 128.873 271.158C129.662 271.141 130.451 271.119 131.238 271.091C131.485 271.08 131.732 271.077 131.97 271.067C132.06 271.063 132.159 271.056 132.251 271.053C133.376 271.002 134.501 270.943 135.635 270.872C136.777 270.798 137.928 270.708 139.078 270.607C139.168 270.6 139.258 270.59 139.348 270.583C139.611 270.562 139.865 270.529 140.112 270.505C140.926 270.427 141.739 270.345 142.544 270.257C142.726 270.236 142.906 270.225 143.079 270.201C143.342 270.17 143.612 270.137 143.876 270.106C144.483 270.031 145.092 269.957 145.701 269.879C145.939 269.844 146.169 269.821 146.407 269.787C146.645 269.756 146.875 269.716 147.106 269.681C147.715 269.605 148.331 269.513 148.939 269.419C149.211 269.379 149.481 269.345 149.744 269.305C149.942 269.27 150.138 269.237 150.335 269.202C150.96 269.102 151.585 268.998 152.216 268.892C152.513 268.842 152.808 268.793 153.097 268.746C153.261 268.712 153.418 268.682 153.573 268.654C154.214 268.538 154.856 268.419 155.497 268.294C155.825 268.233 156.146 268.176 156.466 268.112C156.596 268.084 156.729 268.061 156.859 268.03C157.385 267.926 157.911 267.819 158.439 267.706C158.823 267.624 159.212 267.546 159.596 267.461C159.727 267.439 159.859 267.406 159.983 267.375C160.115 267.347 160.237 267.324 160.369 267.293C160.756 267.212 161.142 267.113 161.52 267.03C161.924 266.934 162.326 266.849 162.736 266.75C162.866 266.723 162.999 266.686 163.129 266.655C163.646 266.534 164.174 266.404 164.691 266.273C165.085 266.178 165.48 266.081 165.873 265.982C166.004 265.947 166.136 265.911 166.269 265.876C166.802 265.743 167.328 265.597 167.853 265.458C168.24 265.353 168.635 265.256 169.013 265.151C169.154 265.112 169.292 265.07 169.424 265.034C169.909 264.902 170.384 264.763 170.871 264.63C171.256 264.515 171.635 264.409 172.013 264.302C172.177 264.258 172.334 264.203 172.496 264.16C172.973 264.016 173.458 263.867 173.943 263.721C174.296 263.61 174.658 263.506 175.011 263.395C175.209 263.338 175.389 263.277 175.569 263.215C176.054 263.062 176.539 262.908 177.023 262.752C177.353 262.641 177.688 262.545 178.009 262.434C178.216 262.367 178.421 262.295 178.625 262.228C179.119 262.058 179.621 261.891 180.113 261.721C180.408 261.623 180.704 261.522 181.008 261.42C181.378 261.293 181.756 261.161 182.125 261.024C182.174 261.007 182.231 260.988 182.28 260.967C182.345 260.943 182.412 260.92 182.478 260.896C182.733 260.808 182.988 260.717 183.242 260.627C183.611 260.488 183.988 260.357 184.359 260.22C184.736 260.078 185.107 259.942 185.476 259.8L155.543 173.116L135.866 144.319Z" fill="#002B64"/>
<path d="M297.653 126.763C297.653 126.529 297.66 126.291 297.66 126.055C297.66 125.454 297.653 124.855 297.644 124.261C297.644 124.226 297.644 124.191 297.644 124.16C297.637 124.091 297.637 124.025 297.637 123.955C297.628 123.61 297.612 123.265 297.603 122.92C297.595 122.624 297.579 122.334 297.563 122.036C297.545 121.675 297.529 121.318 297.513 120.961C297.498 120.792 297.491 120.622 297.482 120.456C297.457 120.083 297.423 119.712 297.392 119.339C297.376 119.105 297.358 118.866 297.342 118.633C297.335 118.545 297.326 118.46 297.318 118.37C297.302 118.259 297.302 118.146 297.293 118.039C297.243 117.56 297.187 117.088 297.129 116.615C297.095 116.355 297.071 116.089 297.046 115.831C297.039 115.777 297.03 115.72 297.03 115.663C296.924 114.883 296.816 114.106 296.693 113.336L290.868 76.0369V76.0386V76.0369C291 76.8606 291.115 77.6895 291.212 78.5305C291.245 78.801 291.261 79.075 291.295 79.349C291.36 79.9161 291.416 80.4814 291.468 81.0571C291.492 81.3952 291.517 81.7386 291.542 82.0802C291.582 82.6091 291.616 83.1415 291.641 83.6791C291.656 84.038 291.674 84.4039 291.69 84.7646C291.706 85.4062 291.723 86.0461 291.73 86.6929C291.73 86.8022 291.731 86.9114 291.738 87.0207C291.746 87.86 291.73 88.708 291.704 89.5594C291.704 89.7033 291.704 89.8473 291.697 89.9929C291.672 90.8374 291.63 91.6871 291.582 92.5403C291.566 92.8039 291.549 93.0658 291.533 93.3276C291.517 93.5461 291.499 93.7594 291.483 93.9762C291.459 94.2952 291.434 94.6143 291.401 94.9351C291.385 95.1519 291.36 95.3738 291.342 95.5941C291.31 95.9426 291.268 96.2929 291.236 96.6432C291.212 96.8322 291.196 97.0212 291.169 97.212C291.113 97.7548 291.037 98.2975 290.973 98.8438C290.85 99.7299 290.718 100.62 290.569 101.513C290.536 101.759 290.488 102.01 290.448 102.258C290.324 102.964 290.201 103.67 290.061 104.383C290.021 104.591 289.987 104.799 289.938 105.005C289.765 105.909 289.569 106.812 289.362 107.715C289.331 107.852 289.297 107.991 289.265 108.126C289.083 108.909 288.895 109.692 288.69 110.476C288.632 110.702 288.575 110.93 288.517 111.156C288.288 112.033 288.04 112.913 287.786 113.792C287.771 113.837 287.753 113.884 287.746 113.93C287.467 114.876 287.179 115.821 286.874 116.767C286.809 116.96 286.743 117.156 286.685 117.348C286.422 118.139 286.152 118.933 285.872 119.724C285.813 119.901 285.757 120.078 285.69 120.251C285.355 121.198 285.009 122.141 284.647 123.085C284.598 123.198 284.548 123.31 284.508 123.419C284.186 124.261 283.842 125.098 283.496 125.937C283.406 126.166 283.308 126.399 283.209 126.628C282.42 128.509 281.573 130.391 280.678 132.269C280.563 132.515 280.44 132.765 280.323 133.011C279.955 133.772 279.577 134.528 279.191 135.289C279.083 135.491 278.993 135.697 278.887 135.902C278.393 136.85 277.901 137.799 277.382 138.746C277.274 138.938 277.168 139.134 277.061 139.33C276.633 140.112 276.198 140.891 275.755 141.667C275.613 141.91 275.474 142.151 275.335 142.394C274.226 144.315 273.067 146.23 271.851 148.137C271.687 148.398 271.523 148.658 271.35 148.918C271.038 149.4 270.725 149.884 270.406 150.362C270.224 150.64 270.037 150.922 269.855 151.195C269.534 151.68 269.215 152.159 268.886 152.634C268.689 152.917 268.5 153.198 268.302 153.48C267.972 153.959 267.637 154.444 267.291 154.923C267.102 155.195 266.913 155.476 266.716 155.75C266.37 156.225 266.024 156.699 265.68 157.172C265.473 157.462 265.253 157.753 265.048 158.043C264.711 158.495 264.374 158.946 264.028 159.4C263.79 159.714 263.552 160.019 263.322 160.335C262.985 160.763 262.657 161.199 262.32 161.629C262.064 161.95 261.819 162.265 261.565 162.588C261.235 163.009 260.899 163.427 260.553 163.852C260.291 164.178 260.028 164.516 259.756 164.84C259.428 165.244 259.098 165.647 258.762 166.049C258.459 166.424 258.138 166.802 257.825 167.18C257.628 167.412 257.432 167.646 257.225 167.88C256.832 168.343 256.436 168.803 256.043 169.266C255.87 169.463 255.699 169.666 255.517 169.867C254.935 170.542 254.343 171.204 253.752 171.869C253.685 171.936 253.629 172.007 253.563 172.075C253.062 172.632 252.561 173.19 252.053 173.736C251.133 174.739 250.195 175.737 249.243 176.731C249.071 176.917 248.891 177.1 248.718 177.281C247.772 178.257 246.819 179.237 245.85 180.206C245.801 180.25 245.751 180.298 245.709 180.348C244.805 181.247 243.886 182.145 242.965 183.033C242.801 183.189 242.635 183.347 242.463 183.508C241.691 184.252 240.902 184.992 240.106 185.729C239.926 185.903 239.744 186.066 239.564 186.236C238.611 187.111 237.651 187.985 236.689 188.842C235.729 189.7 234.759 190.543 233.788 191.382C233.557 191.58 233.328 191.774 233.098 191.97C232.406 192.565 231.709 193.156 231.002 193.746C230.763 193.94 230.525 194.141 230.287 194.343C229.465 195.015 228.644 195.687 227.822 196.352C227.707 196.441 227.599 196.533 227.493 196.618C226.556 197.369 225.603 198.121 224.651 198.863C224.412 199.044 224.174 199.226 223.936 199.41C223.23 199.956 222.522 200.5 221.808 201.034C221.463 201.291 221.118 201.551 220.781 201.804C220.189 202.243 219.589 202.685 218.996 203.122C218.652 203.372 218.313 203.622 217.969 203.868C217.32 204.34 216.662 204.804 216.014 205.267C215.719 205.476 215.43 205.685 215.135 205.892C214.189 206.549 213.254 207.204 212.301 207.85C212.301 207.85 212.294 207.856 212.285 207.86C211.299 208.533 210.314 209.197 209.31 209.858C209.105 209.996 208.892 210.128 208.678 210.27C207.921 210.763 207.166 211.255 206.402 211.75C206.146 211.913 205.899 212.067 205.645 212.228C204.914 212.695 204.183 213.151 203.451 213.607C203.188 213.771 202.909 213.936 202.646 214.106C201.923 214.548 201.192 214.994 200.462 215.429C200.19 215.592 199.92 215.757 199.648 215.917C198.9 216.362 198.152 216.804 197.405 217.24C197.149 217.385 196.902 217.534 196.648 217.682C195.835 218.152 195.014 218.622 194.192 219.081C194.028 219.173 193.863 219.265 193.699 219.357C192.697 219.921 191.686 220.472 190.676 221.018C189.656 221.571 188.638 222.116 187.611 222.648C187.438 222.74 187.267 222.825 187.094 222.915C186.273 223.351 185.442 223.772 184.613 224.188C183.833 224.585 183.06 224.977 182.28 225.359C182.098 225.447 181.927 225.529 181.754 225.619C181.073 225.948 180.39 226.281 179.707 226.607C179.46 226.722 179.215 226.838 178.968 226.959C178.129 227.355 177.282 227.748 176.437 228.144L196.814 255.121C197.405 254.858 198.005 254.587 198.588 254.317C198.752 254.239 198.918 254.167 199.073 254.091C199.286 253.989 199.5 253.892 199.705 253.796C199.927 253.691 200.141 253.592 200.363 253.489C200.749 253.304 201.143 253.117 201.529 252.933C201.685 252.851 201.842 252.777 202.006 252.702C202.046 252.681 202.08 252.666 202.121 252.645C202.705 252.362 203.287 252.071 203.88 251.785C203.945 251.75 204.011 251.714 204.085 251.679C204.791 251.325 205.498 250.966 206.204 250.606C206.361 250.524 206.516 250.449 206.673 250.368C206.689 250.354 206.723 250.337 206.739 250.332C208.539 249.4 210.33 248.438 212.103 247.453C212.137 247.432 212.169 247.418 212.202 247.403C212.335 247.328 212.458 247.254 212.598 247.179C213.303 246.784 214.011 246.386 214.708 245.981C214.789 245.937 214.856 245.899 214.929 245.856C215.093 245.766 215.25 245.669 215.407 245.573C216.063 245.195 216.713 244.81 217.362 244.429C217.468 244.365 217.576 244.304 217.683 244.24C217.83 244.149 217.971 244.061 218.111 243.981C218.735 243.603 219.36 243.222 219.985 242.844C220.124 242.748 220.272 242.663 220.412 242.577C220.526 242.507 220.641 242.433 220.758 242.358C221.391 241.973 222.007 241.578 222.632 241.179C222.789 241.073 222.953 240.98 223.115 240.874C223.189 240.825 223.272 240.777 223.346 240.723C224.028 240.284 224.711 239.837 225.383 239.391C225.515 239.306 225.655 239.214 225.785 239.129C225.819 239.105 225.859 239.082 225.9 239.051C226.77 238.47 227.651 237.886 228.505 237.288C228.513 237.284 228.513 237.284 228.522 237.277C228.547 237.263 228.563 237.246 228.588 237.23C229.401 236.667 230.215 236.1 231.019 235.529C231.086 235.482 231.152 235.434 231.217 235.391C231.413 235.247 231.611 235.101 231.808 234.959C232.368 234.555 232.934 234.152 233.493 233.743C233.615 233.646 233.748 233.552 233.88 233.46C234.069 233.322 234.258 233.18 234.438 233.036C234.709 232.84 234.979 232.642 235.242 232.444C235.498 232.255 235.736 232.065 235.991 231.877C236.155 231.745 236.335 231.621 236.501 231.491C236.622 231.393 236.748 231.3 236.869 231.201C237.51 230.708 238.151 230.216 238.775 229.717C238.931 229.595 239.088 229.482 239.236 229.361C239.285 229.321 239.326 229.283 239.375 229.247C240.213 228.586 241.043 227.913 241.874 227.239C241.89 227.221 241.908 227.204 241.932 227.192C242.022 227.114 242.105 227.036 242.195 226.966C242.91 226.375 243.625 225.777 244.331 225.18C244.412 225.116 244.486 225.048 244.569 224.977C244.701 224.866 244.823 224.752 244.964 224.644C245.573 224.117 246.18 223.588 246.787 223.054C246.911 222.945 247.043 222.841 247.165 222.728C247.239 222.66 247.322 222.581 247.403 222.513C249.12 220.989 250.796 219.442 252.446 217.873C252.513 217.808 252.579 217.744 252.644 217.687C252.75 217.586 252.84 217.486 252.948 217.391C253.646 216.721 254.328 216.054 255.009 215.376C255.099 215.284 255.198 215.193 255.288 215.102C255.337 215.058 255.379 215.006 255.429 214.959C256.233 214.16 257.031 213.348 257.818 212.537C257.836 212.519 257.852 212.502 257.868 212.486V212.483V212.486C257.901 212.443 257.942 212.402 257.982 212.362C258.821 211.491 259.641 210.608 260.463 209.724C260.553 209.625 260.652 209.528 260.742 209.422C260.809 209.358 260.866 209.289 260.924 209.225C261.753 208.325 262.567 207.411 263.373 206.5C263.43 206.44 263.479 206.379 263.538 206.323C263.636 206.202 263.742 206.079 263.841 205.959C264.54 205.158 265.23 204.35 265.911 203.544C266.01 203.422 266.116 203.299 266.223 203.18C266.264 203.126 266.305 203.07 266.347 203.02C266.421 202.939 266.488 202.86 266.545 202.782C267.243 201.947 267.916 201.104 268.583 200.261C268.657 200.176 268.731 200.088 268.796 199.997C268.953 199.814 269.093 199.623 269.241 199.434C269.536 199.063 269.825 198.692 270.113 198.315C270.351 198.015 270.572 197.717 270.803 197.417C271.106 197.022 271.403 196.626 271.699 196.231C271.798 196.096 271.904 195.966 272.003 195.83C272.111 195.678 272.223 195.525 272.34 195.371C272.635 194.962 272.94 194.556 273.228 194.148C273.432 193.867 273.637 193.588 273.835 193.304C274.129 192.886 274.426 192.471 274.713 192.048C274.821 191.903 274.929 191.761 275.026 191.611C275.118 191.485 275.199 191.35 275.289 191.219C275.585 190.791 275.88 190.366 276.169 189.933C276.351 189.671 276.522 189.402 276.704 189.137C276.999 188.695 277.295 188.244 277.583 187.796C277.682 187.652 277.772 187.503 277.871 187.358C277.936 187.252 278.003 187.144 278.075 187.04C278.363 186.586 278.651 186.135 278.929 185.682C279.086 185.424 279.25 185.166 279.408 184.914C279.679 184.463 279.958 184.014 280.23 183.567C280.327 183.397 280.426 183.237 280.533 183.071C280.574 182.996 280.623 182.915 280.666 182.837C281.726 181.054 282.736 179.261 283.705 177.454C283.819 177.237 283.936 177.019 284.051 176.806C284.446 176.062 284.831 175.325 285.201 174.581C285.291 174.4 285.383 174.227 285.473 174.047C285.916 173.159 286.352 172.267 286.772 171.373C286.796 171.319 286.828 171.267 286.853 171.213C286.918 171.074 286.976 170.934 287.042 170.795C287.246 170.353 287.451 169.914 287.658 169.467C287.781 169.195 287.896 168.914 288.026 168.636C288.125 168.406 288.231 168.177 288.323 167.95C289.103 166.167 289.842 164.381 290.525 162.588C290.608 162.374 290.689 162.156 290.772 161.943C291.067 161.152 291.356 160.366 291.635 159.576C291.66 159.487 291.702 159.4 291.725 159.307C291.734 159.279 291.75 159.246 291.759 159.218C292.071 158.322 292.366 157.425 292.653 156.527C292.712 156.354 292.768 156.178 292.818 156.01C293.056 155.256 293.287 154.507 293.509 153.761C293.566 153.565 293.624 153.371 293.682 153.173C293.936 152.273 294.183 151.37 294.42 150.468C294.429 150.428 294.438 150.381 294.453 150.34C294.667 149.495 294.872 148.651 295.069 147.808C295.094 147.702 295.128 147.595 295.152 147.487C295.177 147.369 295.202 147.251 295.226 147.128C295.399 146.386 295.555 145.639 295.703 144.893C295.736 144.752 295.77 144.612 295.795 144.473C295.968 143.599 296.123 142.729 296.278 141.855C296.312 141.654 296.345 141.449 296.377 141.246C296.492 140.563 296.598 139.881 296.688 139.198C296.728 138.954 296.762 138.706 296.795 138.459C296.919 137.596 297.025 136.73 297.123 135.869C297.222 134.929 297.305 133.999 297.379 133.073C297.386 132.967 297.395 132.863 297.404 132.759C297.413 132.681 297.422 132.605 297.422 132.527C297.478 131.733 297.528 130.944 297.561 130.158C297.57 130.073 297.577 129.987 297.577 129.902C297.586 129.83 297.586 129.761 297.586 129.69C297.593 129.546 297.602 129.4 297.61 129.253C297.635 128.566 297.644 127.883 297.651 127.203C297.653 127.059 297.653 126.912 297.653 126.763Z" fill="#DB5C1E"/>
<path d="M285.994 59.4348C287.203 62.1383 288.237 64.9614 289.082 67.9059C289.936 70.9111 290.603 74.0394 291.055 77.2891C291.507 80.603 291.745 84.04 291.745 87.5984C291.736 91.2244 291.482 94.977 290.972 98.8441C289.444 110.341 285.698 122.119 279.897 133.885C273.867 146.135 265.691 158.19 255.675 169.693C245.395 181.498 233.342 192.529 219.934 202.432C206.418 212.431 191.752 221.102 176.436 228.148L144.295 140.683C148.756 138.484 153.08 135.924 157.137 133.067C161.189 130.216 164.96 127.086 168.36 123.744C171.729 120.427 174.712 116.919 177.209 113.291C179.681 109.706 181.67 106.023 183.092 102.307C183.585 101.027 183.996 99.7701 184.342 98.5371C184.679 97.3094 184.942 96.1111 185.13 94.9371C185.319 93.7718 185.443 92.6308 185.492 91.5209C185.55 90.4163 185.533 89.3429 185.452 88.3007L285.994 59.4348Z" fill="#F7941E"/>
<path d="M218.308 42.3046L238.744 35.7705L214.991 59.7132L185.552 52.7733L199.043 48.4624C196.043 47.2173 192.849 46.2011 189.487 45.4207C186.191 44.6543 182.725 44.1098 179.118 43.7924C175.585 43.482 171.913 43.3849 168.126 43.5098C164.395 43.6329 160.557 43.9658 156.621 44.5173C146.778 45.8959 136.986 48.5283 127.601 52.0936C118.373 55.5999 109.377 60.0705 101.005 65.2416C92.6156 70.4179 84.7026 76.3936 77.6791 82.9329C70.5232 89.6005 64.1544 96.9739 59.0597 104.862C53.7691 113.054 50.2697 121.149 48.528 128.854C46.6944 136.945 46.8021 144.665 48.865 151.602C51.0427 158.932 55.4209 165.405 62.035 170.436C69.0268 175.756 78.4838 179.446 90.3162 180.775C90.7432 180.818 91.1703 180.87 91.6044 180.91C92.0315 180.95 92.4674 180.981 92.9015 181.016C93.3373 181.045 93.7732 181.078 94.2179 181.106C94.6609 181.137 95.0968 181.159 95.5415 181.18L92.8379 167.162L127.583 176.743L102.779 218.627L99.0497 199.321C97.5444 199.348 96.0409 199.345 94.5621 199.312C93.085 199.284 91.6291 199.22 90.1909 199.13C88.7526 199.042 87.3391 198.92 85.9344 198.775C84.5456 198.631 83.1656 198.454 81.8103 198.251C74.8591 197.207 68.5821 195.471 63.0197 193.113C57.6303 190.831 52.9309 187.973 48.9621 184.622C45.1168 181.374 41.9456 177.67 39.4733 173.578C37.0892 169.621 35.3492 165.303 34.2709 160.669C33.228 156.195 32.8415 151.564 33.048 146.835C33.2456 142.253 34.0009 137.573 35.2909 132.851C36.5403 128.259 38.2891 123.61 40.5091 118.957C42.678 114.414 45.2897 109.85 48.3391 105.306C51.3215 100.855 54.6409 96.5335 58.248 92.3699C61.7968 88.2739 65.6421 84.3132 69.7432 80.5155C73.8021 76.7577 78.1238 73.1421 82.6838 69.6999C87.2191 66.2768 91.9926 63.0063 96.9973 59.9196C102 56.8363 107.104 54.0098 112.262 51.4554C117.429 48.8907 122.697 46.5861 127.996 44.5624C133.354 42.5196 138.777 40.7491 144.216 39.2803C149.737 37.7907 155.316 36.5994 160.887 35.7392C165.168 35.0768 169.366 34.6242 173.474 34.3797C177.648 34.1283 181.738 34.097 185.716 34.2843C189.766 34.4785 193.71 34.8982 197.515 35.5554C201.401 36.2283 205.156 37.1473 208.738 38.3231C209.577 38.5988 210.408 38.8901 211.221 39.1901C212.051 39.4953 212.855 39.8109 213.653 40.1456C214.451 40.4751 215.238 40.8219 216.011 41.1809C216.787 41.5433 217.56 41.9161 218.308 42.3046Z" fill="white"/>
</svg>
