<svg width="15" height="16" viewBox="0 0 15 16" fill="none" xmlns="http://www.w3.org/2000/svg">
<path d="M10.5537 9.66667H9.89662L9.66373 9.44167C10.4788 8.49167 10.9695 7.25833 10.9695 5.91667C10.9695 2.925 8.54922 0.5 5.56332 0.5C2.57743 0.5 0.157104 2.925 0.157104 5.91667C0.157104 8.90833 2.57743 11.3333 5.56332 11.3333C6.9024 11.3333 8.13336 10.8417 9.08152 10.025L9.30609 10.2583V10.9167L13.4647 15.075L14.704 13.8333L10.5537 9.66667ZM5.56332 9.66667C3.49233 9.66667 1.82056 7.99167 1.82056 5.91667C1.82056 3.84167 3.49233 2.16667 5.56332 2.16667C7.63432 2.16667 9.30609 3.84167 9.30609 5.91667C9.30609 7.99167 7.63432 9.66667 5.56332 9.66667Z" fill="black" fill-opacity="0.5"/>
</svg>
