<svg width="58" height="58" viewBox="0 0 58 58" fill="none" xmlns="http://www.w3.org/2000/svg">
<circle cx="28.6719" cy="29" r="28" stroke="#FF8B00"/>
<path d="M28.5684 13.4766L42.0684 19.5234V28.5234C42.0684 32.6953 40.7793 36.5156 38.2012 39.9844C35.623 43.4062 32.4121 45.5859 28.5684 46.5234C24.7246 45.5859 21.5137 43.4062 18.9355 39.9844C16.3574 36.5156 15.0684 32.6953 15.0684 28.5234V19.5234L28.5684 13.4766ZM28.5684 30V43.4297C31.334 42.5391 33.6777 40.875 35.5996 38.4375C37.5215 35.9531 38.6699 33.1406 39.0449 30H28.5684ZM28.5684 30V16.7812L18.0918 21.4219V30H28.5684Z" fill="#FF8B00"/>
</svg>
