<svg width="58" height="58" viewBox="0 0 58 58" fill="none" xmlns="http://www.w3.org/2000/svg">
<circle cx="29.1423" cy="29" r="28" stroke="#FF8B00"/>
<g clip-path="url(#clip0)">
<path d="M48.927 29.76C47.6411 28.768 45.6088 28.6829 44.2749 30.023L40.9634 33.3507C40.5353 32.0626 39.2502 31.1247 37.7353 31.1247H31.8259C31.3775 31.1247 31.2274 30.9644 30.4485 30.4027C27.4787 27.9792 23.0181 27.9869 20.0574 30.4259L17.8853 32.2159C16.909 31.7322 15.7688 31.7202 14.7871 32.1793L12.2958 33.3451C11.7393 33.6059 11.514 34.2394 11.7918 34.7604L18.5515 47.4159C18.8302 47.9369 19.5068 48.1477 20.0634 47.8876L22.5547 46.7212C23.7827 46.1469 24.4661 44.974 24.4218 43.7803H37.7353C40.204 43.7803 42.5631 42.6764 44.0443 40.8274L49.4527 34.0764C50.502 32.7679 50.336 30.8491 48.927 29.76ZM21.5467 44.8348L20.0633 45.5294L14.3109 34.7604L15.795 34.0658C16.3516 33.8056 17.0276 34.0158 17.3062 34.5376L22.0507 43.4203C22.3286 43.9412 22.1033 44.574 21.5467 44.8348ZM47.6501 32.8107L42.2417 39.5617C41.1835 40.8828 39.4988 41.671 37.7353 41.671H23.6355L19.4137 33.7662L21.546 32.0093C23.6677 30.2621 26.8673 30.2621 28.9891 32.0093C30.2388 33.0393 31.0162 33.234 31.8259 33.234H37.7353C38.3564 33.234 38.8619 33.7072 38.8619 34.2886C38.8619 34.8701 38.3564 35.3433 37.7353 35.3433H31.9814C31.3594 35.3433 30.8548 35.8158 30.8548 36.3979C30.8548 36.98 31.3595 37.4525 31.9814 37.4525H38.4901C39.4252 37.4525 40.3265 37.0855 40.9634 36.445L45.9235 31.4608C46.3771 31.0052 47.0726 31.0432 47.4992 31.3926C47.9453 31.7582 47.9935 32.3832 47.6501 32.8107Z" fill="#FF8B00"/>
<path d="M35.3619 19.1977C36.1332 18.4405 36.6087 17.4169 36.6087 16.2898C36.6087 13.9682 34.6048 12.001 32.1023 12.001C29.6185 12.001 27.5208 13.9647 27.5208 16.2898C27.5208 17.3823 27.9782 18.4138 28.8089 19.2062C26.7487 20.2875 25.2676 22.363 25.2676 24.7971V25.8517C25.2676 26.4338 25.7723 26.9063 26.3942 26.9063H37.7353C38.3572 26.9063 38.8619 26.4338 38.8619 25.8517V24.7971C38.8618 22.4108 37.4597 20.303 35.3619 19.1977ZM32.1023 14.1103C33.3235 14.1103 34.3555 15.1086 34.3555 16.2898C34.3555 17.4527 33.3445 18.3991 32.1023 18.3991C30.8405 18.3991 29.774 17.433 29.774 16.2898C29.774 15.129 30.8623 14.1103 32.1023 14.1103ZM27.5208 24.7971C27.5208 22.472 29.6185 20.5083 32.1023 20.5083C34.5868 20.5083 36.6087 22.4319 36.6087 24.7971H27.5208Z" fill="#FF8B00"/>
</g>
<defs>
<clipPath id="clip0">
<rect width="38.4571" height="36" fill="white" transform="translate(11.6729 12)"/>
</clipPath>
</defs>
</svg>
