<svg width="58" height="58" viewBox="0 0 58 58" fill="none" xmlns="http://www.w3.org/2000/svg">
<ellipse cx="28.4029" cy="29" rx="26.9226" ry="28" stroke="#FF8B00"/>
<g clip-path="url(#clip0)">
<path d="M22.0356 12C19.6264 12 17.7023 13.9692 17.7023 16.2891C17.7023 18.6153 19.6462 20.5078 22.0356 20.5078C24.4249 20.5078 26.3688 18.6153 26.3688 16.2891C26.3688 13.9673 24.4423 12 22.0356 12ZM22.0356 18.3984C20.8409 18.3984 19.8689 17.4522 19.8689 16.2891C19.8689 15.1075 20.8611 14.1094 22.0356 14.1094C23.21 14.1094 24.2022 15.1075 24.2022 16.2891C24.2022 17.4522 23.2302 18.3984 22.0356 18.3984Z" fill="#FF8B00"/>
<path d="M46.013 12H30.7021C28.9101 12 27.4521 13.4194 27.4521 15.1641V22.3616L26.5 21.4347C25.8862 20.837 25.0701 20.5078 24.2022 20.5078H22.0355C21.5763 20.5078 18.1615 20.5078 17.7023 20.5078C14.7155 20.5078 12.2856 22.8735 12.2856 25.7812C12.2856 26.3809 12.2856 31.2431 12.2856 32.1094C12.2856 33.854 13.7436 35.2734 15.5356 35.2734C15.9153 35.2734 16.28 35.2097 16.6189 35.0927V44.8359C16.6189 46.5806 18.0769 48 19.8689 48C20.7005 48 21.4601 47.6944 22.0355 47.1924C22.6109 47.6944 23.3705 48 24.2022 48C25.9942 48 27.4521 46.5806 27.4521 44.8359V30.875C28.2805 31.1594 29.198 31.1046 29.989 30.7209L33.6365 28.9453H46.013C47.8051 28.9453 49.263 27.5259 49.263 25.7812V15.1641C49.263 13.4194 47.8051 12 46.013 12ZM33.3533 26.7248L29.0213 28.8335C28.6149 29.0307 28.1102 28.9678 27.7695 28.6362L27.1349 28.0184C26.465 27.3662 25.2885 27.8098 25.2856 28.7609C25.2856 28.7619 25.2854 28.7629 25.2854 28.764V44.8359C25.2854 45.4175 24.7994 45.8906 24.2021 45.8906C23.6048 45.8906 23.1188 45.4175 23.1188 44.8359V34.2188C23.1188 33.6363 22.6337 33.1641 22.0355 33.1641C21.4372 33.1641 20.9521 33.6363 20.9521 34.2188V44.8359C20.9521 45.4175 20.4662 45.8906 19.8688 45.8906C19.2715 45.8906 18.7855 45.4175 18.7855 44.8359V32.1094C18.7855 31.3141 18.7855 26.4312 18.7855 25.7812C18.7855 25.1988 18.3005 24.7266 17.7022 24.7266C17.1039 24.7266 16.6189 25.1988 16.6189 25.7812C16.6189 26.3809 16.6189 31.2431 16.6189 32.1094C16.6189 32.6909 16.1329 33.1641 15.5355 33.1641C14.9382 33.1641 14.4522 32.6909 14.4522 32.1094C14.4523 31.3141 14.4523 26.4312 14.4523 25.7812C14.4523 24.0366 15.9102 22.6172 17.7023 22.6172C18.5191 22.6172 23.5346 22.6172 24.2022 22.6172C24.4914 22.6172 24.7633 22.7269 24.968 22.9263L28.1968 26.0697C28.5264 26.3907 29.0303 26.4702 29.4473 26.2673L32.3844 24.8375C32.922 24.5756 33.5699 24.7873 33.8378 25.3095C34.1058 25.8312 33.8892 26.4639 33.3533 26.7248ZM47.0964 25.7812C47.0964 26.3628 46.6104 26.8359 46.013 26.8359H35.9323C35.9389 26.8179 35.9461 26.8001 35.9523 26.7819C36.1083 26.3263 36.1551 25.8525 36.0955 25.3898L42.0198 22.5059C42.5549 22.2454 42.7718 21.6119 42.5042 21.0908C42.2367 20.5698 41.5859 20.3586 41.0508 20.6192L35.1268 23.5029C34.1777 22.6091 32.6992 22.3254 31.4151 22.951L29.6188 23.8255V15.1641C29.6188 14.5825 30.1048 14.1094 30.7021 14.1094H46.013C46.6104 14.1094 47.0964 14.5825 47.0964 15.1641V25.7812Z" fill="#FF8B00"/>
</g>
<defs>
<clipPath id="clip0">
<rect width="36.9774" height="36" fill="white" transform="translate(12.2856 12)"/>
</clipPath>
</defs>
</svg>
