<svg width="58" height="58" viewBox="0 0 58 58" fill="none" xmlns="http://www.w3.org/2000/svg">
<circle cx="28.8423" cy="29" r="28" stroke="#FF8B00"/>
<path d="M47.237 18.04L39.4254 10.7275C39.1904 10.5075 38.8107 10.5075 38.5757 10.7275L32.3493 16.5561C31.8956 16.3322 31.3211 16.3935 30.9402 16.7501L28.14 19.3714C27.6881 19.1576 27.1017 19.2184 26.7339 19.5626L12.0331 33.3242C10.8235 34.4565 10.1577 35.9612 10.1577 37.5626C10.1577 39.1641 10.8235 40.6688 12.0331 41.8011L14.0425 43.6821C15.2521 44.8144 16.8595 45.4376 18.5702 45.4376C20.2809 45.4376 21.8883 44.8144 23.0979 43.6821L37.7987 29.9205C38.0259 29.7079 38.1509 29.4255 38.1509 29.1251C38.1509 28.9384 38.0974 28.7612 38.0067 28.6009L40.8032 25.983C41.1848 25.6264 41.2503 25.0886 41.0105 24.664L47.237 18.8353C47.4719 18.6154 47.4719 18.2599 47.237 18.04ZM29.0341 20.1251L29.9872 19.233L38.1509 26.8751L37.1979 27.7673L29.0341 20.1251ZM22.2483 42.8867C21.2658 43.8064 19.9595 44.3126 18.5702 44.3126C17.1809 44.3126 15.8746 43.8064 14.8921 42.8867L12.8828 41.0057C11.9003 40.086 11.3595 38.8631 11.3595 37.5626C11.3595 36.2621 11.9003 35.0393 12.8828 34.1196L27.5836 20.358L36.9491 29.1251L22.2483 42.8867ZM39.0005 26.0798L30.8368 18.4376L31.7898 17.5455L39.9535 25.1876L39.0005 26.0798ZM40.2023 23.8298L33.2404 17.3126L39.0005 11.9205L45.9625 18.4376L40.2023 23.8298Z" fill="#FF8B00"/>
<path d="M16.892 37.4461C16.1841 36.7823 14.9475 36.7823 14.2396 37.4461C13.8851 37.7774 13.6904 38.2184 13.6904 38.6875C13.6904 39.1566 13.8851 39.5976 14.2396 39.9289L16.0423 41.6164C16.3962 41.9483 16.8673 42.1306 17.3685 42.1306C17.8696 42.1306 18.3407 41.9483 18.6947 41.6164C19.0492 41.2851 19.2439 40.8441 19.2439 40.375C19.2439 39.9059 19.0492 39.4649 18.6947 39.1336L16.892 37.4461ZM17.845 40.8211C17.5902 41.0596 17.1468 41.0596 16.892 40.8211L15.0893 39.1336C14.9619 39.0143 14.8922 38.8562 14.8922 38.6875C14.8922 38.5187 14.9619 38.3607 15.0893 38.2414C15.2167 38.1222 15.3855 38.0569 15.5658 38.0569C15.7461 38.0569 15.9149 38.1222 16.0423 38.2414L17.845 39.9289C17.9724 40.0482 18.0421 40.2062 18.0421 40.375C18.0421 40.5437 17.9724 40.7018 17.845 40.8211V40.8211Z" fill="#FF8B00"/>
<path d="M28.5366 27.4375L22.7764 32.8296V28.7954L23.6712 27.9578C23.7697 27.9826 23.8713 28 23.9782 28C24.641 28 25.18 27.4954 25.18 26.875C25.18 26.2546 24.641 25.75 23.9782 25.75C23.3154 25.75 22.7764 26.2546 22.7764 26.875C22.7764 26.9751 22.7951 27.0702 22.8215 27.1624L21.7507 28.1648C21.6377 28.27 21.5747 28.4129 21.5747 28.5625V33.9546L20.079 35.3547C19.9805 35.3299 19.8789 35.3125 19.772 35.3125C19.1092 35.3125 18.5702 35.8171 18.5702 36.4375C18.5702 37.0579 19.1092 37.5625 19.772 37.5625C20.4348 37.5625 20.9738 37.0579 20.9738 36.4375C20.9738 36.3374 20.9551 36.2423 20.9287 36.1501L24.227 33.0625H29.3862C29.5461 33.0625 29.6987 33.0034 29.8111 32.8977L30.8819 31.8953C30.9804 31.9201 31.082 31.9375 31.1889 31.9375C31.8517 31.9375 32.3907 31.4329 32.3907 30.8125C32.3907 30.1921 31.8517 29.6875 31.1889 29.6875C30.5261 29.6875 29.9871 30.1921 29.9871 30.8125C29.9871 30.9126 30.0058 31.0077 30.0322 31.0999L29.1375 31.9375H25.4288L29.3862 28.2329L29.5623 28.3977C29.6759 28.504 29.8297 28.5625 29.9871 28.5625C30.0328 28.5625 30.0791 28.5574 30.1247 28.5479C30.3278 28.5029 30.4907 28.3634 30.5568 28.1783L31.1577 26.4908C31.2298 26.2889 31.1733 26.0656 31.0129 25.9154C30.8524 25.7652 30.6145 25.7117 30.3981 25.7798L28.5955 26.3423C28.3978 26.4036 28.2488 26.5566 28.2007 26.7467C28.1532 26.9363 28.2133 27.1354 28.3611 27.2738L28.5366 27.4375Z" fill="#FF8B00"/>
<path d="M37.3706 16.3545L38.5722 15.2297L39.422 16.0252L38.2204 17.15L37.3706 16.3545Z" fill="#FF8B00"/>
<path d="M40.3744 19.167L41.576 18.0422L42.4258 18.8377L41.2242 19.9625L40.3744 19.167Z" fill="#FF8B00"/>
</svg>
